<?xml version="1.0" encoding="UTF-8"?>
<svg id="Layer_2" data-name="Layer 2" xmlns="http://www.w3.org/2000/svg" viewBox="0 0 421.85 288.58">
  <defs>
    <style>
      .cls-1 {
        fill: #fff;
      }
    </style>
  </defs>
  <g id="_Слой_1" data-name="Слой 1">
    <g>
      <path class="cls-1" d="M144.38,207.99c-.32,0-2.19-1.99-2.51-.49,1.99,10.18,4.41,17.27,1.89,27.87-1.96,8.25-8.86,12.39-8.99,20.52-2.96.3-6.31,1.41-9.28,1.08-2.44-.27-4.12-2.56-5.11-2.62-3.77-.22-12.44,2.47-19.02,1.67-4.27-.52-6.76-3.1-11.97-3.1-4.76,0-9.23,2.86-13.01,3.13s-6.88-1.26-10.85-.98c-3.06.22-14.06,6.27-14.65,3.39.45-10.39,11.27-7.85,17.25-12.46,2.58-1.99,4.02-7.28,7.47-8.87,4.91-1.14,6.82,6.7,7.95,6.91.48.09,8.86-1.7,9.56-2.08,1.26-.66,1.53-2.81,3.39-3.86,8.36-4.72,18.31-1.67,26.38,1.87.93-5.82-4.29-4.43-6.42-8.07-3.41-5.83-6.49-19.22-1.58-24.91-9.74.93-13.34-11.76-9.47-19,.91-1.71,3.43-1.7,3.54-2.58.09-.74-3.18-13.54-3.51-14.49-1.4-3.96-9.21-8.82-10.34-13.66-1.11-4.78,1.08-11.72.53-14.67-.46-2.49-4.56-4.05-4.79-11.08-.22-6.39,2.74-8.04,2.82-9.03.09-1.05-3.08-3.31-2.72-7.87.32-4.06,3.67-5.93,3.98-8.19.42-2.98-1.61-4.29-.09-8.99.73-2.26,11.81-17.63,13.5-18.52,3.71-1.96,9.9-.22,13.26-2.24,1.08-.65,10.12-12.4,13.29-15.21,42.71-37.86,119.46-39.87,167.68-11.66,52.05,30.45,55.77,87.16,4.24,120.58-34.55,22.41-79.29,26.31-118.91,17.6,5.07,1.81,3.15,4.44,4.97,6.5,2.27,2.57,7.61.86,4.26,9.23-1.28,3.19-5.33,4.52-7.09,6.9-8.55,11.56-8.9,11.84-18.82,21.68-3.29,3.26-5.88,9.27-10.3,12.17,7.1,3.1,11.73,8.04,19.99,7.99l.99,3.5c-3.6.17-6.87,2.03-10.5,2.08-5.26.08-11.09-3.4-14.39-3.61-2.46-.16-14.23,4.42-15.99-.11-2.87-7.41,7.7-12.2,11.07-17.66,4.85-7.85,1.8-9.46,3.24-15.71,1.06-4.58,7.35-10.13,10.56-13.49-.74-1.63-2.32.51-2.49.51-6.33,0-12.68-.13-19,0ZM225.88,32.99c-13.94.09-25.85,11.21-32,22.99l32,2.01v-25ZM227.88,32.99v25l32-2.01c-6.34-11.69-17.95-22.95-32-22.99ZM211.87,34.01l-26.03,9.45-9.97,8.53,15.99,2.55c5.54-8.14,11.64-15.28,20.01-20.53ZM277.87,50.02c-10.88-7.24-22.61-14.53-35.98-16.01l20.71,20.85,14.67-2.86.61-1.98ZM194.87,36.01l-30.99,9.48c2.01,1.55,6.77,4.77,9.24,4.32,3.02-.55,16.67-12.7,21.75-13.81ZM289.88,45l-31.99-9,22.77,13.81c1.7.88,10.96-2.79,9.22-4.81ZM157.68,68.79l13.18-16.3c-.02-.51-8.23-5.23-8.73-5.32-4.37-.72-21.1,12.21-25.22,15.32l20.78,6.3ZM316.87,62.02c-5.75-2.59-17.2-13.67-22.9-14.56-1.07-.17-11.02,4.43-11.06,5.04l14.43,17.19,18.96-5.62.58-2.05ZM189.88,57c-14.07-1.85-14.86-8.35-24.97,4.52-.92,1.18-5.62,7.59-5.02,8.46l23.94,3.96,6.06-16.94ZM293.88,70.99c2.2-2.06-10.89-16.03-13.04-17.53l-16.97,3.54,6.1,16.89,23.91-2.9ZM225.88,59.99l-33.32-2.07-6.71,15.49,40.03,2.58v-16ZM227.88,59.99v16l37.49-1.01,2.44-1.57-6.62-15.48-33.31,2.05ZM155.88,71.01l-20.51-6.73-11.49,12.71c9.61-1.13,18.54,1.62,26.99,6.01l5.01-11.99ZM304.98,88.89c3.99.21,27.91-3.59,27.8-7.23l-14.2-16.49-19.7,5.83,6.1,17.89ZM182.88,76.01l-24.35-3.89c-16.01,19.73,5.14,17.76,19.7,19.79l4.64-15.9ZM302.88,89.99l-6.95-17.51-25.06,3.53,4.64,16.91,27.36-2.93ZM225.88,77.99l-40.99-2.01c-1.2,5.63-3.59,11.1-3.02,17.01l44,2v-17ZM227.88,77.99v17l45-2.01-4.01-17-40.99,2.01ZM341.88,109.99c-1.58-8.36-1.77-17.92-7.59-24.83l-28.41,5.84,3,18.99h33ZM140.88,89c-6.19,3.16-9.81,9.45-18,8,2.49,4.32-1,8.6-3.98,11.49,10.59,4.61,13.16-12.18,26.97-2.5l-.48-6.01-5.58-2.61,1.06-8.37ZM150.38,109.99h27.5l1.01-16-20.01-1.99c2.82,4.92-6.1,11.51-10.97,11.02-.52,2.1.27,6.3,2.47,6.97ZM306.88,109.99l-2.18-16.32-2.35-1.73-27.48,3.05,1,15h31ZM179.88,109.99h46v-13.01c-15.03.23-30.01-1.76-45-2l-1,15ZM227.88,109.99h46l-1-15.01-1.51-.03-43.5,2.03v13.01ZM177.88,112.99h-24.5c-.23,0-.98-1.22-1.43-.99-1.93,6.01-4.81,12.22-2.19,18.41l18.07-1.47c-.5-8.81.4-12.32,10.06-10.94v-5.01ZM341.88,113l-32.85.14-3.15,18.84,28.95,6.99c3.8-8.28,6.24-16.87,7.05-25.98ZM124.88,113.01l-3-.02-2,10c6.66-.19,4.39-5.57,5-9.98ZM225.88,112.99h-46l.44,5.06c6.66,1.39,8.97,4.27,13.04,9.02l32.53-1.07v-13.01ZM273.88,112.99h-46v13.01s43.49,2.03,43.49,2.03l1.51-.03,1-15.01ZM306.88,112.99h-31l-1,15,27.5,3.11,1.81-1.32,2.69-16.78ZM225.88,127.99l-32,1.01,3.94,15.55,28.06-.56v-16ZM227.88,127.99v16l40.37,1.87,4.63-15.85-45-2.01ZM302.88,133l-27.36-2.93-1.46,1.62-3.18,15.3,25.83,2.83,6.17-16.82ZM179.87,132.99c-5.73,3.04-8.55-1.81-12.44-2.04-4.2-.25-11.95,2.36-16.57,2.56l1.14,5.36c3.55.48,7.14-.54,10.62.88,3.65,1.49,3.94,6.03,4.27,6.25.52.35,7.02-5.04,11.47,1.01,1.8-4.85,3-8.86,1.5-14.02ZM148.78,134.1c-.4-.31-9.91.04-9.89,2.38l8.36,5.46c3.11-.46,2.64-6.97,1.53-7.84ZM332.88,140l-27.96-5.98-6.04,17.96,20.36,5.83c2.77-1.11,14.88-16.37,13.65-17.82ZM225.88,146.99h-25.5c-.39,0-1.63.99-2.34,1.17.67,7-1.82,11.17-5.16,16.82l32.99-1.99v-16ZM227.88,146.99v15l33.34,3.09,6.67-16.57-40.02-1.51ZM293.88,152l-23.89-2.88-6.11,16.86,17.03,3.49c2.16-1.61,15.04-15.52,12.97-17.48ZM316.88,159.01l-19.4-5.84-14.59,17.81c4.48-.23,7.36,4.48,11.99,3.6,2.8-.53,13.6-7.62,16.34-9.75.85-.66,6.81-4.62,5.67-5.82ZM225.88,164.99l-32,2.01c6.41,11.67,17.92,22.64,32,22.99v-25ZM227.88,164.99v25c14.08-.35,25.59-11.31,32-22.99l-32-2.01ZM278.87,171.01l-16.89-3.92c-4.19,9.18-12.22,15.95-20.1,21.9,13.72-2.32,26.83-8.54,36.99-17.98ZM166.87,172.01c-5.54-1.32-7.54-5.37-11.99.97,5.09,2.89,7.63,4.05,11.99-.97ZM211.87,188.01c-8.46-3.7-14.05-11.8-19.58-18.83l-16.41,2.83c9.01,7.75,21.23,14.26,32.95,16.55,1.02.2,3.29,1.3,3.04-.54ZM290.87,176.01c-2.69-.11-7.21-3.93-9.51-3.65-1.58.19-16.77,12.63-20.48,13.62,10.33-1.22,21.2-4.58,29.99-9.97ZM161.87,178.01c-3.37-.13-7.83-4.48-10.62-4.72-.61-.05-10.85.07-11.87.13-6.08.32-11.19,5.71-6.42,10.98s7.17-.47,11.94-1.88c5.69-1.68,12.19-.99,16.96-4.51ZM195.87,186.01c-6.75.75-18.69-12.08-22.75-12.83-2.94-.54-5.96,3.31-9.24,2.83,4.52,3.89,13.3,6.54,19.24,8.25,3.28.95,9.96,3.64,12.75,1.75Z"/>
      <path class="cls-1" d="M153.87,0c2.35,8.71-8.86,9.27-11.1,14.39-2.61,5.96.14,18.68-1.14,25.86-.24,1.32-7.38,14.88-8,15.5-7.99,7.86-24.85,11.01-33.67,16.83-2.89,1.9-5.32,6.23-9.39,8.62-9.55,5.6-23.92,4.28-26.27,17.8-.97,5.6,18.34,16.05,10.16,31.09-1.28,2.35-2.9,2.72-4.42,4.58l-4.16,29.33c7.94-4.32,9.76,5.19,13.93,6.57,5.3,1.76,15.02-2.38,16.1,5.91.2,3.28-4.98.3-7.4.58-7.33.87-11.54,2.6-19.64-.05,8.08,13.66-4.65,25.03-4,38.99l7.88-1.87c1.86,4.45-1.61,9.3-1.84,12.42-.16,2.2,1.2,4.85.98,7.92-.38,5.42-4.97,10.96-10.41,11.48l-1.67-3.38c12.09-8.01-1.61-15.74-2.89-22.12-1.9-9.45-3.22-26.97-4.13-36.96-.32-3.52,2.16-6.96.63-10.54-12.21-3.32-24.55-5.65-36.22-10.77-6.28-2.76-21.79-8.38-15.9-17.25,14.28-11.97,25.8-28.1,46.56-27.93l-2.01-15.99c-2.04,1.27-4.87,3.02-7.38,2.72-8.09-.96-27.73-25.06-24.62-34.99,8.08-10.24,15.87-8.99,26.05-12.18,3.22-1.01,6.05-4.52,10.7-5.3,11.64-1.94,12.41,6.23,23.27,3.75v-3.98c-3.89,2.28-6.54-5.97-6.82-8.77-.35-3.43,3.42-4.98,2.92-9.77-.22-2.12-4.21-6.41-6.17-8.03,1.42-4.39,2.33-6.72,7.53-6.48s4.97,3.61,5.95,3.77c2.23.36,9.42-3.69,13.56.27.5-6.88,7.76-12.54,14.4-8.89,2.84,1.56,2.63,4.44,3.89,5.6,3.36,3.1,14.14,3.51,17.71.28l-4.98,9.51,2.97,1.96c-4,9.81-15.2,22.25-26.02,13.83-2.77-4.86,1.54-12.73-2.94-16.29,0,3.92-.25,9.1-1.8,12.71-2.12,4.93-8.18,6.61-5.07,14.64,1.66,4.29,8.09-.05,10.45-.35,2.7-.34,5.11,1.42,7.36.53,1.12-.44,3.51-3.76,6.01-5.07,4.32-2.26,7.98-3.13,12.59-4.41-2.37-12.32,19.29-31.2,4.46-37.56,3.36-2.59,7.03.32,12.01-.98,4.49-1.17,7.42-6.38,11.96-7.52ZM56.87,67.99c-3.47-7.96-6.68-1.47-9.64-.14-5.57,2.51-13.39,6.88-19.34,4.14l8.49,21.98c2.11-4.46,10.05-1.62,10.49-1.97.32-.25,3.01-7.18,3.05-7.59.21-2.81-2.45-3.44-3.01-5.94-1.93-8.64,1.47-11.83,9.97-10.49ZM48.88,139c-5.13.42-9.02,4.21-13.94,5.55s-11.55-1.11-15.06,4.43c12.46-2.71,24.71,3.16,31.99,13.01-1.34-7.41-4.91-15.59-2.99-22.99Z"/>
      <path class="cls-1" d="M349.88,208.49l2.25-1.3c11.26,3.59,37.99-3.96,45.76,5.29,5.91,7.03,1.88,14.76-6,17.5,17.67,2.07,12.29,25.01-2.51,25.01h-39.5v-46.5ZM367.87,226c20.68,3.06,20.42-11.87,0-9.01v9.01ZM367.87,245c4.78-.6,13.93,1.85,16.92-2.65l.69-3.39c-1.46-5.31-13.47-3.74-17.6-3.97v10.01Z"/>
      <path class="cls-1" d="M328.38,207.99c10.93,2.23,13.39,17.91,1.51,21.99,17.13,3.32,12.25,25.01-3.51,25.01h-38.5v-47c11.64,1.65,29.68-2.21,40.5,0ZM319.61,218.25l-13.74-1.26v9.01c6.21-.17,18.35,2.2,13.74-7.75ZM321.61,243.74c5.16-10.3-9.27-8.81-15.74-8.75v10.01s15.74-1.26,15.74-1.26Z"/>
      <path class="cls-1" d="M274.38,207.99c.62-.03,2.09-1.56,3.49-.99v10.99s-25.99,0-25.99,0v8h22v10h-22v19h-18v-47c13.44-.49,27.06.66,40.5,0Z"/>
      <path class="cls-1" d="M220.88,206.99v48h-17v-48c5.5.65,11.77,1.08,17,0Z"/>
      <path class="cls-1" d="M30.88,264.99c10.33-.68,26.83.18,15.04,13.45l4.98,9.03c-9.75,3.78-6.46-5.15-12.5-8.5l-.95,8.07-6.56.94v-23Z"/>
      <path class="cls-1" d="M196.88,264.99c8.93-2.11,8.4,7.86,13.99,12v-12.01s6.01,0,6.01,0v23c-8.31,2.03-9.48-7.17-13.5-12.01l-.49,12.02h-6.01v-23.01Z"/>
      <path class="cls-1" d="M353.56,266.32c.94.67,3.04,5.03,2.31,5.67l-11.31-1.86c-7.16,5.65.47,19.64,6.31,9.87h-4s0-5.01,0-5.01h10.01s-.49,10.02-.49,10.02c-11.77,9.03-26.68-1.73-19.4-15.4,2.48-4.66,12.59-6.11,16.57-3.29Z"/>
      <path class="cls-1" d="M60.62,265.23c16.75-2.9,16.95,20.17,6.54,22.55-17.57,4.02-19.09-20.38-6.54-22.55ZM60.13,271.25c-1.95,2.69-1.97,10.34,1.43,11.6,8.86,3.28,8.22-17.25-1.43-11.6Z"/>
      <path class="cls-1" d="M179.62,265.22c19.09-3.66,18.01,28.39-1.79,22.32-8.44-2.59-9.01-20.25,1.79-22.32ZM179.13,271.25c-2.94,3.07-1.64,14.02,5.08,11.6,6.43-2.31.91-17.85-5.08-11.6Z"/>
      <path class="cls-1" d="M326.73,265.15l7.15,22.84c-7.32,2.2-5.57-3.55-8.47-4.07-9.55-1.69-5.72,3.3-6.53,4.08l-7-.02,7.48-22.01,7.36-.83Z"/>
      <polygon class="cls-1" points="114.88 264.99 114.89 270 103.87 270 103.87 273.99 113.88 274 113.88 277.99 103.86 278.58 103.87 283 114.89 282.99 114.88 287.99 98.38 287.99 96.88 286.49 96.88 266.49 98.38 264.99 114.88 264.99"/>
      <polygon class="cls-1" points="401.38 264.99 402.88 269.99 391.87 270 391.87 273.99 401.88 274 401.88 277.99 391.87 277.99 391.87 283 402.89 282.99 402.88 287.99 384.88 287.99 384.88 266.49 386.38 264.99 401.38 264.99"/>
      <path class="cls-1" d="M233.74,265.14l8.14,22.84c-7.77,2.48-6.86-3.6-9.47-4.06-9.55-1.69-5.72,3.3-6.53,4.08l-7-.02c2.65-4.96,5.6-28.53,14.85-22.85Z"/>
      <path class="cls-1" d="M366.88,264.99v14.5c0,2.27,4.43,5.22,6.53,2.52l.91-16.05,6.57-.97v16.5c0,9.32-20,7.76-20,1v-17.5h6Z"/>
      <polygon class="cls-1" points="309.88 264.99 309.89 270 298.87 270 298.87 273.99 308.88 274 308.88 277.99 298.87 277.99 298.87 283 310.88 283 309.38 287.99 292.88 287.99 292.88 264.99 309.88 264.99"/>
      <path class="cls-1" d="M156.87,271.99c-3.78,2.47-10.08-5.84-11.98-1.48-1.04,2.38,9.52,2.45,11.87,7.13,5.87,11.67-18.89,15.05-17.88,2.35,3.96-3.7,10.39,8.17,11.99,2.48,1.46-5.18-11.84-3.25-11.73-10.81.14-8.88,17.71-9.21,17.73.32Z"/>
      <path class="cls-1" d="M9.88,264.99c9.6-.74,22.04-.3,16,12.5l-9.54,2.43-.46,8.07h-6.01v-23.01Z"/>
      <path class="cls-1" d="M135.88,271.98c-3.61,2.84-10-6.03-11.99-1.47-1.06,2.43,9.8,2.89,11.49,6.48,1.02,2.18.79,6.88-.77,8.74-6.25,3.83-17.55,4.16-16.73-5.73l5.43-.07c.54,3.57,3.65,5.64,6.56,2.55,1.36-4.48-8.36-3.64-10.88-8.12-5.51-9.77,15.65-14.2,16.89-2.38Z"/>
      <polygon class="cls-1" points="93.88 264.99 93.89 270 83.87 270 83.87 273.99 91.88 273.99 91.88 279 83.87 278.99 83.89 288 77.88 287.99 77.88 264.99 93.88 264.99"/>
      <polygon class="cls-1" points="279.88 281.99 289.88 281.99 289.88 287.99 272.88 287.99 272.88 264.99 279.88 266.49 279.88 281.99"/>
      <polygon class="cls-1" points="249.88 264.99 249.88 281.99 259.93 282.44 259.38 287.99 243.88 287.99 243.88 264.99 249.88 264.99"/>
      <polygon class="cls-1" points="167.88 287.99 160.88 287.99 160.88 264.99 166.21 265.16 167.88 266.49 167.88 287.99"/>
      <path class="cls-1" d="M412.61,253.2c9.72-2.82,12.77,10.17,4.28,12.4s-10.89-10.48-4.28-12.4ZM410.93,262.95c15.01,2.71,8.71-13.02,1.38-8.04-2.74,1.86-2.12,5.35-1.38,8.04Z"/>
    </g>
  </g>
</svg>