<?xml version="1.0" encoding="UTF-8"?>
<svg id="Layer_2" data-name="Layer 2" xmlns="http://www.w3.org/2000/svg" viewBox="0 0 604 604">
  <defs>
    <style>
      .cls-1 {
        fill: #fff;
      }
    </style>
  </defs>
  <g id="_Слой_1" data-name="Слой 1">
    <g>
      <rect width="604" height="604"/>
      <rect class="cls-1" x="33" y="33" width="538" height="538"/>
      <polygon points="145 336 150.01 401.99 160.11 336.11 177.42 335.94 187.5 402.01 193 336 208 336 198.89 426.89 177.43 426.07 168.51 362.99 160.11 426.42 139.14 426.86 130 336 145 336"/>
      <polygon points="90.5 83 112.99 141 112 83 127 83 127 174 109 174 89 117 89 174 74 174 74 83 90.5 83"/>
      <path d="M377,83l20.99,58-.85-56.36c1.04-3.19,11.81-1.03,14.86-1.64v91h-18l-20-57v57h-15v-91h18Z"/>
      <polygon points="381 210 401.99 267 401 210 416 210 416 301 399.5 301 378 243 378 301 363 301 363 210 381 210"/>
      <path d="M332,427h-18l-10.1-34.9-7.9-.1v35h-16v-91h34.5c1.86,0,7.95,3.85,9.49,5.51,9.3,9.99,9.04,41.69-4.87,49.09l12.87,36.4Z"/>
      <path d="M108.5,210c14.23,2.22,19.54,18.24,20.49,30.51,1.26,16.39,2.57,51.09-16.01,57.96-2.81,1.04-11.69,2.53-14.47,2.53h-24.5v-91c10.54,1.17,24.39-1.58,34.5,0Z"/>
      <path d="M345,427v-91h33.5c1.83,0,10.25,4.44,11.99,6.01,11.51,10.33,10.84,46.78,8.06,61.05-1.57,8.05-5.24,17.17-13.17,20.83-2.22,1.03-10.77,3.11-12.89,3.11h-27.5Z"/>
      <path d="M310.76,82.26c13.04-1.92,25.09,1.4,30.01,14.47,4.91,13.06,4.78,51.42,0,64.55-7.26,19.95-39.93,19.99-47.55,0-4.56-11.98-4.77-47.62-1.52-60.07,2.68-10.25,8.06-17.33,19.06-18.94Z"/>
      <path d="M348,296c-14.89,7.26-42.14,11.33-50.5-7-6.5-14.26-7.02-58.73,2.5-71.49,9.63-12.91,40.58-13.47,46.47,2.53,2.08,5.65.76,10.53,2.53,15.96l-16.01,2.02c2.12-17.75-17.85-23.16-22.56-5.06-2.26,8.67-2.88,43.29,1.69,50.42,4.23,6.6,14.56,5.09,20.87,2.63v-22h-10.01s0-13,0-13h25v45Z"/>
      <polygon points="70 427 85.57 334.98 110 334.99 125 427 109 427 106.43 409.96 88.01 410.01 86 427 70 427"/>
      <polygon points="268 427 252 427 249.07 410.43 231.58 409.94 229 427 213 427 228.01 335.01 252.07 335.43 268 427"/>
      <path d="M248.95,235.95l-14.94,2.05c3.37-23.61-24.96-19.8-18.34,1.84,2.16,7.06,12.88,6.94,18.87,9.12,15.27,5.57,16.88,17.63,15.5,32.58-1.12,12.18-8.52,19.25-20.55,20.45-21.29,2.13-33.82-4.72-31.35-27.85l14.86-2.15c-1.15,10.57,2.43,18.2,14.27,15.77,7.99-1.64,9.22-12.37,6.23-18.77-3.22-6.9-15.68-7.57-22.18-10.82-18.5-9.22-17.57-47.15,7.29-50.07,21.46-2.52,32.45,5.45,30.34,27.84Z"/>
      <path d="M457.66,339.34c4.79,4.81,5.91,16.06,5.23,22.55l-14.89,2.11c3.39-20.06-20.82-22.38-19.01-1.51,1.27,14.65,22.49,8.3,30.84,20.18,5.85,8.32,6.08,28.56.16,36.83-7.12,9.94-27.21,10.92-37.52,6.53-11.51-4.91-9.44-15.86-11.48-26.01l15.99-2.01c-.99,10.89,2.28,18.21,14.46,15.95,8.02-1.49,8.81-13.53,5.76-19.66-3.9-7.85-22.96-5.75-30.06-16.95s-6.03-35.87,8.29-41.39c8.15-3.14,25.68-3.17,32.21,3.39Z"/>
      <polygon points="139 174 155.14 83.14 178.9 83.11 195 174 178 174 176.05 158.64 157.93 158.43 155 174 139 174"/>
      <polygon points="424 174 440.14 83.14 463.95 83.05 480 174 463 174 461.05 158.64 441.99 157.99 440 174 424 174"/>
      <polygon points="186 210 186 224 158 224 158 245.5 159.5 247 181 247 181 261 158 261 158 286 187 286 187 301 143 301 143 210 186 210"/>
      <path d="M229,98v76h-15v-76h-15.5c-2.42-1.66-2.01-13.56-.56-14.56l46.42-.3,1.2.8c.92,1.31,1.21,12.57-1.06,14.06h-15.5Z"/>
      <polygon points="507 83 507 160 532 160 532 174 492 174 492 83 507 83"/>
      <rect x="263" y="210" width="16" height="91"/>
      <polygon points="274 83 274 174 258 174 258 84.5 259.5 83 274 83"/>
      <path class="cls-1" d="M296,378v-28c11.64-.56,17.55-.7,18.04,12.46.53,14.09-4.51,16.66-18.04,15.54Z"/>
      <path class="cls-1" d="M90,286v-62c16.01-1.18,21.8.85,23.04,17.46.65,8.6,1,32.29-2.83,39.25s-13.4,5.03-20.21,5.29Z"/>
      <path class="cls-1" d="M361,413v-63c7.27.16,15.54-1.76,19.85,5.65,4.58,7.88,4.56,41.87.35,50.05-3.84,7.48-12.89,7.41-20.2,7.3Z"/>
      <path class="cls-1" d="M323.69,98.31c.93.86,2.18,3.59,2.62,4.88,2.62,7.78,2.84,43.17.18,50.8-2.49,7.15-10.94,11.5-16.54,5.28-4.74-5.27-5.21-27.35-5-34.82.15-5.5.99-17.42,2.83-22.17,2.61-6.73,10.78-8.71,15.91-3.97Z"/>
      <polygon class="cls-1" points="105 397 90 397 97.5 350.99 105 397"/>
      <polygon class="cls-1" points="248 397 233 397 240.5 350.99 248 397"/>
      <path class="cls-1" d="M174,145h-14l6.01-45c1.98.41,1.7,2.05,1.98,3.51,2.61,13.67,3.62,27.78,6.01,41.49Z"/>
      <polygon class="cls-1" points="459 145 445 145 451.5 98.99 459 145"/>
    </g>
  </g>
</svg>