<svg width="102" height="44" viewBox="0 0 102 44" fill="none" xmlns="http://www.w3.org/2000/svg">
<path d="M0 40.6528H2.78772V41.2269H0.811638V41.9783H2.54364V42.5457H0.811638V43.9156H0V40.6528Z" fill="#5F6270"/>
<path d="M17.0735 41.2271H15.0046V41.9209H16.9037V42.4883H15.0046V43.3284H17.169V43.9158H14.2062V40.6486H17.0735V41.2271Z" fill="#5F6270"/>
<path d="M29.2588 42.9072C29.2841 43.0565 29.3337 43.1681 29.4077 43.2419C29.5431 43.3764 29.775 43.4436 30.1037 43.4436C30.3005 43.4436 30.4603 43.4259 30.583 43.3905C30.816 43.3225 30.9324 43.1962 30.9324 43.0114C30.9324 42.9036 30.8754 42.82 30.7613 42.7609C30.6471 42.7033 30.4662 42.6523 30.2185 42.608L29.7952 42.5304C29.3792 42.4536 29.0934 42.3701 28.9378 42.2799C28.6743 42.1292 28.5426 41.8935 28.5426 41.5729C28.5426 41.2803 28.6715 41.0372 28.9292 40.8436C29.187 40.65 29.5656 40.5532 30.065 40.5532C30.4821 40.5532 30.8378 40.6445 31.1324 40.827C31.4268 41.0095 31.5812 41.2744 31.5955 41.6216H30.8104C30.7959 41.4251 30.6907 41.2855 30.495 41.2027C30.3645 41.148 30.2022 41.1207 30.0083 41.1207C29.7925 41.1207 29.6203 41.1561 29.4915 41.2271C29.3628 41.298 29.2985 41.397 29.2985 41.5241C29.2985 41.6408 29.362 41.728 29.4889 41.7856C29.5704 41.8241 29.7435 41.8691 30.0083 41.9209L30.6944 42.0561C30.9952 42.1152 31.2205 42.1943 31.3706 42.2932C31.6037 42.4469 31.7202 42.6693 31.7202 42.9604C31.7202 43.2589 31.5821 43.5068 31.3059 43.7041C31.0298 43.9014 30.6397 44 30.1358 44C29.621 44 29.2161 43.9029 28.9213 43.7085C28.6263 43.5142 28.4789 43.2471 28.4789 42.9072H29.2588Z" fill="#5F6270"/>
<path d="M45.9984 40.6486V41.2271H44.8286V43.9158H44.0064V41.2271H42.8313V40.6486H45.9984Z" fill="#5F6270"/>
<path d="M58.0853 43.9158H57.2737V40.6486H58.0853V43.9158Z" fill="#5F6270"/>
<path d="M72.0013 40.6486H72.8501L71.5172 43.9158H70.7454L69.4231 40.6486H70.2958L71.1446 43.1289L72.0013 40.6486Z" fill="#5F6270"/>
<path d="M84.9188 40.6486H85.8431L87.2264 43.9158H86.3405L86.0824 43.2442H84.6427L84.3777 43.9158H83.5232L84.9188 40.6486ZM84.8649 42.6812H85.8662L85.3723 41.3955L84.8649 42.6812Z" fill="#5F6270"/>
<path d="M98.5879 40.6486H99.4048V43.3284H101.357V43.9158H98.5879V40.6486Z" fill="#5F6270"/>
<path d="M99.321 28.0565C98.4846 27.5049 97.2868 27.0812 95.6597 26.7613L92.1325 26.0662C90.498 25.7469 89.8449 25.5338 89.5781 25.4081C88.986 25.1392 88.9101 24.8081 88.9101 24.5496C88.9101 24.2649 88.9845 23.8455 89.6281 23.4908C90.2087 23.1708 91.0179 23.0086 92.0331 23.0086C92.956 23.0086 93.7302 23.1368 94.3328 23.3891C95.1597 23.7387 95.5727 24.2794 95.6326 25.0906L95.669 25.5832H100.738L100.715 25.0287C100.634 23.0639 99.749 21.5444 98.0841 20.5124C96.4937 19.5271 94.5561 19.0275 92.325 19.0275C89.6552 19.0275 87.5861 19.5647 86.1751 20.6244C86.0208 20.7403 85.8763 20.8604 85.738 20.9832V19.5173H68.4115V21.6251C68.3099 21.506 68.2031 21.3901 68.0908 21.2778C67.5239 20.7083 66.8258 20.2719 66.0156 19.9808L66.0155 19.9807C65.214 19.6929 64.1225 19.5413 62.67 19.5173H52.534V25.8559C52.0928 23.8554 51.0978 22.255 49.5597 21.0802C47.9517 19.7029 45.6264 19.0046 42.6479 19.0046C39.6693 19.0046 37.3442 19.7028 35.7365 21.0797C34.6732 21.8882 33.8688 22.8987 33.3258 24.1022C33.0925 22.7352 32.4617 21.666 31.4381 20.9167C30.1698 19.9881 28.4658 19.5173 26.3735 19.5173H17.2209V29.679C16.8809 29.04 16.3761 28.4975 15.7075 28.0565C14.871 27.5049 13.6733 27.0812 12.0462 26.7613L8.51896 26.0662C6.88447 25.7469 6.23135 25.5338 5.96459 25.4081C5.37245 25.1392 5.29651 24.8081 5.29651 24.5496C5.29651 24.2649 5.37091 23.8455 6.0145 23.4908C6.59517 23.1708 7.40436 23.0086 8.41955 23.0086C9.3424 23.0086 10.1167 23.1368 10.7193 23.3891C11.5462 23.7387 11.9592 24.2794 12.019 25.0906L12.0554 25.5832H17.1247L17.1018 25.0287C17.0207 23.0639 16.1354 21.5444 14.4705 20.5124C12.8802 19.5271 10.9426 19.0275 8.71142 19.0275C6.04166 19.0275 3.97255 19.5647 2.56157 20.6244C1.10192 21.7206 0.361791 23.1256 0.361791 24.8003C0.361791 26.6471 1.13502 28.0258 2.6576 28.8967C3.51732 29.3949 5.01325 29.8361 7.23127 30.2456L9.40881 30.6447C10.6266 30.8626 11.5173 31.1111 12.0511 31.3807C12.5773 31.6533 12.6447 31.9585 12.6447 32.194C12.6447 32.6333 12.4979 33.2603 11.2301 33.6301C10.6487 33.798 9.86814 33.8832 8.91013 33.8832C7.37106 33.8832 6.291 33.5855 5.70091 32.9993C5.40217 32.7012 5.19485 32.2197 5.08448 31.5684L5.00956 31.1262H0.034668V31.6585C0.034668 33.5892 0.879941 35.125 2.54702 36.2233C4.14205 37.2744 6.33835 37.8073 9.07482 37.8073C11.7634 37.8073 13.8886 37.2629 15.3914 36.1893C16.22 35.5974 16.8294 34.915 17.2209 34.1498V37.3744H22.4419V31.3364H26.101C28.3823 31.3364 30.1777 30.891 31.4376 30.0124C31.8558 29.7207 32.2084 29.3644 32.4956 28.9458C32.6105 31.8653 33.6976 34.1572 35.7327 35.7631C37.3403 37.1422 39.6669 37.8415 42.6479 37.8415C45.6291 37.8415 47.9556 37.1421 49.5635 35.7627C51.0995 34.5452 52.0932 32.9336 52.534 30.9534V37.3744H57.6868V30.7896H61.2629C62.6243 30.7896 63.1365 31.0486 63.3206 31.2029C63.5268 31.3759 63.7764 31.8183 63.7946 32.9439L63.8162 34.1855V37.3793H69.0685V32.775C69.0685 31.4763 68.8505 30.5191 68.399 29.8485C68.1405 29.4651 67.7827 29.132 67.3298 28.8521C67.9698 28.5007 68.4703 28.0391 68.8248 27.472C69.3583 26.6181 69.6289 25.7307 69.6289 24.8345C69.6289 24.3817 69.5745 23.9541 69.468 23.5554H74.4506V37.3744H79.7261V23.5554H84.1247C84.026 23.952 83.9753 24.3669 83.9753 24.8003C83.9753 26.6471 84.7486 28.0258 86.2711 28.8967C87.1309 29.3949 88.6268 29.8361 90.8448 30.2456L93.0224 30.6447C94.2402 30.8626 95.1308 31.1111 95.6647 31.3807C96.1908 31.6533 96.2582 31.9585 96.2582 32.194C96.2582 32.6333 96.1115 33.2603 94.8437 33.6301C94.2623 33.798 93.4817 33.8832 92.5237 33.8832C90.9846 33.8832 89.9045 33.5855 89.3145 32.9993C89.0157 32.7012 88.8084 32.2197 88.698 31.5684L88.6231 31.1262H83.6482V31.6585C83.6482 33.5892 84.4935 35.125 86.1606 36.2233C87.7556 37.2744 89.9519 37.8073 92.6884 37.8073C95.377 37.8073 97.5022 37.2629 99.005 36.1893C100.565 35.0746 101.357 33.6422 101.357 31.932C101.357 30.2513 100.672 28.9474 99.321 28.0565ZM27.6217 26.8801C27.1855 27.2106 26.5392 27.3781 25.701 27.3781H22.4419V23.4984H25.701C26.5461 23.4984 27.1977 23.6546 27.6376 23.9625C28.0218 24.2315 28.2087 24.6993 28.2087 25.3927C28.2087 26.0946 28.0167 26.5811 27.6217 26.8801ZM45.7513 31.8373C44.9866 32.6398 43.9705 33.0299 42.6451 33.0299C41.3183 33.0299 40.2958 32.639 39.519 31.835C38.7505 31.0396 38.3608 29.8723 38.3608 28.3655C38.3608 26.8588 38.7505 25.6915 39.5191 24.896C40.2958 24.092 41.3184 23.7012 42.6451 23.7012C43.9702 23.7012 44.986 24.0927 45.7507 24.8981C46.5093 25.6973 46.8939 26.864 46.8939 28.3655C46.8939 29.8734 46.5095 31.0415 45.7513 31.8373ZM63.5057 26.7099C63.1209 26.866 62.507 26.9452 61.6809 26.9452H57.6868V23.4984H61.7974C62.7739 23.4984 63.2752 23.6339 63.5246 23.748C63.8863 23.9125 64.367 24.2537 64.367 25.3129C64.367 26.0397 64.1019 26.4703 63.5057 26.7099Z" fill="#5F6270"/>
<path d="M39.9472 7.35488L46.9294 17.5244H51.7208V11.988C52.1989 13.6091 53.0987 14.9478 54.4142 15.986C55.948 17.3016 58.1662 17.9686 61.0077 17.9686C63.8491 17.9686 66.0675 17.3014 67.6017 15.9857C68.9216 14.9391 69.8214 13.5876 70.2945 11.9494V17.5244H92.8908C95.9471 17.5244 98.2481 16.4461 99.7307 14.3182C100.81 12.7599 101.357 10.8414 101.357 8.61591C101.357 7.73571 101.229 6.8001 100.976 5.83517C100.715 4.83765 100.22 3.89996 99.5049 3.04643C98.6084 1.98611 97.4247 1.24809 95.9869 0.852956C95.1609 0.625629 94.1214 0.502739 92.8908 0.487663H84.1257V13.5882H75.3376V0.487664H70.2945V5.97959C69.8209 4.32919 68.9199 2.98979 67.5979 1.97982C66.0637 0.666126 63.8465 0 61.0077 0C58.1688 0 55.9518 0.666022 54.4179 1.97945C53.1005 2.98148 52.1994 4.30809 51.7208 5.94112V0.487664H46.9501V10.4504L40.1631 0.487664H35.1764V17.5244H39.9472V7.35488ZM89.0521 4.32628H92.2157C93.8457 4.32628 94.9275 4.69033 95.4309 5.40812C95.9741 6.18305 96.2494 7.33887 96.2494 8.8435C96.2494 9.93428 96.0617 10.8807 95.6918 11.6556C95.037 13.0217 93.8999 13.6858 92.2157 13.6858H89.0521V4.32628ZM57.7733 5.53026C58.5415 4.73502 59.5535 4.34842 60.8672 4.34842C62.179 4.34842 63.1843 4.73563 63.9405 5.5321C64.6911 6.32282 65.0717 7.47817 65.0717 8.96598C65.0717 10.4601 64.6913 11.6169 63.9412 12.4042C63.1849 13.1977 62.1793 13.5836 60.8672 13.5836C59.5536 13.5836 58.5415 13.197 57.7732 12.4017C57.013 11.6149 56.6275 10.459 56.6275 8.96598C56.6275 7.47298 57.013 6.31707 57.7733 5.53026Z" fill="#5F6270"/>
<path d="M32.694 9.39351C33.2881 9.05987 33.7543 8.62513 34.0866 8.09333C34.5967 7.27697 34.8554 6.42823 34.8554 5.57075C34.8554 4.86386 34.7184 4.2203 34.4482 3.65788C34.1871 3.11475 33.8291 2.61362 33.3848 2.16921C32.8429 1.62483 32.1756 1.20782 31.4015 0.929699C30.6364 0.654911 29.5956 0.510239 28.2109 0.487366H18.5444V12.3693L20.7274 17.5241H23.4968V11.2609H26.8725C28.1595 11.2609 28.641 11.5035 28.8134 11.6481C29.0784 11.8705 29.2338 12.4305 29.2533 13.2276V17.5252H34.3244V13.0246C34.3133 11.8344 34.1019 10.9501 33.6812 10.3253C33.4404 9.96809 33.1103 9.65676 32.694 9.39351ZM28.9962 7.33041C28.7467 7.43162 28.2449 7.55233 27.2701 7.55233H23.4968V4.32598H27.3809C28.3052 4.32598 28.7783 4.4536 29.0133 4.56106C29.3508 4.71462 29.7993 5.03349 29.7993 6.02587C29.7993 6.70494 29.5521 7.10703 28.9962 7.33041Z" fill="#5F6270"/>
<path d="M12.4842 0.487366H7.3114L0.0339355 17.5241H5.36578L6.66146 14.2408H12.986L14.2472 17.5241H19.699L12.4842 0.487366ZM8.16795 10.4239L9.86659 6.12011L11.5198 10.4239H8.16795Z" fill="#5F6270"/>
</svg>
