<svg width="200" height="62" viewBox="0 0 200 62" fill="none" xmlns="http://www.w3.org/2000/svg">
<path d="M19.1526 2.48722L18.1915 3.98554C12.8265 1.24111 5.33185 3.54305 3.52018 9.69976C0.115826 21.2679 15.8012 36.6629 26.833 32.067C32.297 29.7906 33.359 24.2255 32.5904 18.1688C37.2977 29.3148 30.5102 39.2838 18.4865 36.0014C10.3179 33.7721 1.67511 24.6737 0.219002 16.0137C-1.7271 4.43858 9.68233 -2.55586 19.1526 2.48722Z" fill="white"/>
<path d="M27.5045 0.0230755C30.3496 -0.229014 40.3227 1.56636 37.7006 6.29662C35.3738 10.5823 30.4243 2.55835 25.64 6.26587C21.9323 9.13942 20.9447 20.8452 18.1535 25.3542C16.5138 28.0035 13.8677 29.0369 11.351 26.4413C12.2068 26.0444 13.7045 23.6536 14.3335 21.9504C17.5592 14.0663 17.3771 0.920384 27.5045 0.0230755Z" fill="white"/>
<path d="M26.0516 14.5312C31.2186 13.8088 31.4778 20.8652 26.5775 20.7918C22.3596 20.7284 22.0765 15.0873 26.0516 14.5312Z" fill="white"/>
<path d="M151.34 33.9591C149.673 33.9591 148.148 33.6632 146.763 33.0714C145.407 32.4514 144.221 31.6201 143.204 30.5773C142.215 29.5064 141.439 28.2805 140.874 26.8996C140.337 25.5187 140.068 24.0532 140.068 22.5032C140.068 20.4178 140.549 18.5155 141.509 16.7964C142.47 15.0773 143.797 13.6964 145.492 12.6537C147.215 11.611 149.179 11.0896 151.382 11.0896C153.614 11.0896 155.549 11.6251 157.187 12.696C158.854 13.7387 160.139 15.1196 161.043 16.8387C161.975 18.5296 162.441 20.3614 162.441 22.3341C162.441 22.616 162.427 22.8978 162.399 23.1796C162.399 23.4332 162.385 23.6305 162.357 23.7714H144.009C144.122 25.2087 144.518 26.491 145.196 27.6182C145.902 28.7173 146.806 29.591 147.907 30.2391C149.009 30.8591 150.196 31.1691 151.467 31.1691C152.823 31.1691 154.094 30.831 155.28 30.1546C156.495 29.4782 157.328 28.5905 157.78 27.4914L161.001 28.3791C160.52 29.4501 159.8 30.4082 158.84 31.2537C157.907 32.0991 156.792 32.7614 155.492 33.2405C154.221 33.7196 152.837 33.9591 151.34 33.9591ZM143.882 21.1928H158.967C158.854 19.7555 158.444 18.4873 157.738 17.3882C157.032 16.2891 156.128 15.4296 155.026 14.8096C153.924 14.1896 152.71 13.8796 151.382 13.8796C150.083 13.8796 148.882 14.1896 147.78 14.8096C146.679 15.4296 145.775 16.2891 145.068 17.3882C144.391 18.4873 143.995 19.7555 143.882 21.1928Z" fill="white"/>
<path d="M129.512 2.67733H133.241V27.8296C133.241 29.0414 133.41 29.7882 133.749 30.0701C134.088 30.3519 134.498 30.4928 134.978 30.4928C135.571 30.4928 136.136 30.4364 136.673 30.3237C137.21 30.1828 137.662 30.0419 138.029 29.901L138.622 32.9446C138.001 33.1982 137.266 33.4096 136.419 33.5787C135.571 33.7478 134.823 33.8323 134.173 33.8323C132.732 33.8323 131.588 33.4237 130.741 32.6064C129.922 31.7891 129.512 30.6478 129.512 29.1823V2.67733Z" fill="white"/>
<path d="M117.388 2.67733H121.117V27.8296C121.117 29.0414 121.286 29.7882 121.625 30.0701C121.964 30.3519 122.374 30.4928 122.854 30.4928C123.447 30.4928 124.012 30.4364 124.549 30.3237C125.086 30.1828 125.537 30.0419 125.905 29.901L126.498 32.9446C125.876 33.1982 125.142 33.4096 124.295 33.5787C123.447 33.7478 122.699 33.8323 122.049 33.8323C120.608 33.8323 119.464 33.4237 118.617 32.6064C117.797 31.7891 117.388 30.6478 117.388 29.1823V2.67733Z" fill="white"/>
<path d="M102.056 33.9591C100.39 33.9591 98.8644 33.6632 97.4802 33.0714C96.1243 32.4514 94.9378 31.6201 93.9209 30.5773C92.9322 29.5064 92.1553 28.2805 91.5904 26.8996C91.0536 25.5187 90.7853 24.0532 90.7853 22.5032C90.7853 20.4178 91.2655 18.5155 92.226 16.7964C93.1864 15.0773 94.5141 13.6964 96.209 12.6537C97.9322 11.611 99.8954 11.0896 102.099 11.0896C104.33 11.0896 106.265 11.6251 107.904 12.696C109.571 13.7387 110.856 15.1196 111.76 16.8387C112.692 18.5296 113.158 20.3614 113.158 22.3341C113.158 22.616 113.144 22.8978 113.116 23.1796C113.116 23.4332 113.102 23.6305 113.073 23.7714H94.7259C94.8389 25.2087 95.2344 26.491 95.9124 27.6182C96.6186 28.7173 97.5226 29.591 98.6242 30.2391C99.7259 30.8591 100.912 31.1691 102.184 31.1691C103.539 31.1691 104.811 30.831 105.997 30.1546C107.212 29.4782 108.045 28.5905 108.497 27.4914L111.717 28.3791C111.237 29.4501 110.517 30.4082 109.556 31.2537C108.624 32.0991 107.508 32.7614 106.209 33.2405C104.938 33.7196 103.554 33.9591 102.056 33.9591ZM94.5988 21.1928H109.684C109.571 19.7555 109.161 18.4873 108.455 17.3882C107.749 16.2891 106.845 15.4296 105.743 14.8096C104.641 14.1896 103.426 13.8796 102.099 13.8796C100.799 13.8796 99.5988 14.1896 98.4971 14.8096C97.3954 15.4296 96.4915 16.2891 95.7853 17.3882C95.1073 18.4873 94.7118 19.7555 94.5988 21.1928Z" fill="white"/>
<path d="M89.102 32.4373C88.7912 32.5782 88.3675 32.7614 87.8308 32.9869C87.294 33.2123 86.6726 33.4096 85.9664 33.5787C85.2602 33.7478 84.5116 33.8323 83.7206 33.8323C82.8167 33.8323 81.9833 33.6773 81.2206 33.3673C80.4579 33.0291 79.8506 32.5219 79.3986 31.8455C78.9466 31.141 78.7206 30.2673 78.7206 29.2246V14.3869H75.7121V11.4701H78.7206V4.1146H82.4494V11.4701H87.407V14.3869H82.4494V28.0832C82.5059 28.8723 82.7743 29.4641 83.2545 29.8587C83.7347 30.2251 84.2997 30.4082 84.9494 30.4082C85.6839 30.4082 86.3618 30.2814 86.9833 30.0278C87.6048 29.7741 88.0144 29.591 88.2121 29.4782L89.102 32.4373Z" fill="white"/>
<path d="M67.8957 33.5364V11.4701H71.6245V33.5364H67.8957ZM67.8957 7.32733V2.67733H71.6245V7.32733H67.8957Z" fill="white"/>
<path d="M43.7852 33.5364V3.52278H63.6581V6.9046H47.5988V16.9232H61.1157V20.0937H47.5988V33.5364H43.7852Z" fill="white"/>
<path d="M1.3717 62H0V47.38H1.3717V49.2026C1.71136 48.5853 2.17512 48.085 2.76299 47.7016C3.35086 47.3183 4.04977 47.1266 4.85973 47.1266C5.57171 47.1266 6.23796 47.2598 6.85849 47.5262C7.48555 47.7926 8.03423 48.163 8.50453 48.6373C8.97482 49.1051 9.34388 49.6477 9.61168 50.265C9.87949 50.8823 10.0134 51.5451 10.0134 52.2533C10.0134 52.9616 9.87949 53.6276 9.61168 54.2514C9.34388 54.8752 8.97482 55.4242 8.50453 55.8986C8.03423 56.3664 7.48555 56.7335 6.85849 57C6.23796 57.2664 5.57171 57.3996 4.85973 57.3996C4.04977 57.3996 3.35086 57.2079 2.76299 56.8245C2.17512 56.4411 1.71136 55.9408 1.3717 55.3235V62ZM4.84993 48.4521C4.16408 48.4521 3.56641 48.6243 3.05693 48.9687C2.55397 49.3066 2.16532 49.7614 1.89098 50.3332C1.61664 50.905 1.47947 51.5451 1.47947 52.2533C1.47947 52.9486 1.61338 53.5854 1.88119 54.1637C2.15552 54.742 2.54417 55.2033 3.04713 55.5477C3.55662 55.8921 4.15755 56.0643 4.84993 56.0643C5.52925 56.0643 6.15304 55.8953 6.72132 55.5574C7.29613 55.2196 7.75662 54.7647 8.10281 54.1929C8.449 53.6146 8.6221 52.9681 8.6221 52.2533C8.6221 51.5581 8.45227 50.9245 8.11261 50.3527C7.77295 49.7744 7.31899 49.3131 6.75071 48.9687C6.18244 48.6243 5.54884 48.4521 4.84993 48.4521Z" fill="white"/>
<path d="M12.0651 57.1267V47.38H13.4368V48.725C13.783 48.2312 14.2337 47.8381 14.7889 47.5457C15.3441 47.2533 15.9483 47.1071 16.6015 47.1071C16.9804 47.1071 17.3462 47.1558 17.6989 47.2533L17.1404 48.6081C16.8661 48.5236 16.5983 48.4814 16.337 48.4814C15.8079 48.4814 15.3213 48.6113 14.8771 48.8712C14.4395 49.1311 14.09 49.4788 13.8287 49.9141C13.5675 50.3495 13.4368 50.8336 13.4368 51.3664V57.1267H12.0651Z" fill="white"/>
<path d="M23.1214 57.3801C22.22 57.3801 21.397 57.1494 20.6523 56.6881C19.9142 56.2267 19.3231 55.6094 18.8789 54.8362C18.4413 54.0565 18.2225 53.1955 18.2225 52.2533C18.2225 51.5386 18.3498 50.8725 18.6046 50.2553C18.8593 49.6315 19.2088 49.0857 19.6529 48.6178C20.1036 48.1435 20.6262 47.7731 21.2206 47.5067C21.815 47.2403 22.4486 47.1071 23.1214 47.1071C23.8464 47.1071 24.5127 47.25 25.1201 47.5359C25.7341 47.8218 26.26 48.2214 26.6976 48.7348C27.1418 49.2481 27.4749 49.8491 27.697 50.5379C27.9256 51.2267 28.0203 51.9707 27.9811 52.7699H19.6725C19.7509 53.3872 19.9469 53.9395 20.2604 54.4268C20.5805 54.9142 20.9854 55.3008 21.4753 55.5867C21.9718 55.8661 22.5204 56.009 23.1214 56.0155C23.7746 56.0155 24.3624 55.8466 24.885 55.5087C25.4141 55.1708 25.8386 54.7062 26.1587 54.1149L27.55 54.4366C27.1581 55.3008 26.5669 56.009 25.7766 56.5614C24.9862 57.1072 24.1012 57.3801 23.1214 57.3801ZM19.6333 51.6685H26.5996C26.5539 51.0642 26.3677 50.5119 26.0411 50.0116C25.7211 49.5048 25.3063 49.1019 24.7968 48.803C24.2873 48.4976 23.7288 48.3449 23.1214 48.3449C22.5139 48.3449 21.9587 48.4944 21.4557 48.7933C20.9528 49.0857 20.5413 49.4853 20.2212 49.9921C19.9011 50.4924 19.7052 51.0512 19.6333 51.6685Z" fill="white"/>
<path d="M30.0526 57.1267V47.38H31.4243V48.725C31.777 48.2312 32.2277 47.8381 32.7764 47.5457C33.3251 47.2533 33.926 47.1071 34.5792 47.1071C35.3173 47.1071 35.9933 47.289 36.6073 47.6529C37.2213 48.0103 37.7014 48.4879 38.0476 49.0857C38.3938 48.4879 38.8706 48.0103 39.4781 47.6529C40.0856 47.289 40.7584 47.1071 41.4965 47.1071C42.2346 47.1071 42.9073 47.2858 43.5148 47.6431C44.1223 48.0005 44.6056 48.4814 44.9649 49.0857C45.3241 49.6899 45.5038 50.3592 45.5038 51.0935V57.1267H44.1321V51.3956C44.1321 50.8758 44.0047 50.395 43.75 49.9531C43.4952 49.5113 43.1523 49.1571 42.7212 48.8907C42.2966 48.6178 41.8231 48.4814 41.3005 48.4814C40.7779 48.4814 40.3011 48.6081 39.87 48.8615C39.4454 49.1084 39.1058 49.4528 38.851 49.8946C38.5963 50.33 38.4689 50.8303 38.4689 51.3956V57.1267H37.0972V51.3956C37.0972 50.8303 36.9699 50.33 36.7151 49.8946C36.4604 49.4528 36.1174 49.1084 35.6863 48.8615C35.2552 48.6081 34.7784 48.4814 34.2559 48.4814C33.7398 48.4814 33.2663 48.6178 32.8352 48.8907C32.4041 49.1571 32.0611 49.5113 31.8064 49.9531C31.5517 50.395 31.4243 50.8758 31.4243 51.3956V57.1267H30.0526Z" fill="white"/>
<path d="M47.8586 47.38H49.2303V57.1267H47.8586V47.38ZM48.5543 45.6743C48.3322 45.6743 48.1428 45.6028 47.986 45.4599C47.8358 45.3104 47.7606 45.1253 47.7606 44.9043C47.7606 44.6834 47.8358 44.5015 47.986 44.3585C48.1428 44.2091 48.3322 44.1343 48.5543 44.1343C48.7698 44.1343 48.9527 44.2091 49.103 44.3585C49.2597 44.5015 49.3381 44.6834 49.3381 44.9043C49.3381 45.1253 49.263 45.3104 49.1127 45.4599C48.9625 45.6028 48.7764 45.6743 48.5543 45.6743Z" fill="white"/>
<path d="M51.5902 53.3937V47.38H52.9619V53.1208C52.9619 53.6536 53.0926 54.1377 53.3538 54.573C53.6151 55.0084 53.9646 55.356 54.4022 55.6159C54.8464 55.8758 55.333 56.0058 55.8621 56.0058C56.3977 56.0058 56.8811 55.8758 57.3122 55.6159C57.7498 55.356 58.0993 55.0084 58.3605 54.573C58.6218 54.1377 58.7525 53.6536 58.7525 53.1208V47.38H60.1241L60.1339 57.1267H58.7622L58.7525 55.7621C58.4063 56.256 57.9556 56.6491 57.4003 56.9415C56.8517 57.2339 56.2507 57.3801 55.5975 57.3801C54.8594 57.3801 54.1867 57.2014 53.5792 56.844C52.9717 56.4866 52.4884 56.0058 52.1291 55.4015C51.7699 54.7972 51.5902 54.1279 51.5902 53.3937Z" fill="white"/>
<path d="M62.4781 57.1267V47.38H63.8498V48.725C64.2025 48.2312 64.6532 47.8381 65.2019 47.5457C65.7505 47.2533 66.3515 47.1071 67.0047 47.1071C67.7428 47.1071 68.4188 47.289 69.0328 47.6529C69.6468 48.0103 70.1269 48.4879 70.4731 49.0857C70.8193 48.4879 71.2961 48.0103 71.9036 47.6529C72.5111 47.289 73.1839 47.1071 73.922 47.1071C74.6601 47.1071 75.3328 47.2858 75.9403 47.6431C76.5478 48.0005 77.0311 48.4814 77.3904 49.0857C77.7496 49.6899 77.9293 50.3592 77.9293 51.0935V57.1267H76.5576V51.3956C76.5576 50.8758 76.4302 50.395 76.1755 49.9531C75.9207 49.5113 75.5778 49.1571 75.1467 48.8907C74.7221 48.6178 74.2485 48.4814 73.726 48.4814C73.2034 48.4814 72.7266 48.6081 72.2955 48.8615C71.8709 49.1084 71.5313 49.4528 71.2765 49.8946C71.0218 50.33 70.8944 50.8303 70.8944 51.3956V57.1267H69.5227V51.3956C69.5227 50.8303 69.3954 50.33 69.1406 49.8946C68.8859 49.4528 68.5429 49.1084 68.1118 48.8615C67.6807 48.6081 67.2039 48.4814 66.6813 48.4814C66.1653 48.4814 65.6918 48.6178 65.2607 48.8907C64.8296 49.1571 64.4866 49.5113 64.2319 49.9531C63.9771 50.395 63.8498 50.8758 63.8498 51.3956V57.1267H62.4781Z" fill="white"/>
<path d="M87.4117 44.8361V47.38H90.3511V48.7445H87.4117V57.1267H86.04V48.7445H84.6977V47.38H86.04V44.8361C86.04 44.3618 86.1544 43.9329 86.383 43.5495C86.6181 43.1597 86.9317 42.851 87.3236 42.6236C87.7155 42.3897 88.1498 42.2727 88.6267 42.2727C88.9729 42.2727 89.306 42.341 89.6261 42.4774C89.9527 42.6139 90.2433 42.8153 90.4981 43.0817L89.5183 44.0466C89.4138 43.9167 89.2799 43.816 89.1166 43.7445C88.9598 43.673 88.7965 43.6373 88.6267 43.6373C88.2936 43.6373 88.0061 43.7542 87.7645 43.9881C87.5293 44.2221 87.4117 44.5047 87.4117 44.8361Z" fill="white"/>
<path d="M92.2436 47.38H93.6153V57.1267H92.2436V47.38ZM92.9393 45.6743C92.7172 45.6743 92.5277 45.6028 92.371 45.4599C92.2207 45.3104 92.1456 45.1253 92.1456 44.9043C92.1456 44.6834 92.2207 44.5015 92.371 44.3585C92.5277 44.2091 92.7172 44.1343 92.9393 44.1343C93.1548 44.1343 93.3377 44.2091 93.4879 44.3585C93.6447 44.5015 93.7231 44.6834 93.7231 44.9043C93.7231 45.1253 93.648 45.3104 93.4977 45.4599C93.3475 45.6028 93.1613 45.6743 92.9393 45.6743Z" fill="white"/>
<path d="M101.374 48.7445H99.0321L99.0223 57.1267H97.6506L97.6604 48.7445H95.887V47.38H97.6604L97.6506 44.3195H99.0223L99.0321 47.38H101.374V48.7445Z" fill="white"/>
<path d="M112.058 51.0935V57.1267H110.686V51.3664C110.686 50.8336 110.556 50.3495 110.294 49.9141C110.033 49.4788 109.684 49.1311 109.246 48.8712C108.808 48.6113 108.322 48.4814 107.786 48.4814C107.257 48.4814 106.77 48.6113 106.326 48.8712C105.889 49.1311 105.539 49.4788 105.278 49.9141C105.017 50.3495 104.886 50.8336 104.886 51.3664V57.1267H103.514V47.38H104.886V48.725C105.232 48.2312 105.683 47.8381 106.238 47.5457C106.793 47.2533 107.397 47.1071 108.051 47.1071C108.789 47.1071 109.461 47.2858 110.069 47.6431C110.676 48.0005 111.16 48.4814 111.519 49.0857C111.878 49.6899 112.058 50.3592 112.058 51.0935Z" fill="white"/>
<path d="M118.532 57.3801C117.63 57.3801 116.807 57.1494 116.063 56.6881C115.325 56.2267 114.733 55.6094 114.289 54.8362C113.852 54.0565 113.633 53.1955 113.633 52.2533C113.633 51.5386 113.76 50.8725 114.015 50.2553C114.27 49.6315 114.619 49.0857 115.063 48.6178C115.514 48.1435 116.036 47.7731 116.631 47.5067C117.225 47.2403 117.859 47.1071 118.532 47.1071C119.257 47.1071 119.923 47.25 120.53 47.5359C121.144 47.8218 121.67 48.2214 122.108 48.7348C122.552 49.2481 122.885 49.8491 123.107 50.5379C123.336 51.2267 123.431 51.9707 123.391 52.7699H115.083C115.161 53.3872 115.357 53.9395 115.671 54.4268C115.991 54.9142 116.396 55.3008 116.886 55.5867C117.382 55.8661 117.931 56.009 118.532 56.0155C119.185 56.0155 119.773 55.8466 120.295 55.5087C120.824 55.1708 121.249 54.7062 121.569 54.1149L122.96 54.4366C122.568 55.3008 121.977 56.009 121.187 56.5614C120.397 57.1072 119.511 57.3801 118.532 57.3801ZM115.044 51.6685H122.01C121.964 51.0642 121.778 50.5119 121.451 50.0116C121.131 49.5048 120.717 49.1019 120.207 48.803C119.698 48.4976 119.139 48.3449 118.532 48.3449C117.924 48.3449 117.369 48.4944 116.866 48.7933C116.363 49.0857 115.952 49.4853 115.632 49.9921C115.311 50.4924 115.115 51.0512 115.044 51.6685Z" fill="white"/>
<path d="M128.51 57.3118C127.974 57.2989 127.451 57.2014 126.942 57.0194C126.432 56.8375 125.988 56.5906 125.609 56.2787C125.231 55.9668 124.959 55.6127 124.796 55.2163L125.982 54.7095C126.086 54.9629 126.279 55.1968 126.56 55.4112C126.847 55.6192 127.174 55.7881 127.54 55.9181C127.905 56.0415 128.268 56.1033 128.627 56.1033C129.026 56.1033 129.398 56.0383 129.744 55.9083C130.09 55.7784 130.371 55.5932 130.587 55.3528C130.809 55.1058 130.92 54.8167 130.92 54.4853C130.92 54.1279 130.802 53.8485 130.567 53.6471C130.332 53.4392 130.035 53.2767 129.675 53.1598C129.316 53.0363 128.947 52.9193 128.568 52.8089C127.876 52.6204 127.265 52.4125 126.736 52.1851C126.207 51.9577 125.792 51.6685 125.492 51.3176C125.198 50.9603 125.051 50.5022 125.051 49.9434C125.051 49.3521 125.217 48.842 125.551 48.4131C125.89 47.9778 126.331 47.6431 126.873 47.4092C127.422 47.1688 128.007 47.0486 128.627 47.0486C129.424 47.0486 130.149 47.2208 130.802 47.5652C131.462 47.9096 131.939 48.3677 132.233 48.9395L131.126 49.5925C131.008 49.3261 130.822 49.0954 130.567 48.9005C130.312 48.7055 130.022 48.5528 129.695 48.4424C129.375 48.3319 129.048 48.2734 128.715 48.2669C128.297 48.2604 127.909 48.3222 127.549 48.4521C127.19 48.5756 126.899 48.7608 126.677 49.0077C126.462 49.2546 126.354 49.5567 126.354 49.9141C126.354 50.2715 126.462 50.5444 126.677 50.7328C126.893 50.9148 127.184 51.0642 127.549 51.1812C127.922 51.2917 128.34 51.4216 128.803 51.5711C129.398 51.7595 129.956 51.9739 130.479 52.2143C131.001 52.4548 131.423 52.7537 131.743 53.111C132.063 53.4684 132.22 53.92 132.213 54.4658C132.213 55.0506 132.037 55.5607 131.684 55.996C131.331 56.4314 130.874 56.766 130.312 57C129.751 57.2274 129.15 57.3313 128.51 57.3118Z" fill="white"/>
<path d="M137.321 57.3118C136.786 57.2989 136.263 57.2014 135.754 57.0194C135.244 56.8375 134.8 56.5906 134.421 56.2787C134.042 55.9668 133.771 55.6127 133.608 55.2163L134.794 54.7095C134.898 54.9629 135.091 55.1968 135.372 55.4112C135.659 55.6192 135.986 55.7881 136.351 55.9181C136.717 56.0415 137.08 56.1033 137.439 56.1033C137.838 56.1033 138.21 56.0383 138.556 55.9083C138.902 55.7784 139.183 55.5932 139.399 55.3528C139.621 55.1058 139.732 54.8167 139.732 54.4853C139.732 54.1279 139.614 53.8485 139.379 53.6471C139.144 53.4392 138.847 53.2767 138.487 53.1598C138.128 53.0363 137.759 52.9193 137.38 52.8089C136.688 52.6204 136.077 52.4125 135.548 52.1851C135.019 51.9577 134.604 51.6685 134.304 51.3176C134.01 50.9603 133.863 50.5022 133.863 49.9434C133.863 49.3521 134.029 48.842 134.363 48.4131C134.702 47.9778 135.143 47.6431 135.685 47.4092C136.234 47.1688 136.819 47.0486 137.439 47.0486C138.236 47.0486 138.961 47.2208 139.614 47.5652C140.274 47.9096 140.751 48.3677 141.045 48.9395L139.938 49.5925C139.82 49.3261 139.634 49.0954 139.379 48.9005C139.124 48.7055 138.834 48.5528 138.507 48.4424C138.187 48.3319 137.86 48.2734 137.527 48.2669C137.109 48.2604 136.721 48.3222 136.361 48.4521C136.002 48.5756 135.711 48.7608 135.489 49.0077C135.274 49.2546 135.166 49.5567 135.166 49.9141C135.166 50.2715 135.274 50.5444 135.489 50.7328C135.705 50.9148 135.996 51.0642 136.361 51.1812C136.734 51.2917 137.152 51.4216 137.615 51.5711C138.21 51.7595 138.768 51.9739 139.291 52.2143C139.813 52.4548 140.235 52.7537 140.555 53.111C140.875 53.4684 141.032 53.92 141.025 54.4658C141.025 55.0506 140.849 55.5607 140.496 55.996C140.143 56.4314 139.686 56.766 139.124 57C138.563 57.2274 137.962 57.3313 137.321 57.3118Z" fill="white"/>
<path d="M151.233 57.3118C150.697 57.2989 150.175 57.2014 149.665 57.0194C149.156 56.8375 148.712 56.5906 148.333 56.2787C147.954 55.9668 147.683 55.6127 147.52 55.2163L148.705 54.7095C148.81 54.9629 149.002 55.1968 149.283 55.4112C149.571 55.6192 149.897 55.7881 150.263 55.9181C150.629 56.0415 150.991 56.1033 151.35 56.1033C151.749 56.1033 152.121 56.0383 152.467 55.9083C152.814 55.7784 153.094 55.5932 153.31 55.3528C153.532 55.1058 153.643 54.8167 153.643 54.4853C153.643 54.1279 153.526 53.8485 153.29 53.6471C153.055 53.4392 152.758 53.2767 152.399 53.1598C152.04 53.0363 151.671 52.9193 151.292 52.8089C150.599 52.6204 149.989 52.4125 149.459 52.1851C148.93 51.9577 148.516 51.6685 148.215 51.3176C147.921 50.9603 147.774 50.5022 147.774 49.9434C147.774 49.3521 147.941 48.842 148.274 48.4131C148.614 47.9778 149.055 47.6431 149.597 47.4092C150.145 47.1688 150.73 47.0486 151.35 47.0486C152.147 47.0486 152.872 47.2208 153.526 47.5652C154.185 47.9096 154.662 48.3677 154.956 48.9395L153.849 49.5925C153.731 49.3261 153.545 49.0954 153.29 48.9005C153.036 48.7055 152.745 48.5528 152.418 48.4424C152.098 48.3319 151.772 48.2734 151.439 48.2669C151.021 48.2604 150.632 48.3222 150.273 48.4521C149.913 48.5756 149.623 48.7608 149.401 49.0077C149.185 49.2546 149.077 49.5567 149.077 49.9141C149.077 50.2715 149.185 50.5444 149.401 50.7328C149.616 50.9148 149.907 51.0642 150.273 51.1812C150.645 51.2917 151.063 51.4216 151.527 51.5711C152.121 51.7595 152.68 51.9739 153.202 52.2143C153.725 52.4548 154.146 52.7537 154.466 53.111C154.786 53.4684 154.943 53.92 154.936 54.4658C154.936 55.0506 154.76 55.5607 154.407 55.996C154.055 56.4314 153.597 56.766 153.036 57C152.474 57.2274 151.873 57.3313 151.233 57.3118Z" fill="white"/>
<path d="M158.389 62H157.017V47.38H158.389V49.2026C158.729 48.5853 159.192 48.085 159.78 47.7016C160.368 47.3183 161.067 47.1266 161.877 47.1266C162.589 47.1266 163.255 47.2598 163.876 47.5262C164.503 47.7926 165.052 48.163 165.522 48.6373C165.992 49.1051 166.361 49.6477 166.629 50.265C166.897 50.8823 167.031 51.5451 167.031 52.2533C167.031 52.9616 166.897 53.6276 166.629 54.2514C166.361 54.8752 165.992 55.4242 165.522 55.8986C165.052 56.3664 164.503 56.7335 163.876 57C163.255 57.2664 162.589 57.3996 161.877 57.3996C161.067 57.3996 160.368 57.2079 159.78 56.8245C159.192 56.4411 158.729 55.9408 158.389 55.3235V62ZM161.867 48.4521C161.181 48.4521 160.584 48.6243 160.074 48.9687C159.571 49.3066 159.183 49.7614 158.908 50.3332C158.634 50.905 158.497 51.5451 158.497 52.2533C158.497 52.9486 158.631 53.5854 158.898 54.1637C159.173 54.742 159.561 55.2033 160.064 55.5477C160.574 55.8921 161.175 56.0643 161.867 56.0643C162.547 56.0643 163.17 55.8953 163.739 55.5574C164.313 55.2196 164.774 54.7647 165.12 54.1929C165.466 53.6146 165.639 52.9681 165.639 52.2533C165.639 51.5581 165.47 50.9245 165.13 50.3527C164.79 49.7744 164.336 49.3131 163.768 48.9687C163.2 48.6243 162.566 48.4521 161.867 48.4521Z" fill="white"/>
<path d="M177.041 47.38H178.412V57.1267H177.041L176.992 55.3138C176.671 55.9311 176.224 56.4314 175.649 56.8148C175.074 57.1916 174.389 57.3801 173.592 57.3801C172.873 57.3801 172.2 57.2469 171.573 56.9805C170.946 56.7076 170.394 56.3339 169.918 55.8596C169.441 55.3853 169.068 54.8362 168.801 54.2124C168.533 53.5886 168.399 52.9193 168.399 52.2046C168.399 51.5028 168.529 50.8433 168.791 50.226C169.059 49.6087 169.424 49.0662 169.888 48.5983C170.358 48.1305 170.901 47.7666 171.515 47.5067C172.135 47.2403 172.798 47.1071 173.504 47.1071C174.32 47.1071 175.032 47.302 175.639 47.6919C176.247 48.0752 176.73 48.5788 177.09 49.2026L177.041 47.38ZM173.562 56.0545C174.261 56.0545 174.862 55.8856 175.365 55.5477C175.868 55.2033 176.253 54.742 176.521 54.1637C176.796 53.5854 176.933 52.9486 176.933 52.2533C176.933 51.5386 176.796 50.8953 176.521 50.3235C176.247 49.7452 175.858 49.2871 175.355 48.9492C174.852 48.6113 174.255 48.4424 173.562 48.4424C172.87 48.4424 172.236 48.6146 171.662 48.9589C171.093 49.2968 170.639 49.7549 170.3 50.3332C169.967 50.9115 169.8 51.5516 169.8 52.2533C169.8 52.9616 169.973 53.6049 170.319 54.1832C170.665 54.755 171.123 55.2098 171.691 55.5477C172.266 55.8856 172.89 56.0545 173.562 56.0545Z" fill="white"/>
<path d="M187.569 54.6802L188.794 55.343C188.35 55.9603 187.785 56.4541 187.099 56.8245C186.42 57.1949 185.681 57.3801 184.884 57.3801C183.983 57.3801 183.16 57.1494 182.415 56.6881C181.677 56.2267 181.086 55.6094 180.642 54.8362C180.204 54.0565 179.986 53.1955 179.986 52.2533C179.986 51.5386 180.113 50.8725 180.368 50.2553C180.622 49.6315 180.972 49.0857 181.416 48.6178C181.867 48.1435 182.389 47.7731 182.984 47.5067C183.578 47.2403 184.212 47.1071 184.884 47.1071C185.681 47.1071 186.42 47.2923 187.099 47.6626C187.785 48.033 188.35 48.5301 188.794 49.1539L187.569 49.8069C187.229 49.3781 186.821 49.0499 186.344 48.8225C185.868 48.5886 185.381 48.4716 184.884 48.4716C184.225 48.4716 183.627 48.6471 183.091 48.9979C182.556 49.3423 182.131 49.8004 181.818 50.3722C181.511 50.944 181.357 51.5711 181.357 52.2533C181.357 52.9356 181.514 53.5626 181.828 54.1344C182.148 54.7062 182.575 55.1643 183.111 55.5087C183.647 55.8466 184.238 56.0155 184.884 56.0155C185.42 56.0155 185.923 55.8921 186.393 55.6452C186.864 55.3983 187.256 55.0766 187.569 54.6802Z" fill="white"/>
<path d="M195.132 57.3801C194.23 57.3801 193.407 57.1494 192.663 56.6881C191.924 56.2267 191.333 55.6094 190.889 54.8362C190.452 54.0565 190.233 53.1955 190.233 52.2533C190.233 51.5386 190.36 50.8725 190.615 50.2553C190.87 49.6315 191.219 49.0857 191.663 48.6178C192.114 48.1435 192.636 47.7731 193.231 47.5067C193.825 47.2403 194.459 47.1071 195.132 47.1071C195.857 47.1071 196.523 47.25 197.13 47.5359C197.744 47.8218 198.27 48.2214 198.708 48.7348C199.152 49.2481 199.485 49.8491 199.707 50.5379C199.936 51.2267 200.031 51.9707 199.991 52.7699H191.683C191.761 53.3872 191.957 53.9395 192.271 54.4268C192.591 54.9142 192.996 55.3008 193.486 55.5867C193.982 55.8661 194.531 56.009 195.132 56.0155C195.785 56.0155 196.373 55.8466 196.895 55.5087C197.424 55.1708 197.849 54.7062 198.169 54.1149L199.56 54.4366C199.168 55.3008 198.577 56.009 197.787 56.5614C196.997 57.1072 196.111 57.3801 195.132 57.3801ZM191.644 51.6685H198.61C198.564 51.0642 198.378 50.5119 198.051 50.0116C197.731 49.5048 197.317 49.1019 196.807 48.803C196.298 48.4976 195.739 48.3449 195.132 48.3449C194.524 48.3449 193.969 48.4944 193.466 48.7933C192.963 49.0857 192.552 49.4853 192.231 49.9921C191.911 50.4924 191.715 51.0512 191.644 51.6685Z" fill="white"/>
</svg>
