<svg width="32" height="32" viewBox="0 0 32 32" fill="none" xmlns="http://www.w3.org/2000/svg">
<rect width="32" height="32" rx="16" fill="white"/>
<path fill-rule="evenodd" clip-rule="evenodd" d="M6.47208 9.09442C5.81812 10.3779 5.81812 12.058 5.81812 15.4184V16.2184C5.81812 19.5787 5.81812 21.2588 6.47208 22.5423C7.04732 23.6713 7.9652 24.5892 9.09417 25.1644C10.3776 25.8184 12.0578 25.8184 15.4181 25.8184H16.2181C19.5784 25.8184 21.2586 25.8184 22.5421 25.1644C23.671 24.5892 24.5889 23.6713 25.1642 22.5423C25.8181 21.2588 25.8181 19.5787 25.8181 16.2184V15.4184C25.8181 12.058 25.8181 10.3779 25.1642 9.09442C24.5889 7.96544 23.671 7.04756 22.5421 6.47232C21.2586 5.81836 19.5784 5.81836 16.2181 5.81836H15.4181C12.0578 5.81836 10.3776 5.81836 9.09417 6.47232C7.9652 7.04756 7.04732 7.96544 6.47208 9.09442ZM22.8181 10.3184C22.8181 11.1468 22.1465 11.8184 21.3181 11.8184C20.4897 11.8184 19.8181 11.1468 19.8181 10.3184C19.8181 9.48993 20.4897 8.81836 21.3181 8.81836C22.1465 8.81836 22.8181 9.48993 22.8181 10.3184ZM15.8181 20.8184C18.5795 20.8184 20.8181 18.5798 20.8181 15.8184C20.8181 13.0569 18.5795 10.8184 15.8181 10.8184C13.0567 10.8184 10.8181 13.0569 10.8181 15.8184C10.8181 18.5798 13.0567 20.8184 15.8181 20.8184Z" fill="#212A33"/>
<path d="M18.8181 15.8184C18.8181 17.4752 17.475 18.8184 15.8181 18.8184C14.1613 18.8184 12.8181 17.4752 12.8181 15.8184C12.8181 14.1615 14.1613 12.8184 15.8181 12.8184C17.475 12.8184 18.8181 14.1615 18.8181 15.8184Z" fill="#212A33"/>
</svg>
