<?xml version="1.0" encoding="UTF-8"?>
<svg id="Layer_2" data-name="Layer 2" xmlns="http://www.w3.org/2000/svg" viewBox="0 0 486.91 448.73">
  <defs>
    <style>
      .cls-1 {
        fill: #fff;
      }
    </style>
  </defs>
  <g id="_Слой_1" data-name="Слой 1">
    <g>
      <path class="cls-1" d="M247.39,26.88l-12.02,18.98C169.26,9.17,72.86,34.09,46.64,108.6-2.63,248.6,186.6,446.3,328.17,396.13c70.12-24.85,83.65-101.47,80.21-167.26,53.2,139.39-38.03,256.31-187.77,209.27C118.88,406.19,15.15,291.26,1.56,184.2-16.6,41.07,127.13-38.03,247.39,26.88Z"/>
      <path class="cls-1" d="M352.21.18c35.94-2.54,162.97,22.42,128.99,79.99-29.85,50.57-92.64-48.29-153.7-3.7-47.32,34.56-62.01,178.1-98.08,232.92-21.19,32.21-58.19,43.83-86.02,12.02,17.85-13.9,30.22-33.77,38.48-54.56C220.05,170.69,219.74,9.52,352.21.18Z"/>
      <path class="cls-1" d="M339.16,172.13c68.54-8.25,70.56,82.72,5.71,80.77-55.82-1.68-58.44-74.42-5.71-80.77Z"/>
    </g>
  </g>
</svg>