<svg width="51" height="51" viewBox="0 0 51 51" fill="none" xmlns="http://www.w3.org/2000/svg">
<path d="M51 0H2V49H51V0Z" fill="#5F6270"/>
<path d="M48.3228 2.67719H4.67712V46.3229H48.3228V2.67719Z" fill="#141418"/>
<path d="M13.7633 27.2583L14.1697 32.6118L14.9891 27.2672L16.3934 27.2534L17.2111 32.6134L17.6573 27.2583H18.8742L18.1351 34.6318L16.3942 34.5653L15.6705 29.4479L14.9891 34.5937L13.2879 34.6294L12.5464 27.2583H13.7633Z" fill="#5F6270"/>
<path d="M9.34187 6.73346L11.1664 11.4388L11.0861 6.73346H12.303V14.1159H10.8427L9.22018 9.49174V14.1159H8.0033V6.73346H9.34187Z" fill="#5F6270"/>
<path d="M32.5844 6.73346L34.2872 11.4388L34.2183 6.8665C34.3027 6.60771 35.1764 6.78295 35.4238 6.73346V14.1159H33.9635L32.341 9.49174V14.1159H31.1241V6.73346H32.5844Z" fill="#5F6270"/>
<path d="M32.9089 17.0364L34.6117 21.6606L34.5314 17.0364H35.7483V24.4189H34.4097L32.6655 19.7136V24.4189H31.4486V17.0364H32.9089Z" fill="#5F6270"/>
<path d="M28.9338 34.6407H27.4735L26.6541 31.8094L26.0132 31.8013V34.6407H24.7152V27.2582H27.5141C27.6649 27.2582 28.159 27.5706 28.2839 27.7052C29.0384 28.5157 29.0173 31.0874 27.8889 31.6877L28.9329 34.6407H28.9338Z" fill="#5F6270"/>
<path d="M10.8021 17.0364C11.9565 17.2165 12.3873 18.5161 12.4643 19.5115C12.5665 20.8412 12.6728 23.6563 11.1655 24.2136C10.9375 24.298 10.2171 24.4188 9.99161 24.4188H8.00403V17.0364C8.85909 17.1313 9.98269 16.9082 10.8029 17.0364H10.8021Z" fill="#5F6270"/>
<path d="M29.9885 34.6407V27.2582H32.7062C32.8547 27.2582 33.5377 27.6184 33.6789 27.7458C34.6127 28.5838 34.5583 31.5409 34.3328 32.6985C34.2054 33.3516 33.9077 34.0915 33.2643 34.3884C33.0842 34.4719 32.3906 34.6407 32.2186 34.6407H29.9877H29.9885Z" fill="#5F6270"/>
<path d="M27.2106 6.67341C28.2685 6.51765 29.246 6.78699 29.6452 7.84731C30.0435 8.90681 30.033 12.0188 29.6452 13.084C29.0562 14.7024 26.4058 14.7057 25.7877 13.084C25.4177 12.1121 25.4007 9.22077 25.6643 8.21075C25.8818 7.37921 26.3182 6.80484 27.2106 6.67423V6.67341Z" fill="#5F6270"/>
<path d="M30.2319 24.0133C29.0239 24.6022 26.8132 24.9324 26.135 23.4454C25.6077 22.2885 25.5655 18.6809 26.3378 17.6457C27.1191 16.5984 29.6299 16.5529 30.1078 17.851C30.2765 18.3093 30.1694 18.7052 30.313 19.1457L29.0142 19.3096C29.1862 17.8696 27.5661 17.4307 27.184 18.8991C27.0006 19.6025 26.9503 22.411 27.3211 22.9895C27.6642 23.5249 28.5023 23.4024 29.0142 23.2028V21.4181H28.2021V20.3634H30.2303V24.0141L30.2319 24.0133Z" fill="#5F6270"/>
<path d="M7.67883 34.6407L8.94196 27.1755L10.9239 27.1763L12.1408 34.6407H10.8427L10.6342 33.2583L9.13991 33.2624L8.97685 34.6407H7.67883Z" fill="#5F6270"/>
<path d="M23.7417 34.6407H22.4437L22.206 33.2965L20.7871 33.2567L20.5778 34.6407H19.2798L20.4975 27.178L22.4494 27.212L23.7417 34.6407Z" fill="#5F6270"/>
<path d="M22.1964 19.1416L20.9843 19.3079C21.2577 17.3925 18.9594 17.7016 19.4965 19.4572C19.6717 20.0299 20.5414 20.0202 21.0273 20.197C22.2661 20.6489 22.3967 21.6273 22.2848 22.8401C22.1939 23.8282 21.5936 24.4018 20.6176 24.4991C18.8905 24.6719 17.874 24.1162 18.0744 22.2398L19.2799 22.0654C19.1866 22.9229 19.477 23.5419 20.4375 23.3447C21.0857 23.2117 21.1855 22.3412 20.943 21.822C20.6817 21.2622 19.6709 21.2079 19.1436 20.9442C17.6428 20.1962 17.7182 17.1191 19.735 16.8822C21.476 16.6778 22.3675 17.3244 22.1964 19.1408V19.1416Z" fill="#5F6270"/>
<path d="M39.1281 27.5292C39.5167 27.9194 39.6075 28.8321 39.5523 29.3586L38.3444 29.5298C38.6194 27.9024 36.6553 27.7142 36.8022 29.4073C36.9052 30.5958 38.6267 30.0806 39.3041 31.0444C39.7787 31.7194 39.7973 33.3614 39.3171 34.0323C38.7395 34.8387 37.1097 34.9182 36.2732 34.562C35.3395 34.1637 35.5074 33.2754 35.3419 32.4519L36.6391 32.2889C36.5588 33.1723 36.8241 33.7662 37.8122 33.5828C38.4628 33.4619 38.5269 32.4852 38.2795 31.9879C37.9631 31.3511 36.4168 31.5214 35.8408 30.6128C35.2649 29.7042 35.3517 27.7028 36.5134 27.255C37.1746 27.0003 38.5967 26.9978 39.1264 27.53L39.1281 27.5292Z" fill="#5F6270"/>
<path d="M13.2765 14.1159L14.5859 6.7448L16.5134 6.74237L17.8195 14.1159H16.4404L16.2822 12.8698L14.8122 12.8528L14.5745 14.1159H13.2765Z" fill="#5F6270"/>
<path d="M36.3973 14.1159L37.7067 6.74479L39.6383 6.73749L40.9404 14.1159H39.5612L39.403 12.8698L37.8568 12.8171L37.6954 14.1159H36.3973Z" fill="#5F6270"/>
<path d="M17.0894 17.0364V18.1722H14.8178V19.9164L14.9395 20.0381H16.6837V21.1739H14.8178V23.202H17.1705V24.4189H13.601V17.0364H17.0894Z" fill="#5F6270"/>
<path d="M20.5778 7.95034V14.1159H19.361V7.95034H18.1035C17.9072 7.81567 17.9404 6.85028 18.0581 6.76915L21.8239 6.74481L21.9213 6.80971C21.9959 6.91599 22.0194 7.82946 21.8353 7.95034H20.5778Z" fill="#5F6270"/>
<path d="M43.1308 6.73346V12.9801H45.159V14.1159H41.9139V6.73346H43.1308Z" fill="#5F6270"/>
<path d="M24.6341 17.0364H23.3361V24.4189H24.6341V17.0364Z" fill="#5F6270"/>
<path d="M24.2286 6.73346V14.1159H22.9305V6.85515L23.0522 6.73346H24.2286Z" fill="#5F6270"/>
<path d="M26.0133 30.6656V28.394C26.9576 28.3486 27.4371 28.3372 27.4768 29.4049C27.5198 30.5479 27.1109 30.7564 26.0133 30.6656Z" fill="#141418"/>
<path d="M9.30139 23.202V18.1722C10.6002 18.0765 11.0699 18.2412 11.1705 19.5887C11.2233 20.2864 11.2517 22.2083 10.9409 22.7729C10.6302 23.3375 9.85386 23.181 9.30139 23.202Z" fill="#141418"/>
<path d="M31.2865 33.505V28.3941C31.8763 28.407 32.5472 28.2513 32.8968 28.8524C33.2684 29.4917 33.2668 32.2492 32.9252 32.9128C32.6137 33.5196 31.8795 33.5139 31.2865 33.505Z" fill="#141418"/>
<path d="M28.2596 7.97551C28.3351 8.04528 28.4365 8.26675 28.4722 8.3714C28.6847 9.00256 28.7026 11.8736 28.4868 12.4926C28.2848 13.0726 27.5993 13.4255 27.145 12.9209C26.7604 12.4934 26.7223 10.7021 26.7393 10.0961C26.7515 9.64995 26.8196 8.68293 26.9689 8.29758C27.1807 7.7516 27.8435 7.59097 28.2596 7.97551Z" fill="#141418"/>
<path d="M10.5183 32.207H9.30139L9.90984 28.4744L10.5183 32.207Z" fill="#141418"/>
<path d="M22.1192 32.207H20.9023L21.5108 28.4744L22.1192 32.207Z" fill="#141418"/>
<path d="M16.1159 11.7633H14.9801L15.4677 8.11261C15.6283 8.14587 15.6056 8.27892 15.6283 8.39736C15.84 9.50635 15.922 10.651 16.1159 11.7633Z" fill="#141418"/>
<path d="M39.2367 11.7632H38.101L38.6283 8.03064L39.2367 11.7632Z" fill="#141418"/>
</svg>
