<svg width="111" height="80" viewBox="0 0 111 80" fill="none" xmlns="http://www.w3.org/2000/svg">
<path d="M55.6388 16.6478C56.0583 16.6291 56.4459 16.731 56.4406 16.0443C56.4326 15.1123 53.6064 13.5245 52.8591 12.8928C50.4669 10.8772 49.6359 7.57412 50.4404 4.5634C50.5506 4.15303 51.2435 2.3332 51.6617 2.3171C52.1887 2.29699 51.3909 3.24379 51.3617 3.35241C51.0603 4.48965 52.3387 5.4351 52.9918 6.19549L59.1526 10.7538C59.4566 9.94782 58.6017 9.78555 58.1584 9.41541C55.149 6.89956 52.2949 5.57726 53.8786 1.07259C53.9224 0.947865 54.4109 -0.225575 54.6445 0.0386164C54.5835 0.829851 53.9834 1.09538 54.4534 1.90673C55.4623 3.64611 58.0601 4.98852 59.4858 6.33899C60.4031 7.208 60.5 8.03411 60.289 9.28801C60.1881 9.88613 59.4805 11.077 59.4726 11.356C59.4673 11.5504 59.6637 11.8615 59.685 12.1593C59.8058 13.8101 58.7079 15.3698 57.6274 16.5137L57.7615 16.7819H59.9491C59.4407 17.8937 59.0956 19.0497 58.7929 20.2365C58.4438 21.6058 57.9752 23.5235 57.8424 24.9035C57.6884 26.5114 57.9234 28.2857 57.8252 29.9111C67.6711 30.2839 75.9559 36.9289 79.7034 45.9195C80.8211 45.9208 81.7052 46.6665 82.738 46.7724C83.7986 44.4161 85.1142 41.1479 88.1249 41.0862C89.1099 41.0661 90.4998 41.6844 91.3759 42.1645C92.0901 42.5561 92.637 43.1166 93.3618 43.4385C93.2516 43.0013 93.0777 42.8042 93.087 42.3013C93.0963 41.7984 93.3207 41.3115 93.3565 40.8234C93.4574 39.4837 93.5569 38.6415 93.7508 37.3379C94.0056 35.6254 92.6914 34.5767 91.364 33.8511C91.0042 34.511 88.4833 35.2311 88.3108 35.4578C87.866 36.0451 88.3944 37.4573 87.493 37.8462C87.035 38.0447 86.52 37.8945 86.0328 37.979C85.5682 38.0594 85.085 38.3719 84.5288 38.4685C84.1544 38.5342 83.7535 38.4269 83.3778 38.5114C83.042 38.5865 82.7659 39.0089 82.4221 39.0103C82.0185 39.0116 81.8287 38.5288 81.5512 38.5422C81.2101 38.5583 80.4016 38.8842 80.0538 39.0384C79.3728 39.3402 77.7785 40.7 77.1785 40.2977C76.9382 40.1368 76.7696 38.9057 76.8148 38.5865C76.9502 37.6276 77.8157 37.4077 78.1117 36.6097C77.7175 36.5762 77.0843 36.7063 76.7418 36.485C76.5546 36.3643 76.5028 35.8453 76.2493 35.6106C76.1245 35.4953 75.5338 35.1292 75.2948 34.9589C74.1452 34.1408 73.966 34.4023 74.128 32.6495C74.2222 31.629 74.6125 31.8798 74.9855 31.3728C75.17 31.1234 75.3041 30.5481 75.5364 30.1887C76.382 28.8771 76.3886 29.1399 76.8772 27.5226C77.1931 26.4766 78.0069 25.916 78.9666 25.5056C80.7733 26.0729 82.4008 25.5794 84.1464 25.4895C86.666 25.3608 89.2015 26.1078 91.7051 26.2902C92.6729 26.3612 93.8092 26.1735 94.7411 26.3036C96.9168 26.6053 98.231 30.1659 99.7257 31.582C100.797 32.5959 102.511 33.1927 103.658 34.2414C107.077 37.3661 107.582 41.0621 109.292 44.9606C109.585 45.6311 110.769 47.046 110.838 47.2834C110.992 47.8198 111.082 49.5994 110.894 50.0996C110.381 51.4581 109.31 51.9114 108.478 52.8823C108.154 53.2605 107.869 53.8761 107.485 54.2905C106.646 55.1997 105.687 55.3955 104.826 56.1586C103.155 57.6365 101.64 60.2985 100.06 62.0607C95.9929 66.5962 91.7994 68.6078 85.6053 68.0848C84.1995 67.9668 82.9995 67.551 81.7052 67.366C80.9087 67.252 80.0671 68.1612 79.3091 68.5582C78.4011 69.0342 77.359 69.2381 76.5307 69.7705C75.332 70.5403 74.4373 71.9954 73.4257 72.9971C63.4245 82.9037 46.2894 82.2465 37.2758 71.3664C36.7355 70.7146 35.8607 69.1777 35.3509 68.7553C34.8412 68.3329 33.5602 67.8742 32.9044 67.4773C32.2061 67.0548 31.549 66.5063 30.9171 65.9954C30.4618 65.8827 29.2498 66.804 28.7441 67.0401C22.4372 69.9851 17.0742 69.6257 11.6182 65.1371C9.22081 63.1644 8.03936 60.0008 5.77998 58.3097C4.55339 57.391 1.84533 56.7607 1.10327 55.3982C0.979817 55.1702 0.0160665 52.5122 0.00411919 52.3459C-0.0702197 51.3039 0.884238 50.7299 1.04221 49.771C1.12717 49.2534 1.01699 48.7277 1.09133 48.2127C1.65285 44.3276 3.32946 41.9217 6.31363 39.5574C8.74558 37.6303 12.1877 35.3478 14.2692 33.127C15.3139 32.0112 16.4582 30.0251 17.9875 29.5154C18.4189 29.372 18.8716 29.4336 19.2486 29.3156C20.0053 29.0796 20.6902 28.7028 21.4947 28.5029C23.778 27.9357 26.178 28.1543 28.4427 27.886C29.21 27.7948 30.2521 27.1739 30.8627 27.1391C31.3353 27.1122 33.0424 27.8458 33.3066 28.2253C33.5031 28.5083 33.4155 29.0555 33.7168 29.553C33.9531 29.9433 34.4137 30.2182 34.6806 30.5883C34.9474 30.9584 35.9695 32.5355 36.1129 32.8909C36.405 33.6124 36.0625 34.6357 35.4877 35.1372C35.0907 35.4832 33.7792 36.0156 33.7195 36.0988C33.6571 36.186 33.673 36.5507 33.5469 36.7935C33.4075 37.059 33.061 37.232 32.9084 37.4975C33.1606 37.81 33.2668 38.1734 33.4433 38.51C33.4964 38.612 33.6465 38.6348 33.6836 38.7233C33.9265 39.2986 33.7062 39.4314 33.6916 39.8967C33.681 40.2038 33.9425 40.692 33.608 40.9052C32.6482 41.514 32.0004 39.9249 31.2118 39.721C31.0499 39.6795 29.6454 39.4314 29.5074 39.4247C29.0905 39.4072 28.7892 39.7988 28.3246 39.831C27.86 39.8632 27.556 39.6084 27.2493 39.5976C26.413 39.5681 25.3696 39.8229 24.5121 39.7975C24.374 39.7666 23.4275 38.9244 23.2815 38.7581C23.0545 38.498 22.8474 37.8395 22.6934 37.7456C22.4199 37.578 21.4721 37.7161 21.0487 37.6652C20.5681 37.6088 20.1181 37.3178 19.6429 37.3366C19.4371 37.4653 17.7393 40.5082 17.6769 40.8623C17.5415 41.6347 18.0101 42.6392 18.1269 43.3956C18.1733 43.7 17.9317 45.0129 18.3154 44.8466C21.123 41.5087 24.9607 43.2226 27.0422 46.3446C27.6316 47.2284 27.937 48.3146 28.7892 49.004C29.9707 48.3361 30.8083 47.8359 32.2406 47.9284C33.1208 45.607 34.0394 43.4211 35.3908 41.3317C39.8391 34.4533 47.3235 30.3053 55.437 29.7676C55.4782 25.2951 54.4653 20.8937 53.1896 16.6465C54.0034 16.621 54.8277 16.6827 55.6428 16.6465L55.6388 16.6478ZM56.1804 4.38236C55.4224 3.66757 54.6432 2.99569 53.9821 2.18031C53.2945 3.75474 54.1016 5.0368 55.1875 6.11771C56.4964 7.42124 58.315 8.46459 59.6159 9.81237C60.0248 9.44894 60.0208 8.64295 59.9398 8.1481C59.8058 7.3287 56.953 5.1119 56.1804 4.38236ZM52.7011 6.82043L50.9329 4.45746C50.0528 7.76857 51.2714 10.8906 53.8826 12.9371C55.072 13.8691 57.042 14.4686 56.965 16.2442C58.1916 15.1566 60.0925 12.744 58.6283 11.2165C57.0287 9.54818 54.3286 8.47934 52.7024 6.82043H52.7011ZM84.3469 33.1913C84.4186 32.5382 84.2951 31.7819 84.3469 31.1154C84.6575 31.0979 84.5819 31.0698 84.6124 31.3138C84.6947 31.9643 84.7332 33.3643 84.3495 33.8619C84.3495 34.0201 86.8346 34.5619 87.1837 34.4466C87.4333 34.3634 87.278 33.949 87.6616 34.063L87.5289 34.4627L88.1023 34.468C88.3307 34.4144 88.8842 32.5369 88.7236 32.1869C88.9771 32.1735 88.9931 32.1225 88.9931 32.3894C88.9931 33.0653 88.6333 33.6969 88.4594 34.3299C89.5652 34.4654 89.7139 33.1591 89.7856 32.321C90.4639 32.3102 89.6674 33.5682 89.8506 33.9289C91.3401 33.1109 92.0874 31.5096 92.8375 30.0452L93.1003 30.1109L92.9649 31.3152L93.2304 31.3836C93.5835 30.6352 93.7003 29.9258 93.764 29.1064C94.0017 28.8422 94.0441 30.6178 94.0242 30.7653C93.9645 31.1931 93.4401 31.6746 93.5118 31.9589C94.0627 32.6361 94.8141 33.1927 95.2468 33.9705C95.6079 34.6182 96.1137 36.3657 96.0168 37.0791C95.9929 37.2615 95.9385 37.4828 95.7526 37.2776C95.3477 35.7059 94.7663 34.0671 93.4985 32.9902C93.6127 34.122 94.4225 35.0621 94.6827 36.1471C94.8101 36.6795 94.7331 37.2266 94.8207 37.5847C94.8499 37.7054 95.1008 37.7228 95.1951 37.9012C95.3729 38.2378 95.4234 38.7783 95.5522 39.1538C95.6331 39.3884 96.1708 39.8431 95.6876 39.8216L95.2097 39.0223L94.8247 39.1538L94.6893 38.3491L94.3017 38.3545C93.5012 39.9021 95.4791 39.9195 94.972 41.2431C94.903 41.4242 95.0185 41.4725 94.6933 41.4309C94.7623 40.9682 94.5831 40.7604 94.1636 40.6263C94.0574 41.5891 93.6685 42.4515 93.991 43.4117C94.0893 43.7054 94.3614 43.9722 94.4026 44.2042C94.4344 44.3813 94.2977 44.5543 94.3627 44.7729C94.4132 44.9405 94.7663 45.3629 94.9574 45.4488C95.0464 45.1765 94.5605 44.5556 94.5605 44.4443V42.5024L95.4247 44.5087L95.5535 44.1104L96.0194 44.9123C96.2053 44.9821 96.1323 44.3772 96.4137 44.6455C96.5677 44.793 96.7894 45.9476 97.3429 46.0522L96.9473 46.1166C96.8026 46.5484 96.7787 47.4993 97.1093 47.8278C97.1757 47.8935 98.5987 48.5198 98.8045 48.5936C99.735 48.9262 100.482 48.8886 101.441 48.7813L101.718 47.8587C101.755 47.9794 100.559 48.8953 100.793 48.3294C100.923 48.0129 101.828 47.5207 101.722 46.9213L102.117 47.1881C102.093 47.0004 102.249 46.7617 102.221 46.6007C102.143 46.1689 100.097 45.4702 99.6395 45.2047C98.7129 44.6669 97.4518 43.3916 97.0774 42.3643L96.6818 42.5011L96.4163 41.5637L97.0761 42.029C97.858 43.2722 98.7859 44.5113 100.19 45.0505C101.098 45.3991 102.637 45.4099 102.882 46.6155C103.128 47.8211 102.294 49.6329 100.97 49.6946C100.824 49.7013 98.9306 49.4023 98.7288 49.3392C98.4646 49.2561 96.8186 48.4206 96.6168 48.2583C96.2889 47.9955 95.9756 47.6361 96.1508 47.1895C95.4207 47.1533 96.484 48.4608 95.8867 48.662C95.8641 48.3428 95.7539 47.9458 95.5216 47.7192C94.9813 47.1935 92.941 46.6718 92.1724 46.3835C92.1697 46.1515 92.0967 46.0965 92.3582 46.1273C92.856 46.185 93.3844 46.4425 93.8955 46.3191L92.4379 45.6486C92.6078 45.4327 93.618 45.8028 93.4946 45.3857C93.1229 44.1211 92.041 43.5941 91.044 42.9061C90.8356 42.9034 90.7931 43.8422 90.7692 44.0688C90.7055 44.6736 90.7865 45.4649 90.7135 46.0536C90.683 46.299 90.756 46.2695 90.448 46.2521V43.5055C90.448 43.3969 89.9011 41.738 89.5201 42.1001C89.4285 42.1873 90.4214 44.1962 89.6528 44.51C89.7033 43.8274 89.5573 42.9544 89.1802 42.3737C88.7621 41.73 88.4554 41.7876 87.7983 42.0371C85.0584 43.0751 84.9443 47.7031 81.8287 48.1269L82.0928 47.459C81.4862 47.282 80.8941 46.8623 80.2304 47.1184C80.0618 47.231 80.176 47.3088 80.1892 47.4282C80.2211 47.7045 80.6193 49.1729 80.7282 49.4358C80.8012 49.6141 81.0375 49.5873 81.0362 49.6772C81.0335 49.9159 80.6937 50.2444 81.1649 50.404L81.2977 49.7348C81.3189 50.5234 81.1875 51.4407 81.6309 52.1447C81.6561 52.0455 81.3946 49.7147 81.6946 50.1358L82.0278 52.1461L81.9627 50.404C82.5535 50.2739 81.968 51.3294 82.3583 51.4742C82.3889 51.1483 82.215 50.223 82.7566 50.2699C82.6159 51.4849 83.3606 52.5886 84.481 52.9507L84.4133 53.219L84.0854 53.0822L84.0933 53.6092L86.6474 54.0035C87.3258 53.0312 87.7373 51.7827 88.3227 50.7326C88.4262 50.5475 88.4289 50.341 88.7262 50.404L86.8811 54.3696C86.8319 54.6901 87.3085 54.788 87.5368 54.6271C87.8528 54.2167 87.8023 53.6977 87.9961 53.2163C88.2404 52.6128 88.8072 51.8966 89.1046 51.2556C89.6714 50.0366 89.986 48.7894 90.1852 47.4564C90.4161 47.4657 90.4626 47.3665 90.4201 47.6253C90.2316 48.7652 90.075 49.9172 89.6356 50.9874C89.2546 51.9154 88.3174 52.9561 88.3346 53.9659C88.3426 54.4232 89.1484 54.3079 89.4537 54.2851C90.2475 54.2261 92.8919 53.6173 92.9344 52.6369C92.9383 52.5551 92.868 52.2319 92.706 52.2789L92.4405 52.8126L92.5056 52.008C92.2494 52.3231 92.3397 53.0594 91.7768 53.0808C92.1352 52.2333 92.5149 51.3522 92.4405 50.4027L92.7034 51.8752C92.7153 51.1483 92.9609 50.5556 92.572 49.8676L92.9025 50.1278L93.1003 51.8752C93.3379 50.9472 93.2078 50.3182 92.8375 49.4653L93.6313 50.4027L93.1016 48.9302C93.4229 48.5989 93.6857 50.0312 93.8955 50.0004L93.4999 48.662L94.161 48.7947L94.0295 48.3951L94.8061 49.0147L95.0915 49.7322C95.1765 49.7938 96.419 49.0656 96.7495 49.1072C96.8903 49.1246 97.1597 49.5766 97.4757 49.4666L97.4 49.7402C97.0429 49.8582 96.65 49.8716 96.3447 50.1318C96.1508 50.2967 94.8247 51.9905 94.6362 52.2909C94.5327 52.4559 94.3866 52.5927 94.4265 52.8139C95.2575 52.5806 95.4712 51.6486 96.2371 51.0947C97.2367 50.3718 99.8027 49.5833 100.798 50.463C101.586 51.1577 100.071 51.5091 99.5983 51.7451L99.8612 51.8779C99.9713 52.2359 99.6687 52.1139 99.5399 52.2829C98.6372 53.459 98.2961 54.2999 96.5491 54.505C96.196 54.5466 95.9809 54.3937 95.6185 54.4796C95.0995 54.6029 94.1105 55.299 94.0256 55.8957L93.7614 55.8287C93.8795 55.1032 94.3548 54.548 95.061 54.3294C95.9013 54.0679 96.4283 54.4071 97.2633 53.868C97.408 53.7742 97.4478 53.573 97.5752 53.4845C97.8115 53.3182 98.2058 53.2914 98.4049 53.0178L97.6111 53.219L97.8739 52.818L97.3456 52.6839C97.8261 52.5095 98.4222 52.2654 98.8496 51.9932C98.9837 51.9074 99.2585 51.7169 98.8722 51.7464L97.6748 52.413L97.7969 52.1474C98.0067 52.0375 97.8222 51.9771 97.6814 52.016C96.6686 52.2963 96.1482 52.7549 95.3145 53.2444C94.1928 53.9029 94.3734 53.6374 93.4985 54.6257C93.0472 55.1353 92.6184 55.5444 91.9069 55.6315L92.0396 56.1653L91.6441 56.0298L91.6414 56.4335L91.1131 56.1666L91.3772 56.8345C91.0414 56.9538 90.6498 55.9722 90.3816 56.4335L90.7135 57.2368C90.5794 57.3977 89.8201 56.2216 89.6555 56.4992L89.9847 57.2382L88.9917 56.4348L89.54 57.4795C91.1383 57.9127 92.4817 57.2583 93.4985 56.0325C92.8932 57.9596 90.1918 58.4813 88.6599 57.3723C88.3506 57.1483 88.182 56.7312 87.9656 56.5636C87.4784 56.1881 86.828 56.1693 86.3063 56.0231C86.1868 55.9896 86.2545 55.7858 86.0169 55.7536C84.777 55.5873 83.8172 55.9856 83.0274 56.9029C83.0207 57.3696 84.7743 56.8358 85.0797 56.8278C87.5567 56.754 87.2342 58.6798 89.1192 59.1854C90.5953 59.581 91.887 58.7482 93.31 59.239C93.9605 59.463 94.0906 59.9056 94.5698 60.2435C95.1672 60.6646 95.8203 60.914 96.4097 61.4666C96.6141 61.6583 96.5212 61.6154 96.3513 61.7898C95.7075 61.1729 94.8725 60.8658 94.1211 60.4286C93.5105 60.0745 93.3658 59.526 92.5149 59.6548C92.2958 59.6883 92.1246 59.8532 91.9441 59.8841C90.4321 60.1483 89.3342 60.328 87.9975 59.3812C87.1492 58.7804 86.8412 57.7089 85.5456 57.9087L86.601 58.315L86.6049 58.7093C86.508 58.8126 84.8792 58.1112 84.5938 57.9972C84.1345 57.8135 83.7548 57.8564 83.2796 57.45C83.1376 57.3293 83.0752 57.1523 83.0101 56.986L82.7207 56.9901C82.3158 57.4594 81.0906 58.0079 80.8941 58.4988C80.7269 58.9185 80.8251 59.2927 80.7415 59.6843C80.3538 61.4853 79.8494 63.281 79.0502 64.9426L79.3131 65.0057L78.7834 66.8805C79.1604 66.9502 79.0011 66.7906 79.0821 66.5868C79.333 65.9538 79.4857 65.2779 79.5799 64.6033C79.8096 64.6114 79.8574 64.5135 79.8149 64.7723C79.7246 65.3101 79.5945 65.7661 79.4511 66.2837C79.3994 66.4701 79.1538 66.6538 79.5109 66.6136L80.1109 64.3365L80.2437 64.8716C80.7189 64.7656 80.4043 63.8054 80.5078 63.6673C81.157 63.5493 80.3963 64.4585 80.7707 64.6033C80.9831 64.02 80.845 63.3763 81.0269 62.7889C81.1025 62.5448 81.3163 62.6212 81.3149 62.4026C81.3123 61.9359 80.9645 61.5685 80.9061 61.1232L81.3587 61.4022L82.4964 63.1322C82.4818 62.7915 82.272 62.412 82.1207 62.1063C82.0119 61.8863 80.9658 60.3937 81.0401 60.3199C82.0689 60.627 82.4818 61.606 82.9623 62.4616C83.2929 61.7093 82.507 61.1756 82.499 60.4527C82.6384 60.2918 83.5916 61.653 83.7575 61.7911C83.6858 61.2869 84.8646 60.9878 85.2151 60.9878H87.4691C87.5873 60.9878 87.951 60.7384 88.1979 60.855C87.7625 61.4961 86.8797 61.3512 86.2107 61.5913C86.1071 61.6288 85.3571 61.9842 85.5469 62.1907C85.7859 62.4496 90.079 62.8237 90.7175 62.7299C90.7706 63.0504 90.6843 62.9833 90.4546 63.0598C89.4803 63.3803 88.2855 63.4929 87.2713 63.6686L88.2815 63.9194L89.1272 63.9368L88.4647 64.4692C88.62 64.6784 91.9016 64.8461 92.3981 64.8193C94.1822 64.7267 95.5548 63.6753 96.8942 62.5931L96.6858 61.9252L97.8779 62.3249C97.5168 61.6785 98.4965 61.3311 98.9412 60.9207C99.3089 60.5815 99.6368 60.1912 99.9992 59.8452C100.18 59.408 98.9213 59.7513 98.7713 59.8103C98.535 59.9029 98.1142 60.0625 97.9164 60.1483C97.6217 60.277 97.4531 60.6686 97.0934 60.7357L97.2155 61.252C97.1199 61.3526 96.196 60.7987 96.4243 60.4554C97.1597 60.2328 97.9137 59.75 98.6465 59.5502C99.4456 59.3329 100.015 59.455 100.755 59.0017C101.384 58.6154 102.077 57.8926 102.519 57.3012C101.637 57.1403 100.687 57.4339 99.8014 57.5037C99.5678 57.5225 99.3102 57.3428 99.0169 57.3682C98.7235 57.3937 98.2244 57.7196 97.8142 57.6378L97.8792 57.3696C97.4743 57.3307 97.0097 57.4192 96.6168 57.3696C96.4336 57.3454 96.2 57.269 96.4203 57.1014C97.8487 56.9793 99.1934 56.4255 100.532 56.0298L100.334 56.4322L101.061 56.0298L100.664 56.7661C100.532 57.1872 101.643 56.0486 101.72 55.9574C101.982 55.649 102.767 54.6123 102.916 54.324C103.086 53.9954 103.185 53.5877 103.184 53.2149L103.579 53.349L103.448 52.9494C103.761 52.704 104.262 53.6186 104.348 53.8466C104.607 54.5292 104.509 54.7411 104.347 55.3982C104.304 55.5712 104.091 55.653 104.44 55.6262C105.94 54.6257 107.869 53.7151 108.352 51.8068C108.062 51.5869 107.845 51.847 107.821 52.1434L107.562 52.1367L107.492 51.8779C106.854 52.7482 105.676 52.6128 104.87 52.9561C104.761 53.003 104.757 53.1157 104.77 53.2163L104.526 52.9065C104.945 52.197 105.498 51.4863 106.341 51.3119L106.363 50.9391L106.765 51.0209L106.894 50.5368L107.29 50.6749L107.756 49.468L108.085 50.0031L108.088 49.1997L108.22 49.6007C108.591 49.476 108.476 48.9999 108.486 48.6633L108.848 49.5672L108.883 50.805C109.777 50.5462 109.953 49.6343 110.218 48.898C110.262 48.7773 110.474 48.7894 110.468 48.7357C110.456 48.6258 110.269 48.383 110.237 48.1631C110.197 47.8882 110.263 47.3692 110.178 47.2163C110.107 47.0862 109.139 46.6249 109.01 46.3218L108.086 45.0464C108.069 45.4126 108.129 45.7894 108.054 46.1542C107.924 46.7939 107.217 48.1229 107.055 48.7612C106.917 49.3003 107.173 49.7053 106.615 50.1921C105.816 50.8908 104.939 50.3786 104.059 50.2605C103.763 51.3495 102.914 51.6901 101.988 51.0062C102.422 50.4885 103.033 50.2163 103.421 49.645C104.241 48.442 104.929 46.1837 104.855 44.7313C104.805 43.7563 103.978 43.4519 104.121 42.0465C104.295 40.3473 104.548 40.0778 103.554 38.4376C102.56 36.7975 101.291 35.089 100.412 33.7667C100.367 33.6983 100.619 33.2584 99.9952 33.0559C100.74 33.0237 99.1018 31.9803 99.2001 32.5181L100.658 36.2047L99.3328 35.3344L99.597 35.2016C99.2558 35.0219 98.389 34.236 99.3315 34.3983C99.0514 34.1569 99.1032 33.6755 98.6704 33.658V33.3938L98.9333 33.2611C98.154 33.2074 98.3996 32.6375 98.2801 32.5248C98.1208 32.3719 97.704 32.2459 97.4757 32.1855L97.5434 31.9173L98.2031 32.1896L98.2708 31.9213L97.0774 31.2508L97.8726 31.3165L96.2836 30.1753L96.3513 29.9084L97.3429 30.2463C97.1332 29.7931 95.5933 29.3451 95.4871 29.2392C94.9694 28.7215 96.7097 29.3666 96.6792 29.1748C95.6172 27.4971 94.6243 26.5195 92.4963 26.8226C90.1015 27.1645 89.5413 26.6174 87.3165 26.3089C85.2257 26.0193 83.4522 26.5409 81.4915 26.4337C80.1813 26.3626 79.722 25.8315 78.3746 26.6214C77.367 27.2128 77.7613 27.477 77.5568 28.3407C77.371 29.1225 76.6541 29.6536 76.2811 30.2678C75.9081 30.882 75.6028 31.81 75.2019 32.3545C75.0054 32.6214 74.6762 32.5087 74.6736 33.0398C74.6682 34.2052 75.6346 34.0013 76.3886 34.4654L76.7949 33.595L76.5241 33.3281C77.5409 32.6576 77.1798 31.5284 77.3325 30.5266C77.4559 29.7193 77.9259 28.9991 77.8502 28.1677C78.9069 28.8583 77.9312 29.907 77.748 30.8109C77.5024 32.0219 77.6869 32.789 77.1506 34.0925C76.9913 34.4801 76.5572 34.6893 76.7192 35.1238C77.0192 35.9258 77.7214 35.8078 78.4277 35.9472C78.9334 35.848 78.7489 32.5718 78.7781 31.9857C78.8206 31.1207 79.2255 30.2276 78.9095 29.3733C80.1228 29.7488 79.3596 31.2682 79.3091 32.1212C79.2441 33.2168 79.3449 34.3232 79.2268 35.4175C79.1405 36.2222 78.5272 36.6808 79.7034 37.0764C80.5742 37.3701 80.9817 37.4291 80.8862 36.4206C80.7428 34.9093 80.4189 33.2919 80.2689 31.6826C80.2184 31.1449 80.5994 31.3809 80.7733 31.6129C81.2645 32.2687 80.8277 33.4984 80.9167 34.3795C80.9777 34.983 81.2406 35.494 81.3707 36.0639C81.534 36.772 81.4012 37.5713 81.9561 38.1547C82.8229 37.9495 83.7017 37.9039 84.1478 37.0094L84.2128 37.8127L87.1293 37.1408C87.2806 36.5185 86.8704 36.2074 86.731 35.6696C86.4098 35.7702 86.7284 36.6017 86.204 36.4729C86.1602 35.4846 85.4713 34.7081 84.4796 34.7322L84.7425 36.2047L84.2792 35.671L83.6818 36.4059L83.4203 36.2731L83.8225 34.4211C82.9172 33.9839 83.3659 33.772 83.2584 33.2289C83.2106 32.9915 82.3822 31.9602 83.0154 32.0528L83.415 32.7206L83.1522 30.5789C83.5278 30.5092 83.3699 30.6701 83.4508 30.8726C83.7986 31.7443 84.0004 32.8507 84.0814 33.7921C84.2168 33.8297 84.3389 33.2463 84.3456 33.19L84.3469 33.1913ZM33.5628 35.5355C33.6478 35.5986 35.2726 34.6625 35.408 34.5203C36.1488 33.7412 35.2461 33.2342 34.8624 32.5449C34.5584 31.9978 34.3872 31.4158 34.0168 30.8538C33.7765 30.4904 33.2469 30.1028 33.061 29.675C32.9097 29.3264 32.9548 28.9173 32.7743 28.6263C32.6854 28.4842 31.7296 27.768 31.5437 27.7144C31.0419 27.5709 30.3609 28.1784 29.8459 28.3648C27.2042 29.321 26.2564 28.4976 23.8496 28.7376C22.3177 28.8892 21.0088 29.6402 19.6734 29.8762C18.4229 30.0975 18.3114 29.7381 17.183 30.709C15.7666 31.9267 14.5639 33.8646 12.9935 35.1788C10.8616 36.9638 9.51419 37.1073 8.12166 39.9074C7.79244 40.5699 7.67032 41.3035 7.33446 41.9258C6.88843 42.7505 5.97911 43.3111 5.67246 44.2646C5.21979 45.6714 5.71361 45.9865 5.82379 47.1264C5.94326 48.3602 5.36581 48.7572 6.3216 50.1278C6.85657 50.8949 7.42473 51.1832 8.09511 51.6861C9.17833 52.4988 8.44424 54.0544 9.64826 54.8054C9.94031 54.9878 10.5602 54.9489 10.4899 55.3606C8.96992 55.311 8.40043 53.9887 7.75528 52.8341C5.89415 53.0057 4.04762 53.2417 3.13166 51.2073C2.47589 49.7482 2.79979 49.063 2.90466 47.6575C2.97104 46.7644 2.59005 46.4613 3.27238 45.4568C3.36663 45.3187 4.2494 44.3839 4.32507 44.3786C4.4379 44.3705 4.52419 44.506 4.39144 44.7112C4.05426 45.2315 3.27901 45.6513 3.19804 46.4653C3.14494 47.0044 3.58035 47.2887 3.58301 47.6548C3.58301 47.8976 3.3799 48.1255 3.37194 48.3441C3.33609 49.3567 3.84585 50.6441 4.59056 51.3401C4.78172 51.0746 4.06754 50.4697 4.52153 50.2699L5.25298 51.4742L4.92243 50.4027L6.11318 51.4742C5.59148 50.3584 5.09766 49.6906 5.1335 48.3763C5.15474 47.6226 5.18129 46.9239 5.18793 46.1823C5.20917 43.5015 5.89946 43.759 6.93489 41.7876C7.35836 40.9816 7.50438 40.0134 8.1044 39.2865L7.31986 39.5655L7.38624 39.9557L5.98309 40.8958L6.37868 41.0943C6.1384 41.4711 5.2012 42.1068 5.05385 42.4367C5.0273 42.4957 5.02067 42.6566 5.1189 42.6352L5.84769 42.1658C5.36979 42.6861 4.88792 43.2454 4.7857 43.9749L4.5295 43.7831L4.79367 43.2387L4.51622 43.1032C4.718 42.6741 4.95562 42.2583 5.08439 41.797C5.13616 41.6133 5.32599 41.5382 4.98748 41.565C2.9644 43.7174 1.78427 46.5283 2.00463 49.5323C2.04844 50.1251 2.34712 50.7205 2.26747 51.3428L1.92498 51.092C1.6794 50.9794 1.68736 50.1586 1.40859 50.274C1.28248 50.3263 0.908133 50.8748 0.832467 51.0317C0.232446 52.2762 1.29708 54.4554 2.08694 55.48L5.98043 57.1054C6.12646 56.459 5.32731 56.7044 5.31537 56.168L4.92243 56.4362L4.58924 55.366L4.39277 56.0339C4.26931 55.7844 4.31843 55.2721 4.19365 55.0924C4.11134 54.9744 3.87771 55.0012 3.77682 54.9141C3.06396 54.2918 2.92989 53.4885 3.13166 52.5538L4.59189 54.2945C4.83216 54.1725 4.22949 53.6213 4.72198 53.624C4.7711 53.624 4.90916 54.2932 5.2543 54.4286C5.38174 54.1537 5.36183 54.1148 5.71759 54.1604V54.8296L6.24726 54.2945C5.59281 57.6271 9.42259 57.2864 11.4749 56.5636L11.8147 57.041L11.1536 57.5077C11.9156 57.505 12.7692 57.2113 13.3413 56.7071C13.648 57.7424 15.3644 56.7312 15.2038 57.9167C14.9237 58.366 13.336 58.2171 12.89 58.0938C12.6019 58.0146 12.586 57.7773 12.5329 57.7759C12.2687 57.7706 11.9289 57.9516 11.4842 57.9114C11.143 57.8819 10.8045 57.6499 10.5536 57.6539C9.86995 57.6646 8.75221 58.6932 7.83758 58.1769C7.73138 58.5242 8.00219 58.3982 8.10175 58.5403C10.8377 62.4643 12.57 63.6485 16.9892 65.475C18.9473 66.2837 22.0907 66.6713 24.0156 65.6132C24.1988 65.5126 24.224 65.3691 23.9466 65.4093C23.4633 65.4804 22.9629 65.8867 22.4226 65.8116C22.2062 65.3315 23.7103 64.4773 23.4819 64.205C22.5222 64.6235 21.4934 64.9627 20.434 64.8729L23.3505 63.3977L23.2855 63.1322C22.6947 63.0933 22.0098 63.0839 21.4296 62.9967C21.1987 62.9619 21.2066 63.0665 21.2305 62.7325C22.7877 62.518 24.3859 62.0754 25.8714 61.5242C25.9683 60.9704 25.2448 61.4411 24.974 61.4907C24.3594 61.6034 23.7368 61.6516 23.1209 61.7643C22.8647 61.8112 22.9616 61.7562 22.9536 61.5269C24.1045 61.2694 25.4307 60.8121 26.336 60.0531L26.4024 61.7938C26.9188 61.5859 26.417 60.7813 26.9294 60.5882C27.1046 61.0294 26.8896 61.8005 27.3276 62.062C27.1325 61.0696 27.8931 60.4876 27.6635 59.5166L26.032 59.4791L25.6046 59.3182L27.329 58.8488C25.9471 58.7053 25.1001 59.6642 23.8138 59.7835C22.3934 59.9149 21.2757 59.4818 19.9694 59.3866C18.2357 59.2605 18.6419 60.2529 17.7817 61.1916C17.3012 61.716 15.0843 63.104 14.4033 63.1389C14.1391 63.1523 14.1909 63.1067 14.2028 62.868C15.1414 62.6883 16.0056 62.0821 16.7251 61.4625C16.9308 61.2842 17.4432 60.8711 17.5746 60.7129C18.2145 59.9471 18.2185 58.5739 19.5606 58.7227C20.9743 58.8796 22.5169 59.687 24.0435 59.2109C24.5904 59.0406 24.9382 58.606 25.4001 58.4384C26.2683 58.1219 27.4259 58.2748 28.1122 57.4205L27.9861 56.7111C27.7285 56.4912 26.5697 57.3964 26.1727 57.4782C25.6709 57.5815 25.1492 57.446 24.6435 57.5399C24.2266 57.6177 23.8085 58.0039 23.4288 58.1152C21.5558 58.6637 19.907 57.9033 18.1972 57.1577C17.7472 56.9619 17.3092 56.6226 16.8565 56.4335L16.9215 56.168C17.2667 56.1599 17.4764 56.0526 17.5839 56.4362L17.9145 56.0365L16.587 54.56C15.7321 55.3781 15.0803 54.5386 14.1736 54.2556C12.9975 53.8881 11.7059 53.978 10.6903 53.0862L11.301 54.2757L12.213 54.1604C12.2714 54.5104 12.1599 54.3991 11.9275 54.4661C10.5841 54.8484 9.89783 54.0692 10.4912 52.822L9.96022 52.5538C11.1496 52.5565 11.9355 52.3245 13.113 52.649C14.3913 53.0017 15.3524 53.8841 16.4556 54.5614C16.5658 54.4259 15.6856 53.1492 15.5184 53.0312C15.1122 52.7415 14.4152 52.9373 14.0701 52.4854C16.0879 51.4836 16.133 53.0325 17.1193 54.0933C18.5118 55.59 22.1412 56.0647 24.078 55.8998C26.5431 55.6906 27.2188 54.5801 27.1975 52.1515C27.5812 52.24 27.3701 52.7174 27.4936 52.9253C27.617 53.1331 28.0817 53.1653 27.8586 53.8935C30.4406 54.1698 30.2547 53.1827 28.9166 51.552C28.1148 50.5757 25.509 48.7719 25.2103 47.7943C25.1891 47.7259 25.1745 47.5757 25.274 47.5972L26.2696 48.5332C26.3506 48.4501 25.6086 47.7071 25.5382 47.5985C25.4161 47.4081 25.4187 47.2793 25.6709 47.3303L26.4011 48.1323C26.2683 47.3289 25.8714 46.2601 25.4001 45.5949C24.5532 44.4014 22.4133 44.109 21.0726 44.4202C20.1075 44.6441 16.6268 46.3634 17.6397 47.6736C18.0539 48.1671 18.3114 47.577 18.7136 47.6629C18.4946 48.3079 17.5919 48.3643 17.7844 49.2011C19.1039 48.6285 19.7172 46.9816 21.3633 47.1251C21.0646 47.4228 20.6093 47.404 20.2562 47.6146C20.1619 47.6709 18.7734 48.8242 18.7083 48.902C18.3884 49.2816 17.6954 51.3522 17.5136 51.9449C17.3729 52.4036 17.2295 52.8662 17.2521 53.3557C16.887 53.1962 17.049 52.6007 16.9866 52.2842L16.591 52.5511L16.8552 51.7491L16.3255 51.8819L16.3042 51.501L15.9259 51.4782L16.3242 50.6763C15.229 50.4563 14.3953 51.6754 13.4356 51.8511C12.9935 51.9329 12.2461 51.7438 11.751 51.8819L11.6859 51.615C12.3099 51.2167 13.0148 51.4165 13.6679 51.1456C16.9494 49.7845 18.1933 45.2261 17.1273 42.0491C17.0675 41.8735 16.6122 42.198 16.6653 41.4121C16.6945 40.9857 17.3543 38.7689 17.5468 38.3116C17.7393 37.8543 18.4309 37.0563 18.4534 36.6795C18.472 36.3616 18.2623 36.4273 18.0512 36.5427C16.9348 37.1488 16.3985 38.8869 16.1901 40.0241C16.1503 40.244 16.275 40.2548 15.9299 40.2253C15.837 39.1564 16.0919 38.1319 16.5684 37.1877C16.9215 36.489 17.7791 35.8936 17.3994 35.0568C17.0423 34.2709 16.5671 35.4162 16.591 35.8051L16.1954 35.671L16.3255 36.4743L15.9299 35.8051C15.9286 36.4233 16.0321 37.6222 15.2662 37.8127C15.6219 37.2548 15.4746 36.8109 15.3989 36.2074L15.7945 36.8753C15.9206 36.5266 15.6233 36.0103 15.6564 35.7541C15.6684 35.6643 15.9047 35.6817 15.9272 35.5811C16.0414 35.0809 16.0666 35.0072 16.1848 34.633C16.3746 34.0335 16.3388 32.5691 17.2428 33.0049L17.6543 35.0004H17.9171C17.6304 34.582 17.6158 34.1596 17.653 33.6607L18.1813 34.464L18.0512 32.722C18.5915 33.2329 18.3313 34.2575 19.1092 34.5968C19.0959 34.181 18.7335 33.9531 18.6127 33.5588C18.5716 33.4247 18.2981 31.6276 18.7123 32.1842C18.5676 32.8829 19.1384 33.5843 19.2207 34.1623C19.2977 34.7 19.0136 35.0299 19.7079 35.5329C19.9721 35.0527 19.5234 34.6451 19.4039 34.232C19.3681 34.1086 19.2765 33.7573 19.5061 33.7935C19.8831 34.9227 20.6212 36.6781 22.0881 36.4756C22.4107 36.4314 22.5434 35.966 22.9562 36.0706L22.6921 36.6044C23.231 36.6366 23.6054 36.6553 24.0222 36.2758C24.3328 35.9928 24.2797 35.5141 24.6793 35.5342L24.1497 36.7385C24.528 36.8592 24.4165 36.422 24.6143 36.3375C24.9143 36.2114 24.6368 36.7599 25.2169 36.5467C25.3537 36.4971 25.9577 36.0492 26.0705 35.9338C26.4342 35.561 26.405 35.262 26.6666 34.928C26.7953 34.7644 27.8454 33.6553 27.994 33.7921C27.8294 34.3701 27.0396 34.8543 27.1312 35.3974L27.7272 34.9964C27.9011 35.219 26.9042 36.0545 26.5298 35.8641L26.4196 36.0156L26.5298 36.945L27.1975 38.0769C26.4661 38.3075 26.0413 36.6017 25.8063 36.6071C25.3802 37.0349 24.8638 37.3876 24.9435 38.0796C24.3793 38.2163 25.0125 37.4908 24.6103 37.4104C24.3594 37.3594 24.1828 37.8368 24.2028 38.0138C24.2174 38.1466 24.6992 38.8976 24.763 39.1618L25.6856 38.8882L25.5409 37.9468C25.9431 38.5449 26.4462 38.9741 27.1697 39.1175C27.6117 39.2061 28.0737 38.8252 28.5728 39.2584L29.5658 38.2619C28.7799 37.0845 29.052 36.0425 28.9219 34.8006C28.8171 33.7975 28.2449 32.7823 28.8582 31.7845C28.7865 32.5637 29.2127 33.3389 29.3149 34.0013C29.4171 34.6638 29.3122 35.3706 29.4914 36.1001C29.6972 36.9423 30.3251 37.5257 30.1193 38.4819C30.5189 38.2995 31.3565 38.0889 31.4203 37.582C31.476 37.1328 31.2265 36.9021 31.1893 36.5293C31.0977 35.6348 31.1972 34.6424 31.0061 33.7653C30.7472 32.5771 29.9507 31.6947 30.6503 30.4448L30.6716 31.5485C31.1096 32.3706 31.4256 33.2128 31.5597 34.1448C31.699 35.1077 31.4428 36.3509 32.1703 37.1381C32.4185 36.9718 32.9216 36.6714 33.0066 36.3791C33.1208 35.9888 32.9429 34.2454 32.8393 33.7895C32.6004 32.7448 31.7654 31.4251 31.869 30.4153C31.8796 30.3107 31.938 30.0049 32.1052 30.0452C32.1305 30.9906 32.688 32.2419 33.1447 33.0827C33.4234 33.5977 33.6982 33.9732 34.3606 33.9303C34.4881 34.5324 33.5482 33.9397 33.4327 34.0644L33.5668 35.5382L33.5628 35.5355ZM71.4279 35.9928C57.7787 24.7922 37.0886 32.1708 32.8287 49.1971C27.6117 70.0494 50.3289 86.8343 68.526 75.749C82.9159 66.9837 84.5646 46.7751 71.4279 35.9928ZM104.899 37.4104L103.313 35.1962L101.056 33.3912C100.958 33.8981 101.495 34.11 101.627 34.3648C101.896 34.8918 102.01 35.6535 102.239 36.1471C102.772 37.2964 104.554 38.0273 104.999 39.5212C105.012 39.5655 105.146 40.3701 105.147 40.4157C105.152 41.0487 104.696 42.0532 104.693 42.5668C104.692 42.8766 105.212 43.9494 105.33 44.4067C105.818 46.291 105.093 48.202 104.238 49.8663C104.965 49.7804 104.847 48.7129 105.233 48.261C105.62 48.611 104.647 49.539 105.297 49.4653L105.698 47.8587L105.961 48.9288C106.246 48.4058 105.969 47.6106 106.091 47.1479C106.132 46.995 106.431 47.0071 106.456 46.8649C106.546 46.3567 105.815 45.3468 105.829 44.7769L107.022 45.8471C107.242 44.5033 106.939 43.3406 106.423 42.1001C106.025 41.1412 105.948 41.384 105.783 40.3084C105.63 39.3066 104.805 37.9173 104.238 37.0724L104.899 37.4077V37.4104ZM79.7047 38.616C79.8202 38.2807 78.7595 36.9745 78.5883 37.0134C77.1174 38.0688 76.1869 40.3339 78.9905 39.0183L78.9109 38.6173L79.3078 38.8829L79.0449 37.9468L79.706 38.6146L79.7047 38.616ZM32.7172 37.9951C32.5752 37.869 32.1278 37.5699 31.9738 37.6839L31.4402 38.8842L31.9685 38.3491L31.7043 39.017L32.3668 38.7514L31.9805 39.6003C32.3827 39.8967 32.9814 40.7228 33.2615 39.9866C33.511 39.3308 33.223 38.447 32.7172 37.9951ZM106.357 39.5534L106.095 39.6178C106.222 40.6571 106.501 41.4993 107.284 42.2329L106.357 39.5534ZM27.2493 48.8752C27.1391 48.7585 27.098 48.552 26.9307 48.5306L27.0515 49.2722C27.4126 49.421 29.4675 51.7156 29.7145 51.4769C29.5206 51.2489 29.3056 50.4376 29.1489 50.3075C29.0321 50.2109 28.5436 50.1197 28.2635 49.928C27.921 49.6933 27.5533 49.1971 27.248 48.8765L27.2493 48.8752ZM30.6463 53.6186L31.2596 53.4295C31.2782 51.9275 31.8743 50.3625 32.0136 48.9034C32.0296 48.7411 32.1769 48.7129 31.9061 48.5332C31.338 48.7263 29.8366 49.3151 29.7397 49.9642C29.6892 50.3021 30.0092 50.8064 30.0769 51.1778C30.2083 51.8953 30.2786 52.6302 30.3795 53.3517L30.6424 53.2149L30.645 53.6186H30.6463ZM83.3792 52.991C83.0645 52.7201 82.9491 53.0325 82.8203 53.0258C82.6756 53.0191 82.5521 52.877 82.4313 52.8797C82.0304 52.8877 81.5897 53.0191 81.1636 52.9507C80.9432 53.5636 81.5897 54.1537 81.5751 54.6298C81.5658 54.9261 81.2579 54.8296 81.1835 55.0428C81.0547 55.417 81.2326 56.1385 81.1649 56.5676C81.3587 56.7782 83.9832 54.8577 84.0801 54.6244C84.1849 54.3696 83.6141 54.324 83.4694 54.3066C82.5508 54.202 81.8061 54.6043 81.9614 53.219L82.2269 53.7554C82.742 53.6642 83.1588 53.2941 83.6832 53.6213L83.3805 52.9923L83.3792 52.991ZM29.1861 54.8269C28.5821 54.784 28.2436 55.3311 27.8613 55.6959C28.0976 56.0875 28.5516 56.0862 28.8768 56.2753C29.202 56.4644 31.0857 57.7357 31.3048 57.5037L31.172 54.8256C30.941 55.0254 29.9959 55.8045 29.9813 55.0965L30.3782 54.8269L29.1197 55.0951L29.1861 54.8269ZM28.5224 60.3173L29.433 58.2171L28.9219 57.6391C28.8237 58.5605 27.5626 57.9999 27.4617 58.8448C29.4264 57.847 28.3949 59.1787 28.2675 60.1282C28.1653 60.8886 28.221 61.6221 28.918 62.0593L29.0534 60.5855L29.3029 60.6995L29.449 60.454C29.3189 60.7853 29.6906 60.8698 29.7105 60.9502C29.814 61.3713 29.7848 62.1304 29.8499 62.5957L30.1127 61.3915L30.3795 63.8027C30.5999 63.7974 30.6676 63.8899 30.6198 63.6284C30.5654 63.3347 30.0556 62.2497 30.6437 62.3275L30.9105 63.9341C31.1561 63.9663 31.0101 63.6632 30.9835 63.5265C30.9371 63.2824 30.5879 62.5917 30.9079 62.463L31.4415 64.606C31.6645 64.6127 31.7322 64.6771 31.7004 64.4116C31.6433 63.9194 31.1747 63.3722 31.3725 62.864L31.5729 63.5318L31.9672 63.2649L32.1026 63.9328C32.246 64.0495 32.246 63.3843 32.4331 63.7987C32.5646 64.0884 32.5566 64.7093 32.8951 64.8702C32.6269 62.9605 31.9221 61.1662 31.5384 59.2779C30.9649 58.8273 30.6928 59.5756 30.1114 59.5113L30.5083 58.9091C29.9999 58.4773 29.3653 60.3602 29.2498 60.3159C28.9697 60.1174 29.1171 60.0759 29.1808 59.8506C29.3136 59.3852 29.5764 59.0955 29.7795 58.7093C29.891 58.4988 29.8538 58.3405 29.6481 58.4424C29.3706 58.5792 29.0308 59.7191 28.8516 60.0558C28.752 60.2435 28.8609 60.3843 28.5197 60.3159L28.5224 60.3173Z" fill="#5F6270"/>
<path d="M94.607 59.1984C95.0676 59.5591 95.0503 60.1934 95.8136 60.1881C96.0539 60.1867 96.3539 59.9493 96.5451 60.1156C95.9849 60.7097 95.3716 60.4241 94.8286 59.9748C94.7092 59.8756 93.8503 59.0415 93.8224 58.9744C93.7574 58.8148 93.8862 58.21 93.9658 58.0464C94.0375 57.8975 95.572 56.2239 95.7539 56.1032C97.1477 55.1819 99.4416 55.0585 100.579 53.342L101.182 51.8789C101.738 53.6062 100.373 54.7917 98.9796 55.4783C98.0676 55.9275 96.7017 55.9959 95.945 56.5645C95.6411 56.7939 94.4171 58.4675 94.4224 58.7639L94.6056 59.1984H94.607Z" fill="#5F6270"/>
<path d="M102.91 41.0256C102.502 41.0926 102.699 40.9196 102.65 40.6916C102.575 40.3389 102.58 39.9527 102.363 39.6376C102.167 39.3506 101.02 38.8705 101.649 38.7511L102.247 39.2862C102.269 38.5352 100.893 38.2161 100.258 38.2134C100.121 37.6676 100.859 38.1691 100.921 37.8137C100.202 37.6448 99.1723 37.8124 98.6121 37.276C98.5736 37.2384 98.6453 37.0949 98.6108 37.0467C98.0824 36.2997 97.5156 35.6023 97.7413 34.5979C98.1342 34.8433 98.0665 35.4012 98.4103 35.7284C98.713 36.0154 99.3674 36.1777 99.7205 36.415C100.506 36.9434 102.269 38.1638 102.581 39.018C102.817 39.663 102.681 40.3859 102.912 41.0269L102.91 41.0256Z" fill="#5F6270"/>
<path d="M87.5276 45.3142L82.4222 49.8698C82.1368 49.2971 82.7913 48.5542 83.2187 48.2592C83.6461 47.9641 83.974 48.0459 84.3709 47.8153C84.8037 47.5631 85.2245 46.7746 85.628 46.4058C86.1258 45.9525 86.8811 45.5006 87.5289 45.3129L87.5276 45.3142Z" fill="#5F6270"/>
<path d="M94.9561 30.7113C95.0822 30.8574 95.0995 30.1668 95.3517 30.4457C95.4048 30.5047 95.211 30.7072 95.2521 30.8212C95.2641 30.8548 95.6716 31.2584 95.7539 31.3281L95.2641 32.173L94.1557 31.9169L94.2778 31.5762L94.0203 31.4475C94.4862 30.9151 94.0827 30.2633 94.4902 29.7752L94.9548 30.7113H94.9561Z" fill="#5F6270"/>
<path d="M101.981 43.438L102.313 42.2365L102.517 43.6352L102.194 43.9678C100.571 43.8189 99.3222 43.8444 98.6678 42.0997C99.1045 42.1144 99.22 42.628 99.5293 42.9016C100.273 43.5587 101.053 43.4555 101.981 43.438Z" fill="#5F6270"/>
<path d="M85.5391 59.515C85.6121 59.8718 85.4475 59.7457 85.2775 59.8476C84.6151 60.2446 83.3368 61.0425 83.0209 59.9817C83.8227 59.6827 84.6749 59.4547 85.5391 59.515Z" fill="#5F6270"/>
<path d="M89.52 28.4342L89.5824 28.1687L90.6444 28.8379L90.4466 28.4355C90.5807 28.3323 91.2457 28.8808 91.3771 29.0337C91.5895 29.2804 92.1417 30.1011 91.6413 30.1749L91.2391 29.2388H90.9762L91.2404 29.7082C91.2683 29.8007 91.101 29.8061 91.0426 29.7739C90.8462 29.6666 90.1997 28.7346 89.8466 28.5697C89.7895 28.5428 89.6289 28.5361 89.6501 28.6354L90.3112 29.3059C89.9475 29.3944 89.4988 28.8472 89.1032 28.6515C88.8961 28.5482 87.5102 28.1432 87.6603 28.0346C88.3744 27.8844 88.8656 28.3055 89.5187 28.4342H89.52Z" fill="#5F6270"/>
<path d="M89.8944 60.7486L89.982 60.9913L90.578 60.7191C90.74 60.8814 89.9382 61.6109 89.6939 61.631C89.5572 61.6418 89.0713 61.3078 88.7222 61.5211L89.8944 60.7486Z" fill="#5F6270"/>
<path d="M96.4123 33.2568H96.8119C96.6911 33.8696 95.7393 34.111 96.1481 33.3922H95.7486C95.7446 32.8008 96.0605 32.896 96.48 32.723L96.411 33.2568H96.4123Z" fill="#5F6270"/>
<path d="M91.5088 31.7842C91.5154 31.292 91.846 30.9192 91.98 30.4525C92.0849 30.0891 91.8991 29.5446 92.3013 29.373C92.3915 30.2393 92.1884 31.2008 91.5088 31.7842Z" fill="#5F6270"/>
<path d="M84.8739 47.055L84.6177 47.0442L84.5898 46.8149L84.3469 46.7224L84.8792 45.9848L85.2071 46.2503L85.6717 45.8494L84.8739 47.055Z" fill="#5F6270"/>
<path d="M89.2519 33.5261C89.0939 33.514 88.9691 33.6401 89.0156 33.3558C89.1257 32.696 89.3116 32.0644 89.3182 31.3831C89.8306 32.0107 89.2917 32.8435 89.2519 33.5261Z" fill="#5F6270"/>
<path d="M91.5086 52.2798L91.8392 52.0129C91.8737 52.493 91.3427 53.2265 90.9777 53.6195L91.3759 52.0129L91.5086 52.2798Z" fill="#5F6270"/>
<path d="M96.4681 39.7744C96.5185 39.8615 96.8026 39.824 96.6778 40.2236C96.4083 40.5186 95.5893 38.613 95.6185 38.3488C95.9968 38.7136 96.1973 39.305 96.4681 39.7744Z" fill="#5F6270"/>
<path d="M17.6502 59.7819L17.5759 59.3702C16.9719 59.4266 16.3214 59.322 15.7267 59.381C15.0683 59.4453 14.4072 59.8275 13.8616 59.908C13.1621 60.0099 12.4293 60.0797 11.7417 60.1776C11.301 60.2392 10.8058 60.1507 10.3572 60.1829C10.2496 59.7216 10.9731 59.967 11.3222 59.8866C11.5811 59.8262 11.8081 59.5835 12.0483 59.5379C12.428 59.4655 12.6669 59.6666 12.943 59.6492C14.0116 59.5794 14.7391 59.0752 15.6882 58.8043C16.1236 58.6796 18.3232 58.0413 18.4148 58.638L17.6529 59.7819H17.6502Z" fill="#5F6270"/>
<path d="M15.7916 46.7882C15.7943 46.7801 15.8978 46.8311 15.9257 46.705C16.0691 46.0734 16.0067 45.4123 15.9894 44.7793C16.4872 44.9912 16.0611 47.5137 15.793 47.1892C15.785 47.0564 15.7983 46.921 15.793 46.7868C15.7903 46.7949 15.704 46.7587 15.6629 46.8767C15.5554 47.1838 15.5978 47.6719 15.4638 47.9951C15.2885 48.4202 15.2341 47.6947 15.1319 47.8597L14.5345 49.0666L14.4005 48.6643C14.2691 48.7984 13.7739 49.6607 13.5376 49.4663L13.7367 48.9325C13.3571 49.6379 12.5527 49.7237 12.0814 50.0724C11.0792 50.8127 11.5451 52.6969 9.2911 51.9486C8.30878 51.6213 7.88002 50.7966 7.43665 49.933L7.70214 49.8699C7.80435 49.0841 7.99683 49.9021 8.15082 50.0148C8.3725 50.177 8.65658 50.1006 8.89021 50.2092L9.95483 51.0742C8.82118 51.3169 8.46011 50.4439 7.70081 49.8699C8.28356 51.2901 9.82739 51.9003 11.0194 50.7456C11.2823 50.4908 11.431 50.0282 11.6433 49.8659C11.8916 49.6768 12.3668 49.6245 12.6535 49.4502C13.0956 49.1806 13.9651 48.4162 13.9332 47.861C14.6155 47.8127 13.8005 48.5289 13.9969 48.7984L14.7934 47.1918L14.8571 48.1279L15.1253 46.7895L15.5208 47.0564L15.5235 45.4498C15.6854 45.2339 15.7638 45.4498 15.7877 45.647C15.8315 45.9983 15.7691 46.4207 15.7877 46.7882H15.7916Z" fill="#5F6270"/>
<path d="M13.6692 39.6883L13.1395 39.5555L13.393 39.8895C13.3784 40.4071 11.9594 39.9511 11.6143 39.9458C11.2691 39.9404 10.9612 40.1295 10.62 40.0893C10.7315 39.3249 11.066 39.5958 11.5784 39.4094C11.8174 39.3222 12.0802 39.227 12.3789 39.1224C13.1568 38.8515 13.6838 37.8926 14.4006 37.4125C14.4324 38.1877 13.6585 38.9078 13.6692 39.6896V39.6883Z" fill="#5F6270"/>
<path d="M14.7312 43.8415C14.6183 44.0588 14.3887 44.2935 14.1922 44.4343C13.1249 45.2041 11.0541 46.4955 9.75984 46.5277C8.79345 46.5518 8.30495 46.0167 7.43414 46.8495C7.13546 47.1352 6.85935 47.5549 6.90714 47.9921C6.40005 47.8459 6.6828 46.5585 7.00803 46.3842C7.63458 46.0462 8.92753 46.2715 9.62975 46.183C10.3877 46.0878 11.4284 45.7633 12.1121 45.4106C12.9736 44.9667 13.8099 44.2103 14.7325 43.8402L14.7312 43.8415Z" fill="#5F6270"/>
<path d="M16.6905 57.5314C17.0409 58.1684 15.9537 58.21 15.5276 58.3065L16.0573 57.7058C14.8068 56.9118 13.8763 55.3951 12.1838 55.8699L11.1523 55.4957C12.0975 55.5748 12.8873 55.2422 13.8033 55.5628C14.1869 55.6969 15.4281 56.5015 15.7838 56.7764C15.9139 56.877 16.6626 57.4791 16.6905 57.5314Z" fill="#5F6270"/>
<path d="M10.8854 37.5455C10.9717 37.634 9.8872 39.0313 9.75446 39.2808C9.51021 39.7408 9.39604 40.2893 9.16374 40.7586C9.26595 40.8592 11.289 39.8279 11.5492 40.4904C10.5735 40.595 9.64959 40.701 8.7655 41.1609C8.9925 39.9124 9.31241 39.0381 10.1779 38.0966C10.2655 38.0014 10.7872 37.4435 10.8868 37.5455H10.8854Z" fill="#5F6270"/>
<path d="M20.0373 32.8557C20.247 31.8083 21.2838 31.3953 21.9581 30.7154L22.0245 31.1137L23.8803 30.3117C23.8869 30.8066 23.2073 30.7757 22.8634 30.9568C22.3856 31.2075 21.1643 31.7279 20.8935 31.9076C20.5723 32.1208 20.4568 32.7095 20.0373 32.857V32.8557Z" fill="#5F6270"/>
<path d="M6.77568 45.1788C6.89781 45.3075 7.70225 44.7309 7.57083 45.3129L6.7186 45.4309C6.13319 45.2928 6.90312 43.7492 7.11418 43.4462C7.34516 43.1163 7.78057 42.7555 8.09915 42.4994C7.75136 43.4408 6.70931 44.0684 6.77568 45.1775V45.1788Z" fill="#5F6270"/>
<path d="M27.0622 52.2811C27.0038 53.4585 26.7622 54.6574 25.7374 55.3615C25.817 54.9793 26.121 54.7687 26.2909 54.3825C26.5458 53.8072 26.6414 53.2104 26.794 52.607C26.8498 52.3843 26.6586 52.214 27.0622 52.2811Z" fill="#5F6270"/>
<path d="M25.0737 55.3588L25.9843 53.9359L26.5312 52.4138C26.5458 53.4773 26.1423 54.9323 25.0737 55.3588Z" fill="#5F6270"/>
<path d="M18.1934 53.3433L18.5571 53.3634L18.8399 54.8252C18.6222 54.3652 18.2226 54.4376 18.1947 54.4041C18.0102 54.1842 18.05 53.1462 18.0474 52.8163L18.1934 53.3433Z" fill="#5F6270"/>
<path d="M2.92854 54.1547C2.66703 54.1789 2.87942 53.8396 2.76526 53.6465C2.72544 53.5794 2.52234 53.5781 2.44535 53.4265C2.37897 53.2951 2.50906 52.2786 2.72942 52.1472C3.06925 52.1431 2.88473 53.8583 2.92721 54.1534L2.92854 54.1547Z" fill="#5F6270"/>
<path d="M14.9966 62.1915C15.3922 61.6055 16.1608 61.2649 16.6613 60.8599C16.8245 60.7271 16.7754 60.4375 16.9852 60.4522C16.8763 61.2702 15.7228 61.9609 14.998 62.1915H14.9966Z" fill="#5F6270"/>
<path d="M26.4915 34.556C26.4092 34.6767 25.9858 34.9758 25.8729 34.6647L27.1951 32.9897L26.4915 34.556Z" fill="#5F6270"/>
<path d="M24.6768 55.2262L25.8689 53.0845C26.0799 53.4681 24.9914 55.5266 24.6768 55.2262Z" fill="#5F6270"/>
<path d="M11.4151 44.6452C11.4841 45.026 11.3222 44.8637 11.123 44.9456C10.754 45.0984 10.3651 45.2191 9.95754 45.1789C9.85002 44.8919 10.3239 44.7457 10.4832 44.7095C10.8005 44.6371 11.0912 44.617 11.4138 44.6452H11.4151Z" fill="#5F6270"/>
<path d="M12.0788 58.9786C11.7098 59.464 11.1044 59.9549 10.4885 59.6451C10.385 59.1891 10.8894 59.452 11.1867 59.3487C11.5067 59.2387 11.7443 58.9906 12.0788 58.9786Z" fill="#5F6270"/>
<path d="M17.9131 54.0204C17.5321 54.0848 17.694 53.9386 17.6316 53.712C17.4458 53.0441 17.6104 52.67 17.6502 52.0129C18.0033 52.1604 17.767 52.7679 17.7803 53.1501C17.7909 53.4371 17.9622 53.7214 17.9131 54.0218V54.0204Z" fill="#5F6270"/>
<path d="M39.7421 71.0835C26.9281 57.6757 33.9796 36.0231 51.7223 32.2481C67.827 28.8217 82.3547 43.4042 78.7414 59.6779C74.7736 77.5527 52.556 84.4913 39.7421 71.0835ZM55.0144 33.565C38.7624 34.7008 29.1118 53.4621 38.7544 67.1931C50.4281 83.8168 76.405 76.083 77.4498 55.8277C78.1002 43.2125 67.4806 32.6933 55.0144 33.565Z" fill="#5F6270"/>
<path d="M53.313 67.5547L53.1856 70.497L54.3909 67.8283L55.9692 68.0871L54.4267 74.5268L53.4431 74.3056L54.2449 70.3642L52.6373 74.0964L51.9948 74.1125L52.1236 69.9632C51.9165 70.033 51.8634 70.5774 51.8143 70.788C51.6855 71.3539 51.3776 73.3829 51.1293 73.7155C50.9501 73.9555 50.4284 73.7155 50.2838 73.5023L51.7347 67.2905L53.313 67.5547Z" fill="#5F6270"/>
<path d="M48.7848 65.433C49.0211 65.842 47.7547 67.6283 47.7507 68.221C48.9786 67.3896 49.6609 65.2238 51.072 67.2139C50.5702 67.7691 47.6073 72.3796 47.2888 72.3783C47.1188 72.3783 46.4179 71.9049 46.4737 71.6957L48.6759 68.4879L45.8073 71.2786C45.4781 71.2357 45.1914 71.0922 45.2471 70.7274C45.287 70.4646 46.2547 68.8607 46.4472 68.445C46.5892 68.1379 46.7432 67.7463 46.8202 67.4164L44.7015 70.3037C44.521 70.4659 43.8626 70.1454 43.8998 69.9027L47.4109 64.8617L47.7839 64.7571L48.7861 65.4316L48.7848 65.433Z" fill="#5F6270"/>
<path d="M62.4473 56.9867L62.4672 58.0408C61.4106 58.4056 61.2725 57.4065 60.8716 57.1732C60.411 56.9049 59.88 57.1597 59.434 56.3471C58.8433 55.2689 59.0437 51.6976 59.9424 50.7361C60.7641 49.8577 62.1168 50.3056 62.5084 51.3664C62.9 52.4272 62.6902 54.9269 62.3385 55.9689C62.1725 56.4624 61.4955 56.8433 62.446 56.9867H62.4473ZM60.9566 51.349C60.7495 51.3838 60.6433 51.7392 60.5876 51.9229C60.3951 52.5666 60.2769 54.4696 60.3606 55.1455C60.3845 55.3373 60.496 55.9783 60.6778 56.0306L61.0747 55.8992C61.2672 55.7007 61.384 53.897 61.3986 53.4263C61.4119 53.0078 61.5858 51.2444 60.9553 51.3503L60.9566 51.349Z" fill="#5F6270"/>
<path d="M45.6271 56.9009C45.5262 57.2308 44.6036 57.0713 44.301 57.1021L44.5811 50.5524L45.7612 50.5377C46.0333 50.8153 44.9381 53.6435 46.3001 53.1594L46.555 50.5377H47.7497L47.4829 57.1008H46.2895L46.2709 54.5045L46.093 54.3315L45.6271 54.4897V56.9009Z" fill="#5F6270"/>
<path d="M57.9113 35.5781C60.0817 35.4521 59.7936 39.2714 59.4923 40.6339C59.2693 41.641 58.9002 42.4 57.7613 42.3786C55.9878 42.3451 56.0369 40.2691 56.098 38.9468C56.1498 37.7989 56.4192 35.6653 57.9126 35.5795L57.9113 35.5781ZM58.06 41.2615C58.3865 40.8994 58.4821 36.9728 58.2339 36.7985L57.7732 36.7328C57.6166 36.7676 57.4493 38.0202 57.4307 38.283C57.3896 38.8463 57.2728 40.9785 57.6219 41.3111C57.7294 41.4559 57.9777 41.3527 58.06 41.2628V41.2615Z" fill="#5F6270"/>
<path d="M43.6384 45.8506L44.4309 46.7236L45.4756 47.4746C45.5951 47.6677 45.0853 48.467 44.9008 48.3932L40.1804 44.299C40.1777 43.9289 40.5401 43.548 40.9065 43.5708C41.6512 43.6164 43.1897 44.6531 44.0353 44.7778L41.7069 42.6348C41.5556 42.333 42.08 42.0233 42.2645 41.8409L46.9464 45.9351C46.6703 47.72 44.6858 45.978 43.6397 45.8493L43.6384 45.8506Z" fill="#5F6270"/>
<path d="M62.9982 39.9552C63.5584 39.239 63.7708 38.1407 64.0601 37.2757L64.9867 37.5453L62.6743 43.6645L61.9375 43.3722V39.9565C61.5327 39.8841 61.7344 40.0799 61.6601 40.273C61.3296 41.138 61.0123 42.015 60.7362 42.8988C60.6101 42.9913 59.6251 42.7311 59.8362 42.3328C60.3034 41.6985 61.6986 36.7849 61.9548 36.6253C62.1446 36.5073 62.8349 36.7366 62.9982 36.9432V39.9578V39.9552Z" fill="#5F6270"/>
<path d="M44.934 62.4852C46.4593 62.3108 47.1628 64.1118 46.1553 65.3376C45.0999 66.621 40.4764 69.3634 40.5773 66.0094C40.6171 64.6764 43.742 62.6219 44.934 62.4852ZM45.6269 63.8007C45.396 63.8021 45.1995 63.676 44.9606 63.7256C44.626 63.7954 42.068 65.5065 41.8371 65.7989C41.6539 66.0296 41.6087 66.1811 41.6486 66.4788C42.4756 66.5445 43.2481 65.9357 43.9198 65.4918C44.1734 65.3242 45.9416 64.1373 45.6269 63.8007Z" fill="#5F6270"/>
<path d="M66.9755 55.8296C66.7525 57.1881 64.6671 57.4885 64.0551 56.5028C63.4431 55.5172 63.9224 51.73 63.925 50.4037H65.1197C65.2618 51.844 64.8874 53.3393 65.0228 54.7541C65.06 55.135 65.0334 56.2038 65.5817 56.0295C65.7702 55.9141 65.7675 55.7639 65.7888 55.5695C65.9706 53.8918 65.8737 52.0962 65.9135 50.4051H66.9755C66.7857 52.0425 67.2317 54.2687 66.9755 55.831V55.8296Z" fill="#5F6270"/>
<path d="M46.1328 38.9161L50.2745 43.6419C50.3116 43.8967 49.5005 44.2468 49.2908 44.2521C49.1528 44.2293 48.8581 43.1726 48.1492 43.5038C47.22 43.937 48.4067 44.6249 48.2673 45.0903C47.8678 45.506 47.5041 45.8292 47.1894 45.1386L44.585 39.9956C44.5611 39.7462 45.87 38.7981 46.1315 38.9147L46.1328 38.9161ZM47.0886 42.903C47.2956 42.9151 47.8001 42.6952 47.7443 42.443L46.1593 40.76L47.0886 42.903Z" fill="#5F6270"/>
<path d="M64.6123 43.5976L63.861 44.4867L63.1322 43.9074L67.2393 39.211C67.5885 39.0179 68.4088 39.7743 68.7739 39.9567L66.0513 45.7889C65.8734 45.9498 65.1513 45.2981 65.13 45.227C64.9747 44.708 66.5623 43.7612 64.6123 43.5976ZM67.1066 40.8927L65.6637 42.4604V42.675C65.9783 43.1135 66.046 43.2047 66.3181 42.7072C66.6128 42.1681 66.9433 41.4882 67.1079 40.8941L67.1066 40.8927Z" fill="#5F6270"/>
<path d="M41.3683 62.8794L41.6404 63.7887C40.605 64.5115 38.716 64.5852 38.493 63.0269C38.3085 61.7382 40.8811 59.9948 41.9563 59.622C43.094 59.2264 44.6444 59.2251 44.7095 60.7887C44.7506 61.7999 43.0077 63.5634 42.7289 61.7409C42.7581 61.5907 44.2648 60.6882 43.4232 60.4602C43.0024 60.3462 40.0594 62.1593 39.8098 62.5428C39.6665 62.7628 39.5417 63.1463 39.8802 63.2509C40.3727 63.4038 41.0338 62.6675 41.3696 62.8794H41.3683Z" fill="#5F6270"/>
<path d="M55.5617 52.4031L54.5104 52.4138V51.4751C52.2776 51.6414 54.5741 53.2694 55.0201 53.9762C56.8958 56.9493 51.8608 58.8415 52.1249 54.9591L53.1683 55.1107C53.1962 55.521 53.2692 55.9368 53.6688 56.1406C54.0843 56.142 54.2608 55.8241 54.2515 55.4272C54.2263 54.3637 52.2842 53.9493 52.5351 51.9565C52.8298 49.6151 56.1471 49.953 55.5617 52.4031Z" fill="#5F6270"/>
<path d="M41.3871 54.4322L41.4614 56.8367L40.1897 56.9681L40.3224 50.7389L40.5401 50.4197C42.4902 50.4211 43.8309 50.3768 43.4924 52.8698C43.3172 54.1639 42.4676 54.231 41.3857 54.4322H41.3871ZM42.2778 51.6455C42.1464 51.4886 41.7309 51.3974 41.5809 51.6079C41.4574 51.7822 41.322 53.2561 41.5941 53.3419C42.3548 53.5605 42.6163 52.0478 42.2778 51.6441V51.6455Z" fill="#5F6270"/>
<path d="M71.2857 50.2707L71.4304 50.5443L71.3534 51.3435L69.9011 51.3502L69.7618 52.9514L70.8981 53.0762L70.9631 53.9452L69.7777 54.1731L69.7618 55.8991H71.3547L71.3335 56.748L71.1556 56.9692H68.6361C68.579 56.9692 68.4131 56.7587 68.4436 56.6474L68.7024 50.2707H71.2883H71.2857Z" fill="#5F6270"/>
<path d="M69.3624 59.3821L68.7027 60.7862L70.2797 61.513L70.5678 60.7285L71.6045 61.1858L71.2275 62.1822L72.8085 62.8621L73.4709 61.5788L74.2581 61.8054L73.2067 64.4701L67.2411 61.6539L68.4332 59.1702L69.3624 59.3821Z" fill="#5F6270"/>
<path d="M67.7536 62.3445C67.9381 62.665 67.1814 63.365 66.985 63.6172C66.9372 63.8867 67.9115 64.635 68.2367 64.6176L68.8965 63.9672C70.3328 64.5116 69.0292 65.1889 69.0969 65.4705C70.358 66.5246 70.3102 66.8692 71.4372 65.4289C71.8806 65.5214 72.3399 65.8111 72.0226 66.2845C71.8793 66.4991 70.5863 68.052 70.4708 68.0721L65.534 64.2421C65.3761 63.7057 66.7487 62.551 66.973 61.9864L67.1642 61.9301L67.7549 62.3432L67.7536 62.3445Z" fill="#5F6270"/>
<path d="M49.7381 54.4898C49.6492 53.7844 48.5686 50.8569 48.8116 50.405L49.9425 50.5337L50.4682 52.8175C50.6673 52.8175 50.9089 50.6812 51.3271 50.4694C51.6019 50.3299 52.1156 50.3339 52.1222 50.7309C52.1368 51.5368 50.9315 53.6463 50.9315 54.4912V57.1035H49.7381C49.6638 56.2761 49.839 55.2958 49.7381 54.4912V54.4898Z" fill="#5F6270"/>
<path d="M64.8062 64.615L65.5151 65.3418L64.7332 66.125L67.6191 70.1938C67.7678 70.7195 67.2302 70.8951 66.885 71.1513L66.577 70.9689L63.5956 66.7727L62.8177 67.2703L62.2097 66.5461L64.8062 64.6163V64.615Z" fill="#5F6270"/>
<path d="M51.4598 36.4726L51.5779 37.3939L50.8146 37.6956L52.5045 43.0196L51.4637 43.4393L49.6026 38.2133L48.6097 38.6102L48.2686 37.6286L51.4598 36.4726Z" fill="#5F6270"/>
<path d="M61.9376 67.8185C61.6363 67.8507 61.0177 67.903 61.0097 68.2785L62.4752 73.1156L62.45 73.4281C62.0757 73.5005 61.5235 73.9618 61.2965 73.4871L59.8124 68.4877L58.8367 68.7465L58.4783 67.9003L61.481 66.8824C61.7903 66.8033 62.0093 67.7367 61.9363 67.8185H61.9376Z" fill="#5F6270"/>
<path d="M66.4631 46.1348L71.3468 42.5501C71.7955 42.4241 71.9348 43.159 72.276 43.3695L68.1569 46.4432C67.7348 46.9676 68.6441 47.4115 68.6799 47.8124C68.214 49.5773 66.325 46.3748 66.4631 46.1321V46.1348Z" fill="#5F6270"/>
<path d="M56.7659 50.8731C56.7739 50.7913 56.831 50.499 56.8867 50.4681L58.0921 50.4037L57.9593 56.9695H56.7659C56.9 55.0049 56.5854 52.8083 56.7659 50.8731Z" fill="#5F6270"/>
<path d="M57.6791 68.1019L58.0919 74.6516H56.8972L56.495 68.4264C56.5733 67.9007 57.2755 68.1019 57.6791 68.1032V68.1019Z" fill="#5F6270"/>
<path d="M54.3777 35.9375L55.433 42.0446L55.3109 42.3035L54.3219 42.506L53.175 36.1507L54.3777 35.9375Z" fill="#5F6270"/>
</svg>
