<svg width="150" height="40" viewBox="0 0 150 40" fill="none" xmlns="http://www.w3.org/2000/svg">
<g clip-path="url(#clip0_342_1277)">
<path d="M63.0974 2.08136C63.2567 2.13189 63.6522 3.82572 63.7792 4.14306C63.8208 4.24817 63.8219 4.38663 63.9801 4.40077L64.7586 2.1804L66.2553 2.09652L67.0505 4.40179C67.2743 4.44524 67.1869 4.31184 67.2327 4.18046C67.469 3.49827 67.6573 2.78274 67.8301 2.08237H69.5985L67.9384 7.17801L66.3844 7.21439L65.4903 4.80402L64.6181 7.16487L63.061 7.21035L61.3811 2.08136H63.0974Z" fill="#5F6270"/>
<path d="M104.234 7.22248H102.31C102.061 7.04562 101.427 5.7995 101.3 5.73179C101.189 5.67216 101.032 5.72168 100.906 5.70955V7.22147H99.1375V2.08136H102.102C102.136 2.08136 102.699 2.20567 102.78 2.23093C104.372 2.72413 104.503 4.68578 103.092 5.467L104.234 7.2245V7.22248ZM102.233 4.37551C102.885 3.75093 101.428 3.28705 100.906 3.49221V4.50184C101.233 4.46748 102.001 4.59785 102.233 4.37652V4.37551Z" fill="#5F6270"/>
<path d="M84.0558 7.22245V2.23192L84.2119 2.08032H86.6037C86.8671 2.08032 87.7674 2.3724 88.0328 2.50984C89.5243 3.285 89.6347 5.48314 88.3742 6.51905C87.9912 6.83436 87.0877 7.22245 86.6037 7.22245H84.0558ZM85.8242 5.71054C88.0536 5.97027 88.0536 3.33351 85.8242 3.59325V5.71054Z" fill="#5F6270"/>
<path d="M44.5134 2.00455C47.7722 1.84183 48.6996 6.15423 45.6437 7.14162C41.4429 8.49891 40.2886 2.21577 44.5134 2.00455ZM44.6112 3.51646C43.1655 3.59125 43.2914 5.83082 44.6903 5.81566C46.1319 5.79949 46.1214 3.43864 44.6112 3.51646Z" fill="#5F6270"/>
<path d="M96.4334 2.08136V3.49221H93.7293V3.99652H96.2252V5.20625H93.7293V5.81163H96.4334V7.22248H91.9609V2.08136H96.4334Z" fill="#5F6270"/>
<path d="M54.829 2.08136V3.49322H52.177L52.0209 3.99753H54.6209V5.20726H52.177C51.9709 5.20726 51.9709 5.81264 52.177 5.81264H54.829V7.2245H50.3566V2.08136H54.829Z" fill="#5F6270"/>
<path d="M76.7751 3.49221H73.9669V3.99652H76.5669V5.20625H74.123L73.9669 5.81163H76.7751V7.22349H72.3026V2.08136H76.619C76.9375 2.43104 76.7106 3.04551 76.7751 3.49322V3.49221Z" fill="#5F6270"/>
<path d="M115.558 2.60083C115.713 2.86157 114.994 3.52657 114.882 3.80349C114.194 3.5478 113.645 3.27492 112.868 3.39216C112.844 3.61349 112.843 3.66099 113.044 3.7762C113.485 4.02987 114.435 4.03897 115.04 4.36338C116.004 4.87881 116.048 6.17849 115.208 6.81923C114.027 7.72072 111.949 7.25785 110.789 6.51503L111.686 5.42152C112.372 5.71056 112.859 6.00668 113.654 5.91572C114.062 5.86923 114.175 5.68429 113.761 5.50035C112.981 5.1537 111.369 5.27498 111.125 4.12386C110.615 1.72359 114.109 1.64679 115.559 2.59881L115.558 2.60083Z" fill="#5F6270"/>
<path d="M39.227 2.08136V5.76109C39.227 5.78838 39.075 6.21285 39.0407 6.28562C38.436 7.59237 36.0035 7.64391 35.2822 6.3796L36.3668 5.4104C36.5687 5.88742 37.5627 5.97838 37.5627 5.4579V2.08136H39.227Z" fill="#5F6270"/>
<path d="M81.2476 7.22248H79.4792V2.08136H81.0915L81.2476 2.23194V7.22248Z" fill="#5F6270"/>
<path d="M108.343 2.08136C108.654 2.17434 108.478 3.86615 108.345 4.20067C108.121 4.76056 107.337 5.12136 106.737 4.99907L106.671 4.49578C106.933 4.36742 107.296 4.28152 107.357 3.94801C107.41 3.65796 106.908 3.84189 106.731 3.7954V2.08136H108.344H108.343Z" fill="#5F6270"/>
<path d="M52.3841 9.23973L54.4138 14.4829C54.903 13.9089 55.2943 12.6607 55.2506 11.9088C55.1954 10.978 54.3794 10.1261 54.2056 9.23973H72.72L75.7894 17.2056L79.0129 9.23973H89.2578C88.8071 10.2423 87.834 11.0356 87.4405 12.0655C86.841 13.6309 87.4103 17.4633 87.6071 19.2592C87.8475 21.4523 88.0963 24.4983 88.5782 26.5853C88.8571 27.789 89.619 28.7107 90.4537 29.6041C91.327 28.7865 92.245 27.9426 92.474 26.7248C92.5271 26.4438 92.5718 25.8395 92.5906 25.5272C92.7904 22.2022 92.8081 17.4421 92.5906 14.1262C92.4511 12.0018 91.404 10.9457 90.2976 9.24175L102.627 9.23669C107.753 9.53281 111.358 12.6971 110.029 17.9322C108.922 22.2881 104.575 23.7151 100.386 22.6509V26.0284C100.386 26.3094 100.562 27.1755 100.667 27.4696C101.071 28.5985 102.432 29.4727 103.253 30.3115C103.39 30.452 103.663 30.736 103.715 30.9179H77.7118C77.6473 30.6804 77.7743 30.7481 77.8451 30.6875C78.2968 30.3004 80.2483 28.7865 80.3701 28.4034C80.3628 27.9618 80.392 23.8667 80.1568 23.8596L77.4027 30.8694L73.6734 30.9017L70.9537 23.9617C70.8756 25.0289 70.6352 26.1659 70.7455 27.2372C70.8746 28.4914 71.8603 29.2473 72.6138 30.164C72.7928 30.3813 73.0676 30.6552 73.1363 30.9179H60.6546C60.69 30.6905 60.9252 30.4449 61.073 30.265C62.5427 28.4803 63.4409 28.0346 63.952 25.5949C64.3662 23.6181 64.7003 21.3654 65.0053 19.3562C65.3186 17.2895 66.1169 13.4379 65.2489 11.5915C65.1479 11.3772 64.2434 9.77334 64.1373 9.74302C63.9176 9.68036 63.622 10.7244 63.4232 10.8648L57.3323 22.8065C57.4384 24.2336 57.0814 25.983 57.529 27.3423C57.9765 28.7016 59.5409 29.7122 60.3424 30.9159H46.4045C46.4399 30.6885 46.6752 30.4429 46.823 30.263C47.5848 29.3383 48.7724 28.4429 49.1575 27.2837C49.5864 25.9951 49.3876 24.1931 49.374 22.8439C47.7805 19.8747 46.6106 16.2717 44.8235 13.442C43.6921 11.6511 42.0476 10.6961 40.579 9.23771H52.3841V9.23973ZM51.6046 10.5505H44.1157C44.9786 11.3378 45.6687 12.2706 46.2505 13.2702C47.9158 16.1323 49.1034 19.4755 50.6439 22.4205C50.5929 24.9218 51.2319 27.6485 49.2117 29.6061H57.325L56.3705 28.0608C55.7512 26.2851 56.0125 24.367 55.9969 22.5215L62.1087 10.5505H56.2841C57.0991 12.4637 55.9677 14.6881 55.158 16.4668C54.9789 16.8589 54.7781 17.3511 54.5657 17.7119C54.5012 17.8221 54.5761 17.9575 54.3607 17.912L51.6035 10.5515L51.6046 10.5505ZM71.7312 10.5505H66.1669C67.1921 12.0725 67.0412 13.7088 66.8944 15.44C66.6186 18.6953 65.9036 23.1896 65.1833 26.3842C64.9148 27.5747 64.2257 28.6642 63.4628 29.6061H70.3271C69.5132 28.4762 69.331 27.3837 69.3862 26.0224C69.4382 24.7298 69.7057 23.1006 69.9285 21.809C70.0013 21.3886 70.2199 19.8969 70.3771 19.623C70.4822 19.4401 70.5623 19.5967 70.6248 19.6887C70.9349 20.1496 71.292 21.0096 71.522 21.5412C72.6575 24.1679 73.3133 26.9845 74.5019 29.592L76.5045 29.6122L80.8333 18.3142C81.029 18.3537 81.0217 18.5133 81.0425 18.6639C81.4588 21.6453 81.7586 24.844 81.7773 27.8415C81.7815 28.4661 81.5973 29.1513 81.1445 29.6051H88.6333C88.0775 28.7683 87.5633 27.9911 87.3125 27.0037C86.9628 22.6448 85.6211 17.6684 85.8272 13.3227C85.8741 12.3404 86.2352 11.3722 86.7619 10.5495H79.7935L75.7904 20.9348L71.7333 10.5495L71.7312 10.5505ZM92.3772 29.6061H100.491C100.233 29.2029 99.8983 28.8582 99.6735 28.4317C99.5506 28.2003 99.1385 27.223 99.1385 27.035V13.7259C99.4101 13.541 100.166 13.5016 100.525 13.5127C104.679 13.634 104.485 19.1137 101.706 20.853L100.283 21.237C104.12 22.5417 108.514 21.0743 108.914 16.7498C109.284 12.7507 106.589 10.7931 102.726 10.5515C99.4934 10.3494 96.0482 10.6991 92.7946 10.5515C93.4566 11.5632 93.8489 12.7234 93.9374 13.9291C94.1726 17.1369 93.9447 20.9763 93.8302 24.2083C93.775 25.7758 94.0634 26.9289 93.2671 28.4004C93.0298 28.839 92.6634 29.2008 92.3782 29.6061H92.3772ZM100.386 19.8262C102.326 19.9454 102.869 16.3122 101.9 15.2844C101.643 15.0115 100.386 14.5779 100.386 14.9367V19.8262Z" fill="#5F6270"/>
<path d="M13.0989 3.82472C14.9797 3.67818 17.0051 4.02786 18.7329 4.75552C33.6096 11.0195 28.8124 43.0819 11.4346 39.759C-4.34343 36.7422 -3.797 5.14461 13.0989 3.82472ZM13.0989 5.13552C-2.14415 6.32807 -2.60836 36.1106 11.954 38.5492C27.5738 41.1648 31.6216 11.2711 18.0064 5.86318C16.4368 5.23961 14.7944 5.00312 13.0989 5.13552Z" fill="#5F6270"/>
<path d="M40.1627 9.23969C39.6568 10.2756 38.6722 11.0588 38.1684 12.0957C37.9779 12.4869 37.6667 13.4227 37.6667 13.827V24.4134C37.7323 24.5135 37.8104 24.5438 37.9269 24.565C38.6597 24.6954 40.5405 24.4751 41.3284 24.3336C43.7046 23.9091 45.041 22.2173 46.9229 20.9358L43.9596 30.9169H26.7452C27.3854 29.9851 28.5698 29.1968 29.1194 28.2276C29.5409 27.4837 29.6367 26.5539 29.7657 25.7293C29.2172 21.996 30.7618 15.7189 29.4358 12.3292C29.0007 11.2165 28.0494 10.3332 27.5769 9.2407H40.1627V9.23969ZM37.5626 10.5505H29.9697C30.5901 11.4803 30.9846 12.5222 31.1126 13.6269C30.9273 17.5633 31.3645 21.717 31.1188 25.6272C31.0304 27.0299 30.6567 28.4853 29.7626 29.6051H43.0759L44.428 24.564C44.3666 24.4993 43.4642 25.044 43.282 25.1158C41.5095 25.8202 39.4892 25.89 37.6147 25.7737C37.189 25.7475 36.628 25.898 36.3157 25.6211V13.7239C36.3157 13.3489 36.6103 12.4252 36.7581 12.0361C36.9642 11.4985 37.2702 11.0376 37.5637 10.5485L37.5626 10.5505Z" fill="#5F6270"/>
<path d="M150 39.6882H133.046C133.807 38.3582 134.809 37.1737 135.179 35.6558C135.504 34.3217 134.86 32.0175 134.556 30.6127C134.102 28.5146 133.569 26.1426 132.955 24.094C132.915 23.9606 133.025 23.8141 132.788 23.8576C132 26.5438 130.93 29.2321 130.187 31.9245C129.719 33.6183 129.276 35.1605 129.981 36.8625C130.401 37.8802 131.23 38.6947 131.695 39.6872H117.238C120.249 36.7139 122.018 33.023 123.48 29.1533C126.521 21.1066 129.089 12.876 132.061 4.80399C132.953 2.87367 135.028 2.59372 136.244 4.37649L146.284 33.6638C147.126 35.8892 148.741 37.6952 150.002 39.6882H150ZM120.149 38.4785H129.302C129.145 38.0651 128.869 37.7094 128.702 37.295C127.841 35.1413 128.441 33.2332 129.042 31.119C129.824 28.364 130.784 25.605 131.666 22.8752C132.019 21.7787 132.394 20.2789 132.831 19.2662C132.875 19.1642 132.906 19.0318 133.045 19.0206C133.979 23.1632 135.273 27.2563 136.118 31.4181C136.491 33.2525 136.884 34.7169 136.298 36.5401C136.078 37.2253 135.683 37.8094 135.439 38.4795H147.504L145.344 34.8765L135.055 4.93335C134.194 4.08341 133.59 4.5867 133.205 5.51245L124.152 31.218L121.971 35.6578L120.149 38.4785Z" fill="#5F6270"/>
<path d="M122.645 9.23972C122.722 9.3044 122.301 9.80365 122.226 9.89259C120.768 11.6006 119.789 11.928 119.624 14.4283C119.403 17.7887 119.415 22.665 119.624 26.0315C119.642 26.3155 119.691 26.8703 119.741 27.128C120.004 28.461 121.202 29.6415 121.604 30.9169H109.33C109.739 30.0134 110.557 29.3605 111.049 28.4984C111.409 27.8658 111.619 27.2372 111.71 26.5176C111.481 22.3659 112.06 17.8291 111.726 13.7219C111.623 12.4566 111.016 11.7653 110.216 10.8507C109.764 10.3342 109.086 9.89967 108.811 9.23871H122.645V9.23972ZM119.732 10.5505H111.723C112.523 11.4449 112.973 12.5435 113.079 13.7229C112.834 17.8271 113.395 22.2648 113.074 26.3286C112.982 27.4949 112.597 28.6389 111.931 29.6071H119.42C119.011 28.7743 118.462 27.984 118.381 27.034C118.646 22.6458 118.024 17.8625 118.376 13.5218C118.47 12.3626 119.084 11.4783 119.732 10.5515V10.5505Z" fill="#5F6270"/>
<path d="M13.4069 9.97142C19.2762 9.14876 19.9757 19.5553 19.781 23.2077C19.6051 26.4984 18.3613 34.7927 13.1665 33.1403C8.86266 31.7709 8.22879 22.66 8.54416 19.0712C8.77627 16.4365 10.0888 10.4373 13.4069 9.97243V9.97142ZM13.5079 11.2792C12.6575 11.4318 11.7749 12.6668 11.4013 13.3702C9.20821 17.5017 9.35705 25.3594 11.3659 29.5404C12.3432 31.5738 14.4842 33.2565 16.3411 30.9644C18.5362 28.2539 18.7277 20.8863 18.1854 17.5866C17.8367 15.4652 16.5222 10.7385 13.5069 11.2792H13.5079Z" fill="#5F6270"/>
</g>
<defs>
<clipPath id="clip0_342_1277">
<rect width="150" height="39.9997" fill="white"/>
</clipPath>
</defs>
</svg>
