<svg width="169" height="45" viewBox="0 0 169 45" fill="none" xmlns="http://www.w3.org/2000/svg">
<g clip-path="url(#clip0_340_1132)">
<path d="M45.2802 37.69H41.9229V25.516C41.9229 20.2899 37.6752 16.0468 32.4444 16.0468H12.8367C7.60591 16.0468 3.35819 20.2899 3.35819 25.516V37.69H0V25.516C0 18.4565 5.75054 12.7122 12.8177 12.7122H32.4435C39.5106 12.7122 45.2611 18.4565 45.2611 25.516V37.69H45.2802Z" fill="#5F6270"/>
<path d="M45.2802 25.1276H40.4946C35.2637 25.1276 31.0151 29.1293 31.0151 34.3363V37.6719H27.6578V34.3363C27.6578 27.2768 33.4084 21.773 40.4755 21.773H43.5729" fill="#5F6270"/>
<path d="M27.0827 3.35458C21.8519 3.35458 17.6033 7.59772 17.6033 12.8238V37.69H14.246V12.8048C14.246 5.74526 19.9965 0 27.0645 0" fill="#5F6270"/>
<path d="M52.4027 10.8026H55.1113V12.7294C55.6682 11.4143 56.5587 10.5611 58.1533 10.6356V13.4701H58.0052C56.2061 13.4701 55.0922 14.5637 55.0922 16.8437V20.3644H52.4027V10.8026Z" fill="#5F6270"/>
<path d="M59.786 16.9735V10.7853H62.4936V16.1212C62.4936 17.4 63.106 18.0681 64.1255 18.0681C65.1458 18.0681 65.8137 17.4009 65.8137 16.1212V10.7853H68.5404V20.3271H65.8328V18.9757C65.2022 19.7717 64.4044 20.5132 63.0315 20.5132C60.9736 20.5313 59.786 19.179 59.786 16.9735Z" fill="#5F6270"/>
<path d="M70.2113 19.0864L71.3798 17.3066C72.4183 18.0481 73.4941 18.4565 74.4027 18.4565C75.1823 18.4565 75.5539 18.177 75.5539 17.715C75.5539 17.1232 74.6262 16.9372 73.5686 16.6032C72.2329 16.2129 70.7119 15.5839 70.7119 13.6942C70.7119 11.7483 72.2884 10.6736 74.2182 10.6736C75.424 10.6736 76.7596 11.0812 77.779 11.7855L76.7405 13.6579C75.7938 13.1024 74.8479 12.7684 74.161 12.7684C73.4932 12.7684 73.1597 13.0471 73.1597 13.4719C73.1597 14.0101 74.0683 14.2506 75.1078 14.6218C76.4434 15.0665 78.0007 15.7146 78.0007 17.4935C78.0007 19.6065 76.4061 20.5704 74.3473 20.5704C72.9744 20.5313 71.4915 20.0866 70.2113 19.0864Z" fill="#5F6270"/>
<path d="M79.0038 19.0864L80.1723 17.3066C81.2118 18.0481 82.2875 18.4565 83.1971 18.4565C83.9757 18.4565 84.3473 18.177 84.3473 17.715C84.3473 17.1232 83.4197 16.9372 82.363 16.6032C81.0264 16.2129 79.5054 15.5839 79.5054 13.6942C79.5054 11.7483 81.0827 10.6736 83.0108 10.6736C84.2183 10.6736 85.5531 11.0812 86.5734 11.7855L85.5331 13.6579C84.5881 13.1024 83.6423 12.7684 82.9554 12.7684C82.2884 12.7684 81.9541 13.0471 81.9541 13.4719C81.9541 14.0101 82.8627 14.2506 83.9012 14.6218C85.2369 15.0665 86.7951 15.7146 86.7951 17.4935C86.7951 19.6065 85.1996 20.5704 83.1416 20.5704C81.7678 20.5314 80.265 20.0866 79.0038 19.0864Z" fill="#5F6270"/>
<path d="M88.7604 7.33813H91.618V9.74606H88.7604V7.33813ZM88.8177 10.8025H91.5253V20.3453H88.8177V10.8025Z" fill="#5F6270"/>
<path d="M93.5098 17.5671C93.5098 15.4723 95.1053 14.5265 97.3677 14.5265C98.3335 14.5265 99.0177 14.6935 99.7046 14.9168V14.7489C99.7046 13.6189 99.0004 13.0072 97.6457 13.0072C96.6072 13.0072 95.8839 13.2114 95.0126 13.5263L94.3257 11.4506C95.3833 10.9877 96.4218 10.6918 98.0346 10.6918C99.5202 10.6918 100.595 11.0803 101.265 11.7665C101.967 12.4699 102.303 13.5263 102.303 14.8052V20.3462H99.6873V19.307C99.0186 20.0304 98.11 20.5114 96.7925 20.5114C94.9935 20.5314 93.5098 19.4949 93.5098 17.5671ZM99.7419 16.9735V16.4916C99.2785 16.2701 98.6661 16.1403 98.0173 16.1403C96.848 16.1403 96.1447 16.6032 96.1447 17.4918C96.1447 18.2151 96.7553 18.6599 97.6266 18.6599C98.8887 18.6608 99.7419 17.9556 99.7419 16.9735Z" fill="#5F6270"/>
<path d="M104.64 10.8025H107.348V12.1549C107.977 11.3589 108.776 10.6174 110.148 10.6174C112.207 10.6174 113.395 11.9697 113.395 14.1562V20.3462H110.688V15.0275C110.688 13.7487 110.073 13.0816 109.055 13.0816C108.015 13.0816 107.368 13.7478 107.368 15.0275V20.3643H104.658V10.8025H104.64Z" fill="#5F6270"/>
<path d="M52.867 30.4453H51.7349V28.2216H52.867V27.609C52.867 26.5534 53.1269 25.7938 53.6275 25.2937C54.1282 24.7936 54.8514 24.5521 55.8164 24.5521C56.6695 24.5521 57.2447 24.6647 57.7453 24.8117V27.0544C57.3555 26.9065 56.9848 26.833 56.5214 26.833C55.8909 26.833 55.5383 27.147 55.5383 27.8704V28.2407H57.7272V30.4462H55.5756V37.6727H52.867V30.4453ZM59.2672 24.6647H62.1239V27.0717H59.2672V24.6647ZM59.3408 28.1291H62.0494V37.69H59.3408V28.1291Z" fill="#5F6270"/>
<path d="M65.0359 34.8174V30.2974H63.9038V27.9802H65.0541V25.5351H67.7626V27.9802H70.0069V30.2974H67.7626V34.3726C67.7626 35.0034 68.0225 35.2993 68.634 35.2993C69.1346 35.2993 69.5798 35.1704 69.9696 34.9671V37.1354C69.3945 37.4676 68.7448 37.6909 67.8362 37.6909C66.1671 37.69 65.0359 37.0229 65.0359 34.8174Z" fill="#5F6270"/>
<path d="M72.0104 28.1482H74.718V29.5005C75.3486 28.7036 76.1463 27.9621 77.5192 27.9621C79.5781 27.9621 80.7657 29.3145 80.7657 31.5018V37.69H78.058V32.3523C78.058 31.0752 77.4447 30.4072 76.4253 30.4072C75.3858 30.4072 74.7371 31.0743 74.7371 32.3523V37.69H72.0295V28.1482H72.0104Z" fill="#5F6270"/>
<path d="M82.6573 32.7235C82.6573 30.0006 84.6063 27.7588 87.3875 27.7588C90.5804 27.7588 92.0441 30.2411 92.0441 32.9468C92.0441 33.1682 92.0259 33.4106 92.0069 33.6493H85.3486C85.6076 34.8727 86.4789 35.5217 87.6855 35.5217C88.5942 35.5217 89.2629 35.2431 90.0034 34.5406L91.5617 35.9111C90.6721 37.0229 89.391 37.69 87.6483 37.69C84.7726 37.7091 82.6573 35.6887 82.6573 32.7235ZM89.391 31.9638C89.2256 30.7603 88.5196 29.9271 87.3694 29.9271C86.2391 29.9271 85.5149 30.724 85.2914 31.9638H89.391Z" fill="#5F6270"/>
<path d="M93.3053 36.2269L94.4747 34.4471C95.5132 35.1877 96.5881 35.5961 97.4985 35.5961C98.2772 35.5961 98.647 35.3175 98.647 34.8555C98.647 34.2628 97.7193 34.0786 96.6626 33.7437C95.3278 33.3543 93.805 32.7235 93.805 30.8347C93.805 28.8897 95.3824 27.7951 97.3095 27.7951C98.5161 27.7951 99.8527 28.2026 100.873 28.9079L99.8327 30.7794C98.8868 30.2248 97.941 29.8908 97.2541 29.8908C96.5872 29.8908 96.2528 30.1676 96.2528 30.5933C96.2528 31.1324 97.1614 31.3721 98.2018 31.7433C99.5365 32.188 101.095 32.837 101.095 34.6159C101.095 36.7279 99.4992 37.6918 97.4412 37.6918C96.0684 37.6719 94.5673 37.2271 93.3053 36.2269Z" fill="#5F6270"/>
<path d="M102.08 36.2269L103.249 34.4471C104.287 35.1877 105.362 35.5961 106.271 35.5961C107.051 35.5961 107.423 35.3175 107.423 34.8555C107.423 34.2628 106.495 34.0786 105.437 33.7437C104.1 33.3543 102.581 32.7235 102.581 30.8347C102.581 28.8897 104.157 27.7951 106.086 27.7951C107.292 27.7951 108.627 28.2026 109.647 28.9079L108.609 30.7794C107.663 30.2248 106.715 29.8908 106.03 29.8908C105.361 29.8908 105.027 30.1676 105.027 30.5933C105.027 31.1324 105.936 31.3721 106.976 31.7433C108.311 32.188 109.871 32.837 109.871 34.6159C109.871 36.7279 108.275 37.6918 106.216 37.6918C104.844 37.6719 103.341 37.2271 102.08 36.2269Z" fill="#5F6270"/>
<path d="M116.159 34.7438C116.159 32.649 117.755 31.7042 120.017 31.7042C120.983 31.7042 121.667 31.8712 122.356 32.0936V31.9275C122.356 30.7966 121.65 30.1839 120.295 30.1839C119.257 30.1839 118.533 30.3891 117.662 30.704L116.975 28.6283C118.033 28.1654 119.071 27.8686 120.686 27.8686C122.17 27.8686 123.245 28.258 123.912 28.9441C124.618 29.6466 124.953 30.704 124.953 31.9828V37.523H122.337V36.4847C121.668 37.208 120.76 37.6891 119.442 37.6891C117.645 37.69 116.159 36.6698 116.159 34.7438ZM122.391 34.1512V33.6701C121.928 33.4468 121.316 33.318 120.667 33.318C119.499 33.318 118.794 33.7809 118.794 34.6694C118.794 35.3928 119.405 35.8375 120.278 35.8375C121.52 35.8194 122.391 35.1332 122.391 34.1512Z" fill="#5F6270"/>
<path d="M126.139 28.0919H128.885L130.423 33.8916L132.224 28.0538H134.56L136.378 33.8916L137.955 28.0746H140.645L137.659 37.69H135.212L133.373 31.834L131.501 37.69H129.07L126.139 28.0919Z" fill="#5F6270"/>
<path d="M141.369 34.7438C141.369 32.649 142.965 31.7042 145.227 31.7042C146.191 31.7042 146.877 31.8712 147.564 32.0936V31.9275C147.564 30.7966 146.86 30.1839 145.505 30.1839C144.465 30.1839 143.744 30.3891 142.87 30.704L142.185 28.6283C143.241 28.1654 144.281 27.8686 145.894 27.8686C147.378 27.8686 148.453 28.258 149.122 28.9441C149.827 29.6466 150.161 30.704 150.161 31.9828V37.523H147.545V36.4847C146.878 37.208 145.97 37.6891 144.652 37.6891C142.851 37.69 141.369 36.6698 141.369 34.7438ZM147.582 34.1512V33.6701C147.119 33.4468 146.507 33.318 145.858 33.318C144.69 33.318 143.983 33.7809 143.983 34.6694C143.983 35.3928 144.596 35.8375 145.467 35.8375C146.728 35.8194 147.582 35.1332 147.582 34.1512Z" fill="#5F6270"/>
<path d="M152.498 28.1291H155.206V30.0551C155.763 28.7399 156.652 27.8867 158.249 27.9612V30.7966H158.1C156.301 30.7966 155.188 31.8894 155.188 34.1693V37.69H152.481V28.1291H152.498Z" fill="#5F6270"/>
<path d="M159.344 32.7053C159.344 29.5186 161.441 27.776 163.703 27.776C165.149 27.776 166.04 28.4422 166.689 29.2028V24.4968H169.397V37.5039H166.689V36.1325C166.021 37.022 165.112 37.69 163.703 37.69C161.478 37.6718 159.344 35.9301 159.344 32.7053ZM166.708 32.7053C166.708 31.1124 165.65 30.0741 164.388 30.0741C163.128 30.0741 162.053 31.1133 162.053 32.7416C162.053 34.3363 163.129 35.3728 164.388 35.3728C165.667 35.3737 166.708 34.3363 166.708 32.7053Z" fill="#5F6270"/>
<path d="M54.5179 44.9637V42.6647H53.1087V44.9637H52.7934V42.3679H54.8341V44.9637H54.5179Z" fill="#5F6270"/>
<path d="M58.4513 44.9637H58.136V42.3679C58.1841 42.3679 58.2914 42.3679 58.4658 42.3652C58.6403 42.3597 58.7584 42.3597 58.8147 42.3597C59.1563 42.3597 59.4017 42.4387 59.5498 42.5912C59.7015 42.7437 59.7769 42.9306 59.7769 43.1648C59.7769 43.3908 59.6951 43.5841 59.5316 43.7439C59.3726 43.9045 59.1418 43.9808 58.842 43.9808C58.6966 43.9808 58.5667 43.978 58.4522 43.9653L58.4513 44.9637ZM58.4513 42.6647V43.6658C58.5921 43.6776 58.7175 43.684 58.8293 43.684C59.2118 43.684 59.4416 43.4888 59.4416 43.163C59.4416 42.8471 59.2454 42.6574 58.8447 42.6574C58.7438 42.6565 58.6139 42.6602 58.4513 42.6647Z" fill="#5F6270"/>
<path d="M62.8726 44.9637V42.3679H64.339V42.6647H63.1878V43.5024H64.2273V43.7983H63.1878V44.6669H64.3763V44.9637H62.8726Z" fill="#5F6270"/>
<path d="M67.5291 44.9637V42.3679H67.848L68.8239 43.6985L69.7588 42.3679H70.0596V44.9637H69.7443V42.8653L68.8239 44.1541H68.7757L67.8444 42.8753V44.9637H67.5291Z" fill="#5F6270"/>
<path d="M73.6386 44.9637H73.3615V42.3679H73.6758V44.4437L75.2532 42.3679H75.5321V44.9637H75.2168V42.8862L73.6386 44.9637Z" fill="#5F6270"/>
<path d="M80.0497 44.9637V43.9989H79.5645L78.893 44.9637H78.535L79.2556 43.9435C78.9621 43.8246 78.7431 43.5614 78.7431 43.2165C78.7431 42.9696 78.8294 42.7609 78.9993 42.6011C79.1701 42.4378 79.4218 42.3561 79.7562 42.3561C79.8153 42.3561 79.9197 42.3588 80.0678 42.3642C80.2178 42.367 80.3168 42.367 80.365 42.367V44.9628L80.0497 44.9637ZM80.0497 43.703V42.6638C79.8789 42.6556 79.7607 42.6529 79.698 42.6529C79.3083 42.6529 79.0784 42.8743 79.0784 43.1984C79.0784 43.3272 79.1229 43.4434 79.2119 43.5351C79.301 43.6277 79.4046 43.6821 79.5272 43.703H80.0497Z" fill="#5F6270"/>
<path d="M87.3039 44.9637H87.0232V42.3679H87.3394V44.4437L88.9167 42.3679H89.1957V44.9637H88.8795V42.8862L87.3039 44.9637Z" fill="#5F6270"/>
<path d="M94.2411 44.9637V43.7874H92.8119V44.9637H92.4966V42.3679H92.8119V43.4907H94.2411V42.3679H94.5564V44.9637H94.2411Z" fill="#5F6270"/>
<path d="M97.5239 45.4448V44.6669H97.801C97.881 44.5671 97.9664 44.3665 98.0545 44.0615C98.1472 43.7539 98.2036 43.3645 98.2281 42.8862L98.2544 42.3679H99.7827V44.6669H100.136V45.4448H99.84V44.9637H97.8201V45.4448H97.5239ZM98.5252 43.1285C98.5007 43.526 98.4434 43.8591 98.3671 44.136C98.289 44.411 98.2145 44.588 98.1509 44.6669H99.4692V42.6647H98.5606L98.5252 43.1285Z" fill="#5F6270"/>
<path d="M105.052 42.3679L104.154 44.3701C103.973 44.7804 103.787 44.9637 103.508 44.9637C103.378 44.9637 103.27 44.9329 103.192 44.8693L103.304 44.6025C103.365 44.6479 103.433 44.6687 103.504 44.6687C103.634 44.6687 103.739 44.5789 103.824 44.4055L103.869 44.3111L102.692 42.367H103.049L104.019 43.9953L104.733 42.367L105.052 42.3679Z" fill="#5F6270"/>
<path d="M109.829 44.7114C109.656 44.8884 109.338 45 109.011 45C108.621 45 108.302 44.8766 108.056 44.6379C107.815 44.3928 107.695 44.0697 107.695 43.6658C107.695 43.2837 107.808 42.966 108.043 42.7128C108.277 42.4578 108.593 42.3307 108.989 42.3307C109.318 42.3307 109.583 42.416 109.78 42.583L109.635 42.8199C109.461 42.691 109.248 42.6284 108.992 42.6284C108.71 42.6284 108.48 42.7246 108.298 42.917C108.116 43.1094 108.028 43.3563 108.028 43.6649C108.028 43.9726 108.121 44.224 108.305 44.4164C108.495 44.6061 108.741 44.7023 109.04 44.7023C109.296 44.7023 109.516 44.6243 109.704 44.4736L109.829 44.7114Z" fill="#5F6270"/>
<path d="M112.5 42.6647V42.3679H114.635V42.6647H113.724V44.9637H113.408V42.6647H112.5Z" fill="#5F6270"/>
<path d="M117.9 44.9637H117.584V42.3679C117.632 42.3679 117.738 42.3679 117.914 42.3652C118.087 42.3597 118.206 42.3597 118.262 42.3597C118.604 42.3597 118.849 42.4387 118.997 42.5912C119.149 42.7437 119.224 42.9306 119.224 43.1648C119.224 43.3908 119.142 43.5841 118.979 43.7439C118.819 43.9045 118.588 43.9808 118.288 43.9808C118.145 43.9808 118.015 43.978 117.899 43.9653L117.9 44.9637ZM117.9 42.6647V43.6658C118.04 43.6776 118.166 43.684 118.278 43.684C118.66 43.684 118.891 43.4888 118.891 43.163C118.891 42.8471 118.693 42.6574 118.293 42.6574C118.191 42.6565 118.063 42.6602 117.9 42.6647Z" fill="#5F6270"/>
<path d="M122.601 44.9637H122.321V42.3679H122.637V44.4437L124.214 42.3679H124.491V44.9637H124.177V42.8862L122.601 44.9637Z" fill="#5F6270"/>
<path d="M128.072 44.9637H127.793V42.3679H128.107V44.4437L129.685 42.3679H129.964V44.9637H129.648V42.8862L128.072 44.9637Z" fill="#5F6270"/>
<path d="M137.618 44.9928V44.6506H137.614C137.24 44.6506 136.942 44.5616 136.716 44.3801C136.495 44.1986 136.381 43.9499 136.381 43.6277C136.381 43.3064 136.495 43.0568 136.716 42.8798C136.938 42.6983 137.24 42.6093 137.618 42.6039V42.338H137.934V42.6039C138.316 42.6093 138.617 42.6983 138.843 42.8798C139.07 43.0613 139.18 43.3091 139.18 43.6277C139.18 43.9499 139.064 44.1986 138.839 44.3801C138.612 44.5616 138.316 44.6506 137.945 44.6506H137.934V44.9928H137.618ZM137.614 44.362H137.618V42.8989C137.053 42.8989 136.716 43.173 136.716 43.6286C136.716 44.1033 137.061 44.362 137.614 44.362ZM137.934 42.8989V44.362H137.941C138.509 44.362 138.846 44.1069 138.846 43.6277C138.846 43.1675 138.513 42.898 137.938 42.898L137.934 42.8989Z" fill="#5F6270"/>
<path d="M142.518 44.9637H142.241V42.3679H142.556V44.4437L144.132 42.3679H144.411V44.9637H144.095V42.8862L142.518 44.9637Z" fill="#5F6270"/>
<path d="M147.361 42.6647V42.3679H149.493V42.6647H148.585V44.9637H148.269V42.6647H147.361Z" fill="#5F6270"/>
<path d="M154.187 44.9637V43.7874H152.757V44.9637H152.441V42.3679H152.757V43.4907H154.187V42.3679H154.503V44.9637H154.187Z" fill="#5F6270"/>
<path d="M157.804 44.9637V42.3679H159.268V42.6647H158.119V43.5024H159.158V43.7983H158.119V44.6669H159.307V44.9637H157.804Z" fill="#5F6270"/>
<path d="M164.393 44.7114C164.22 44.8884 163.898 45 163.572 45C163.183 45 162.864 44.8766 162.619 44.6379C162.379 44.3928 162.255 44.0697 162.255 43.6658C162.255 43.2837 162.371 42.966 162.605 42.7128C162.838 42.4578 163.154 42.3307 163.551 42.3307C163.881 42.3307 164.143 42.416 164.341 42.583L164.197 42.8199C164.024 42.691 163.81 42.6284 163.555 42.6284C163.272 42.6284 163.043 42.7246 162.861 42.917C162.68 43.1094 162.589 43.3563 162.589 43.6649C162.589 43.9726 162.683 44.224 162.87 44.4164C163.058 44.6061 163.303 44.7023 163.605 44.7023C163.86 44.7023 164.078 44.6243 164.268 44.4736L164.393 44.7114Z" fill="#5F6270"/>
<path d="M167.037 44.9637L168.154 42.3534H168.426L169.542 44.9637H169.205L168.872 44.1777H167.688L167.358 44.9637H167.037ZM168.281 42.7727L167.813 43.88H168.747L168.281 42.7727Z" fill="#5F6270"/>
</g>
<defs>
<clipPath id="clip0_340_1132">
<rect width="169" height="45" fill="white"/>
</clipPath>
</defs>
</svg>
