<svg width="40" height="40" viewBox="0 0 40 40" fill="none" xmlns="http://www.w3.org/2000/svg">
<path d="M20 40C31.0457 40 40 31.0457 40 20C40 8.95431 31.0457 0 20 0C8.95431 0 0 8.95431 0 20C0 31.0457 8.95431 40 20 40Z" fill="white"/>
<path d="M7.4482 20.978C9.7862 19.6902 12.396 18.6153 14.8345 17.535C19.0297 15.7655 23.2415 14.0266 27.4959 12.4078C28.3236 12.132 29.8109 11.8623 29.9567 13.0889C29.8768 14.8252 29.5483 16.5514 29.323 18.2776C28.7511 22.0736 28.0901 25.8566 27.4455 29.6401C27.2234 30.9004 25.6447 31.5527 24.6345 30.7462C22.2068 29.1064 19.7605 27.4825 17.3638 25.8047C16.5788 25.007 17.3068 23.8614 18.0079 23.2917C20.0074 21.3212 22.1279 19.647 24.0229 17.5747C24.5341 16.3404 23.0237 17.3806 22.5256 17.6994C19.7882 19.5857 17.1179 21.5872 14.2319 23.2451C12.7577 24.0565 11.0396 23.3631 9.56606 22.9103C8.24491 22.3633 6.3089 21.8121 7.44806 20.9781L7.4482 20.978Z" fill="#212A33"/>
</svg>
